SplineFontDB: 3.0
FontName: TitilliumWeb-Regular
FullName: Titillium Web
FamilyName: Titillium Web
Weight: Book
Copyright: Copyright (c) 2009-2011 by Accademia di Belle Arti di Urbino and students of MA course of Visual design. Some rights reserved.
Version: 1.001;PS 57.000;hotconv 1.0.70;makeotf.lib2.5.55311
ItalicAngle: 0
UnderlinePosition: -80
UnderlineWidth: 30
Ascent: 800
Descent: 200
sfntRevision: 0x00010000
LayerCount: 2
Layer: 0 1 "Back"  1
Layer: 1 1 "Fore"  0
XUID: [1021 340 250931312 14528999]
FSType: 8
OS2Version: 3
OS2_WeightWidthSlopeOnly: 0
OS2_UseTypoMetrics: 1
CreationTime: 1349090286
ModificationTime: 1349108893
PfmFamily: 81
TTFWeight: 400
TTFWidth: 5
LineGap: 0
VLineGap: 0
Panose: 0 0 5 0 0 0 0 0 0 0
OS2TypoAscent: 1133
OS2TypoAOffset: 0
OS2TypoDescent: -388
OS2TypoDOffset: 0
OS2TypoLinegap: 0
OS2WinAscent: 1133
OS2WinAOffset: 0
OS2WinDescent: 388
OS2WinDOffset: 0
HheadAscent: 1133
HheadAOffset: 0
HheadDescent: -388
HheadDOffset: 0
OS2SubXSize: 650
OS2SubYSize: 600
OS2SubXOff: 0
OS2SubYOff: 75
OS2SupXSize: 650
OS2SupYSize: 600
OS2SupXOff: 0
OS2SupYOff: 350
OS2StrikeYSize: 30
OS2StrikeYPos: 300
OS2Vendor: 'UKWN'
OS2CodePages: 20000093.00000000
OS2UnicodeRanges: 00000007.00000001.00000000.00000000
Lookup: 1 0 0 "'locl' Localized Forms in Latin lookup 0"  {"'locl' Localized Forms in Latin lookup 0 subtable"  } ['locl' ('DFLT' <'dflt' > 'latn' <'dflt' > ) ]
Lookup: 1 0 0 "'frac' Diagonal Fractions in Latin lookup 1"  {"'frac' Diagonal Fractions in Latin lookup 1 subtable"  } ['frac' ('DFLT' <'dflt' > 'latn' <'dflt' > ) ]
Lookup: 6 0 0 "'frac' Diagonal Fractions in Latin lookup 2"  {"'frac' Diagonal Fractions in Latin lookup 2 subtable"  } ['frac' ('DFLT' <'dflt' > 'latn' <'dflt' > ) ]
Lookup: 1 0 0 "'frac' Diagonal Fractions in Latin lookup 3"  {"'frac' Diagonal Fractions in Latin lookup 3 subtable"  } ['frac' ('DFLT' <'dflt' > 'latn' <'dflt' > ) ]

StartChar: exclam
Encoding: 33 33 4
Width: 247
GlyphClass: 2
Flags: W
LayerCount: 2
Fore
SplineSet
83 0 m 1,0,-1
 83 112 l 1,1,-1
 165 112 l 1,2,-1
 165 0 l 1,3,-1
 83 0 l 1,0,-1
89 228 m 1,4,-1
 84 692 l 1,5,-1
 163 692 l 1,6,-1
 158 228 l 1,7,-1
 89 228 l 1,4,-1
EndSplineSet
EndChar

StartChar: quotedbl
Encoding: 34 34 5
Width: 373
GlyphClass: 2
Flags: W
LayerCount: 2
Fore
SplineSet
303 470 m 1,0,-1
 236 470 l 1,1,-1
 232 692 l 1,2,-1
 307 692 l 1,3,-1
 303 470 l 1,0,-1
137 470 m 1,4,-1
 70 470 l 1,5,-1
 66 692 l 1,6,-1
 141 692 l 1,7,-1
 137 470 l 1,4,-1
EndSplineSet
EndChar

StartChar: numbersign
Encoding: 35 35 6
Width: 560
GlyphClass: 2
Flags: W
LayerCount: 2
Fore
SplineSet
536 174 m 1,0,-1
 425 174 l 1,1,-1
 425 0 l 1,2,-1
 357 0 l 1,3,-1
 357 174 l 1,4,-1
 203 174 l 1,5,-1
 203 0 l 1,6,-1
 135 0 l 1,7,-1
 135 174 l 1,8,-1
 24 174 l 1,9,-1
 24 238 l 1,10,-1
 135 238 l 1,11,-1
 135 424 l 1,12,-1
 24 424 l 1,13,-1
 24 488 l 1,14,-1
 135 488 l 1,15,-1
 135 666 l 1,16,-1
 203 666 l 1,17,-1
 203 488 l 1,18,-1
 357 488 l 1,19,-1
 357 666 l 1,20,-1
 425 666 l 1,21,-1
 425 488 l 1,22,-1
 536 488 l 1,23,-1
 536 424 l 1,24,-1
 425 424 l 1,25,-1
 425 238 l 1,26,-1
 536 238 l 1,27,-1
 536 174 l 1,0,-1
357 238 m 1,28,-1
 357 424 l 1,29,-1
 203 424 l 1,30,-1
 203 238 l 1,31,-1
 357 238 l 1,28,-1
EndSplineSet
EndChar

StartChar: dollar
Encoding: 36 36 7
Width: 560
GlyphClass: 2
Flags: W
LayerCount: 2
Fore
SplineSet
494 194 m 0,0,1
 494 -9 494 -9 283 -9 c 2,2,-1
 268 -9 l 1,3,-1
 254 -124 l 1,4,5
 203 -121 203 -121 203 -117 c 2,6,-1
 217 -6 l 1,7,-1
 74 12 l 1,8,-1
 82 73 l 1,9,10
 159 62 159 62 225 58 c 1,11,-1
 258 308 l 1,12,13
 156 332 156 332 112.5 369.5 c 128,-1,14
 69 407 69 407 69 493 c 0,15,16
 69 670 69 670 281 670 c 0,17,18
 296 670 296 670 304 669 c 1,19,-1
 321 798 l 1,20,-1
 372 798 l 1,21,-1
 355 666 l 1,22,-1
 480 651 l 1,23,-1
 474 589 l 1,24,25
 405 597 405 597 347 602 c 1,26,-1
 317 369 l 1,27,28
 414 346 414 346 454 310 c 128,-1,29
 494 274 494 274 494 194 c 0,0,1
143 497 m 0,30,31
 143 443 143 443 170 420 c 128,-1,32
 197 397 197 397 267 380 c 1,33,-1
 296 605 l 1,34,-1
 286 605 l 2,35,36
 143 605 143 605 143 497 c 0,30,31
420 189 m 0,37,38
 420 237 420 237 395 260 c 128,-1,39
 370 283 370 283 308 298 c 1,40,-1
 277 56 l 1,41,-1
 279 56 l 2,42,43
 420 56 420 56 420 189 c 0,37,38
EndSplineSet
EndChar

StartChar: percent
Encoding: 37 37 8
Width: 560
GlyphClass: 2
Flags: W
LayerCount: 2
Fore
SplineSet
155 -4 m 1,0,-1
 360 681 l 1,1,-1
 408 665 l 1,2,-1
 203 -18 l 1,3,-1
 155 -4 l 1,0,-1
138 670 m 128,-1,5
 248 670 248 670 248 532 c 0,6,7
 248 461 248 461 219 426 c 128,-1,8
 190 391 190 391 138 391 c 128,-1,9
 86 391 86 391 57 426 c 128,-1,10
 28 461 28 461 28 532 c 0,11,4
 28 670 28 670 138 670 c 128,-1,5
89 532 m 0,12,13
 89 442 89 442 138.5 442 c 128,-1,14
 188 442 188 442 188 532 c 0,15,16
 188 577 188 577 176.5 598 c 128,-1,17
 165 619 165 619 138.5 619 c 128,-1,18
 112 619 112 619 100.5 598 c 128,-1,19
 89 577 89 577 89 532 c 0,12,13
313 132 m 0,20,21
 313 269 313 269 422.5 269 c 128,-1,22
 532 269 532 269 532 131 c 0,23,24
 532 61 532 61 503 25.5 c 128,-1,25
 474 -10 474 -10 422 -10 c 128,-1,26
 370 -10 370 -10 341.5 25.5 c 128,-1,27
 313 61 313 61 313 132 c 0,20,21
373 132 m 0,28,29
 373 41 373 41 422 41 c 0,30,31
 450 41 450 41 461 63 c 128,-1,32
 472 85 472 85 472 131 c 128,-1,33
 472 177 472 177 461 197.5 c 128,-1,34
 450 218 450 218 423 218 c 128,-1,35
 396 218 396 218 384.5 197.5 c 128,-1,36
 373 177 373 177 373 132 c 0,28,29
EndSplineSet
EndChar

StartChar: ampersand
Encoding: 38 38 9
Width: 688
GlyphClass: 2
Flags: W
LayerCount: 2
Fore
SplineSet
186 661 m 128,-1,1
 232 701 232 701 316 701 c 128,-1,2
 400 701 400 701 443.5 661 c 128,-1,3
 487 621 487 621 487 550.5 c 128,-1,4
 487 480 487 480 452 439.5 c 128,-1,5
 417 399 417 399 333 360 c 1,6,-1
 485 210 l 1,7,8
 507 274 507 274 513 372 c 1,9,-1
 586 371 l 1,10,11
 573 246 573 246 540 163 c 1,12,-1
 669 41 l 1,13,-1
 624 -9 l 1,14,-1
 503 104 l 1,15,16
 434 -10 434 -10 294 -10 c 128,-1,17
 154 -10 154 -10 98 44 c 128,-1,18
 42 98 42 98 42 193.5 c 128,-1,19
 42 289 42 289 78.5 333.5 c 128,-1,20
 115 378 115 378 197 405 c 1,21,22
 162 445 162 445 151 476 c 128,-1,23
 140 507 140 507 140 554 c 0,24,0
 140 621 140 621 186 661 c 128,-1,1
282 58 m 0,25,26
 405 58 405 58 451 148 c 1,27,-1
 240 358 l 1,28,29
 174 337 174 337 146 304 c 128,-1,30
 118 271 118 271 118 202 c 0,31,32
 118 58 118 58 282 58 c 0,25,26
215 542 m 0,33,34
 215 481 215 481 260 433 c 1,35,-1
 289 405 l 1,36,37
 358 435 358 435 385 464 c 128,-1,38
 412 493 412 493 412 544 c 0,39,40
 412 636 412 636 313.5 636 c 128,-1,41
 215 636 215 636 215 542 c 0,33,34
EndSplineSet
EndChar

StartChar: quotesingle
Encoding: 39 39 10
Width: 208
GlyphClass: 2
Flags: W
LayerCount: 2
Fore
SplineSet
70 470 m 1,0,-1
 67 692 l 1,1,-1
 142 692 l 1,2,-1
 137 470 l 1,3,-1
 70 470 l 1,0,-1
EndSplineSet
EndChar

StartChar: parenleft
Encoding: 40 40 11
Width: 264
GlyphClass: 2
Flags: W
LayerCount: 2
Fore
SplineSet
155 -125 m 1,0,1
 51 109 51 109 51 301 c 0,2,3
 51 397 51 397 77 509.5 c 128,-1,4
 103 622 103 622 129 686 c 2,5,-1
 155 750 l 1,6,-1
 227 750 l 1,7,8
 192 658 192 658 162 522.5 c 128,-1,9
 132 387 132 387 132 301.5 c 128,-1,10
 132 216 132 216 156 109.5 c 128,-1,11
 180 3 180 3 204 -61 c 2,12,-1
 227 -125 l 1,13,-1
 155 -125 l 1,0,1
EndSplineSet
Substitution2: "'case' Case-Sensitive Forms in Latin lookup 4 subtable" parenleft.cap
EndChar

StartChar: parenright
Encoding: 41 41 12
Width: 264
GlyphClass: 2
Flags: W
LayerCount: 2
Fore
SplineSet
202 431 m 0,0,1
 213 361 213 361 213 283 c 128,-1,2
 213 205 213 205 187 98.5 c 128,-1,3
 161 -8 161 -8 135 -66 c 2,4,-1
 109 -125 l 1,5,-1
 37 -125 l 1,6,7
 71 -45 71 -45 101.5 85.5 c 128,-1,8
 132 216 132 216 132 301.5 c 128,-1,9
 132 387 132 387 108.5 499 c 128,-1,10
 85 611 85 611 61 680 c 2,11,-1
 37 750 l 1,12,-1
 109 750 l 1,13,14
 175 601 175 601 202 431 c 0,0,1
EndSplineSet
Substitution2: "'case' Case-Sensitive Forms in Latin lookup 4 subtable" parenright.cap
EndChar

StartChar: asterisk
Encoding: 42 42 13
Width: 420
GlyphClass: 2
Flags: W
LayerCount: 2
Fore
SplineSet
373 511 m 1,0,-1
 241 511 l 1,1,-1
 282 386 l 1,2,-1
 233 371 l 1,3,-1
 192 497 l 1,4,-1
 85 418 l 1,5,-1
 54 458 l 1,6,-1
 162 537 l 1,7,-1
 56 614 l 1,8,-1
 87 656 l 1,9,-1
 193 578 l 1,10,-1
 234 704 l 1,11,-1
 283 688 l 1,12,-1
 243 561 l 1,13,-1
 373 561 l 1,14,-1
 373 511 l 1,0,-1
EndSplineSet
EndChar

StartChar: plus
Encoding: 43 43 14
Width: 560
GlyphClass: 2
Flags: W
LayerCount: 2
Fore
SplineSet
55 217 m 1,0,-1
 55 285 l 1,1,-1
 244 285 l 1,2,-1
 244 480 l 1,3,-1
 314 480 l 1,4,-1
 314 285 l 1,5,-1
 505 285 l 1,6,-1
 505 217 l 1,7,-1
 314 217 l 1,8,-1
 314 20 l 1,9,-1
 244 20 l 1,10,-1
 244 217 l 1,11,-1
 55 217 l 1,0,-1
EndSplineSet
EndChar

StartChar: comma
Encoding: 44 44 15
Width: 223
GlyphClass: 2
Flags: W
LayerCount: 2
Fore
SplineSet
34 -123 m 1,0,-1
 80 107 l 1,1,-1
 163 107 l 1,2,-1
 96 -123 l 1,3,-1
 34 -123 l 1,0,-1
EndSplineSet
EndChar

StartChar: hyphen
Encoding: 45 45 16
Width: 438
GlyphClass: 2
Flags: W
LayerCount: 2
Fore
SplineSet
68 240 m 1,0,-1
 68 310 l 1,1,-1
 371 310 l 1,2,-1
 371 240 l 1,3,-1
 68 240 l 1,0,-1
EndSplineSet
EndChar

StartChar: period
Encoding: 46 46 17
Width: 216
GlyphClass: 2
Flags: W
LayerCount: 2
Fore
SplineSet
67 0 m 1,0,-1
 67 114 l 1,1,-1
 149 114 l 1,2,-1
 149 0 l 1,3,-1
 67 0 l 1,0,-1
EndSplineSet
EndChar

StartChar: slash
Encoding: 47 47 18
Width: 412
GlyphClass: 2
Flags: W
LayerCount: 2
Fore
SplineSet
32 10 m 1,0,-1
 314 708 l 1,1,-1
 381 683 l 1,2,-1
 99 -14 l 1,3,-1
 32 10 l 1,0,-1
EndSplineSet
Substitution2: "'frac' Diagonal Fractions in Latin lookup 3 subtable" fraction
EndChar

StartChar: zero
Encoding: 48 48 19
Width: 560
GlyphClass: 2
Flags: W
LayerCount: 2
Fore
SplineSet
279 671 m 0,0,1
 361 671 361 671 412 640 c 0,2,3
 520 576 520 576 520 320 c 0,4,5
 520 139 520 139 460 64.5 c 128,-1,6
 400 -10 400 -10 280 -10 c 128,-1,7
 160 -10 160 -10 99.5 63.5 c 128,-1,8
 39 137 39 137 39 325.5 c 128,-1,9
 39 514 39 514 98.5 592.5 c 128,-1,10
 158 671 158 671 279 671 c 0,0,1
280 602 m 0,11,12
 223 602 223 602 190 578 c 1,13,14
 119 529 119 529 119 319 c 0,15,16
 119 171 119 171 158 114.5 c 128,-1,17
 197 58 197 58 280 58 c 128,-1,18
 363 58 363 58 402 115 c 128,-1,19
 441 172 441 172 441 326.5 c 128,-1,20
 441 481 441 481 403.5 541.5 c 128,-1,21
 366 602 366 602 280 602 c 0,11,12
EndSplineSet
Substitution2: "'frac' Diagonal Fractions in Latin lookup 1 subtable" zerosuperior
EndChar

StartChar: one
Encoding: 49 49 20
Width: 560
GlyphClass: 2
Flags: W
LayerCount: 2
Fore
SplineSet
389 660 m 1,0,-1
 389 0 l 1,1,-1
 312 0 l 1,2,-1
 312 574 l 1,3,-1
 142 462 l 1,4,-1
 107 520 l 1,5,-1
 317 660 l 1,6,-1
 389 660 l 1,0,-1
EndSplineSet
Substitution2: "'frac' Diagonal Fractions in Latin lookup 1 subtable" onesuperior
EndChar

StartChar: two
Encoding: 50 50 21
Width: 560
GlyphClass: 2
Flags: W
LayerCount: 2
Fore
SplineSet
491 0 m 1,0,-1
 69 0 l 1,1,-1
 69 65 l 1,2,-1
 262 268 l 2,3,4
 312 320 312 320 335 347 c 128,-1,5
 358 374 358 374 376.5 411 c 128,-1,6
 395 448 395 448 395 485 c 0,7,8
 395 549 395 549 360 575 c 128,-1,9
 325 601 325 601 251 601 c 0,10,11
 186 601 186 601 106 584 c 1,12,-1
 80 579 l 1,13,-1
 74 643 l 1,14,15
 169 670 169 670 270 670 c 128,-1,16
 371 670 371 670 422.5 627.5 c 128,-1,17
 474 585 474 585 474 493 c 0,18,19
 474 423 474 423 443 371 c 128,-1,20
 412 319 412 319 336 246 c 1,21,-1
 160 67 l 1,22,-1
 491 67 l 1,23,-1
 491 0 l 1,0,-1
EndSplineSet
Substitution2: "'frac' Diagonal Fractions in Latin lookup 1 subtable" twosuperior
EndChar

StartChar: three
Encoding: 51 51 22
Width: 560
GlyphClass: 2
Flags: W
LayerCount: 2
Fore
SplineSet
72 643 m 1,0,1
 166 671 166 671 273.5 671 c 128,-1,2
 381 671 381 671 429 630 c 128,-1,3
 477 589 477 589 477 499 c 0,4,5
 477 453 477 453 464.5 432.5 c 128,-1,6
 452 412 452 412 444.5 401 c 128,-1,7
 437 390 437 390 425 380 c 0,8,9
 403 363 403 363 390 356 c 1,10,-1
 379 349 l 1,11,12
 437 328 437 328 465 295.5 c 128,-1,13
 493 263 493 263 493 189 c 0,14,15
 493 88 493 88 441.5 39 c 128,-1,16
 390 -10 390 -10 279 -10 c 0,17,18
 191 -10 191 -10 93 10 c 1,19,-1
 62 17 l 1,20,-1
 69 80 l 1,21,22
 177 58 177 58 271 58 c 0,23,24
 414 59 414 59 414 186 c 0,25,26
 414 305 414 305 278 310 c 1,27,-1
 145 310 l 1,28,-1
 145 376 l 1,29,-1
 278 376 l 2,30,31
 320 376 320 376 359 409.5 c 128,-1,32
 398 443 398 443 398 498 c 128,-1,33
 398 553 398 553 367 577.5 c 128,-1,34
 336 602 336 602 263 602 c 0,35,36
 183 602 183 602 105 587 c 2,37,-1
 79 582 l 1,38,-1
 72 643 l 1,0,1
EndSplineSet
Substitution2: "'frac' Diagonal Fractions in Latin lookup 1 subtable" threesuperior
EndChar

StartChar: four
Encoding: 52 52 23
Width: 560
GlyphClass: 2
Flags: W
LayerCount: 2
Fore
SplineSet
360 0 m 1,0,-1
 360 129 l 1,1,-1
 40 129 l 1,2,-1
 40 189 l 1,3,-1
 228 660 l 1,4,-1
 312 660 l 1,5,-1
 121 197 l 1,6,-1
 360 197 l 1,7,-1
 360 403 l 1,8,-1
 437 403 l 1,9,-1
 437 197 l 1,10,-1
 521 197 l 1,11,-1
 521 129 l 1,12,-1
 437 129 l 1,13,-1
 437 0 l 1,14,-1
 360 0 l 1,0,-1
EndSplineSet
Substitution2: "'frac' Diagonal Fractions in Latin lookup 1 subtable" foursuperior
EndChar

StartChar: five
Encoding: 53 53 24
Width: 560
GlyphClass: 2
Flags: W
LayerCount: 2
Fore
SplineSet
477 660 m 1,0,-1
 477 590 l 1,1,-1
 156 590 l 1,2,-1
 138 375 l 1,3,4
 215 416 215 416 293 416 c 0,5,6
 503 416 503 416 503 221 c 0,7,8
 503 109 503 109 445 50 c 128,-1,9
 387 -9 387 -9 282 -9 c 0,10,11
 198 -9 198 -9 96 13 c 2,12,-1
 63 20 l 1,13,-1
 72 81 l 1,14,15
 187 59 187 59 265.5 59 c 128,-1,16
 344 59 344 59 384 99.5 c 128,-1,17
 424 140 424 140 424 213 c 128,-1,18
 424 286 424 286 387.5 316.5 c 128,-1,19
 351 347 351 347 284 347 c 0,20,21
 248 347 248 347 208.5 337 c 128,-1,22
 169 327 169 327 148 317 c 2,23,-1
 127 307 l 1,24,-1
 74 317 l 1,25,-1
 92 660 l 1,26,-1
 477 660 l 1,0,-1
EndSplineSet
Substitution2: "'frac' Diagonal Fractions in Latin lookup 1 subtable" fivesuperior
EndChar

StartChar: six
Encoding: 54 54 25
Width: 560
GlyphClass: 2
Flags: W
LayerCount: 2
Fore
SplineSet
482 590 m 1,0,1
 392 602 392 602 307 602 c 128,-1,2
 222 602 222 602 176 543 c 128,-1,3
 130 484 130 484 130 374 c 1,4,-1
 155 384 l 2,5,6
 180 393 180 393 221.5 403 c 128,-1,7
 263 413 263 413 295 413 c 0,8,9
 517 413 517 413 517 208 c 0,10,11
 517 103 517 103 456.5 46.5 c 128,-1,12
 396 -10 396 -10 286 -10 c 0,13,14
 50 -10 50 -10 50 333 c 0,15,16
 50 506 50 506 117.5 588 c 128,-1,17
 185 670 185 670 308 670 c 0,18,19
 389 670 389 670 462 658 c 1,20,-1
 489 653 l 1,21,-1
 482 590 l 1,0,1
290 344 m 0,22,23
 256 344 256 344 215.5 334.5 c 128,-1,24
 175 325 175 325 152 316 c 2,25,-1
 129 306 l 1,26,27
 130 192 130 192 167.5 125 c 128,-1,28
 205 58 205 58 282 58 c 128,-1,29
 359 58 359 58 398 96.5 c 128,-1,30
 437 135 437 135 437 205.5 c 128,-1,31
 437 276 437 276 398.5 310 c 128,-1,32
 360 344 360 344 290 344 c 0,22,23
EndSplineSet
Substitution2: "'frac' Diagonal Fractions in Latin lookup 1 subtable" sixsuperior
EndChar

StartChar: seven
Encoding: 55 55 26
Width: 560
GlyphClass: 2
Flags: W
LayerCount: 2
Fore
SplineSet
77 590 m 1,0,-1
 77 660 l 1,1,-1
 487 660 l 1,2,-1
 487 559 l 1,3,-1
 233 -10 l 1,4,-1
 160 13 l 1,5,-1
 409 564 l 1,6,-1
 409 590 l 1,7,-1
 77 590 l 1,0,-1
EndSplineSet
Substitution2: "'frac' Diagonal Fractions in Latin lookup 1 subtable" sevensuperior
EndChar

StartChar: eight
Encoding: 56 56 27
Width: 560
GlyphClass: 2
Flags: W
LayerCount: 2
Fore
SplineSet
278 671 m 128,-1,1
 388 671 388 671 452.5 627.5 c 128,-1,2
 517 584 517 584 517 499 c 0,3,4
 517 437 517 437 492 404.5 c 128,-1,5
 467 372 467 372 407 345 c 1,6,7
 467 318 467 318 497 281.5 c 128,-1,8
 527 245 527 245 527 179 c 0,9,10
 527 -10 527 -10 279.5 -10 c 128,-1,11
 32 -10 32 -10 32 168 c 0,12,13
 32 239 32 239 59.5 276 c 128,-1,14
 87 313 87 313 146 345 c 1,15,16
 92 372 92 372 67.5 406.5 c 128,-1,17
 43 441 43 441 43 500 c 0,18,19
 43 584 43 584 105.5 627.5 c 128,-1,0
 168 671 168 671 278 671 c 128,-1,1
114 181 m 0,20,21
 114 60 114 60 279.5 60 c 128,-1,22
 445 60 445 60 445 187 c 0,23,24
 445 240 445 240 415.5 265.5 c 128,-1,25
 386 291 386 291 328 308 c 1,26,-1
 223 308 l 1,27,28
 168 293 168 293 141 263.5 c 128,-1,29
 114 234 114 234 114 181 c 0,20,21
435 490 m 0,30,31
 435 601 435 601 280 601 c 128,-1,32
 125 601 125 601 125 491 c 0,33,34
 125 447 125 447 149 420 c 128,-1,35
 173 393 173 393 223 375 c 1,36,-1
 328 375 l 1,37,38
 382 392 382 392 408.5 419 c 128,-1,39
 435 446 435 446 435 490 c 0,30,31
EndSplineSet
Substitution2: "'frac' Diagonal Fractions in Latin lookup 1 subtable" eightsuperior
EndChar

StartChar: nine
Encoding: 57 57 28
Width: 560
GlyphClass: 2
Flags: W
LayerCount: 2
Fore
SplineSet
247 58 m 0,0,1
 428 58 428 58 429 288 c 1,2,3
 329 250 329 250 257 250 c 0,4,5
 41 250 41 250 41 451 c 0,6,7
 41 552 41 552 103 611 c 128,-1,8
 165 670 165 670 270 670 c 0,9,10
 391 670 391 670 450 580.5 c 128,-1,11
 509 491 509 491 509 317.5 c 128,-1,12
 509 144 509 144 442.5 67 c 128,-1,13
 376 -10 376 -10 247 -10 c 0,14,15
 172 -10 172 -10 92 4 c 1,16,-1
 66 8 l 1,17,-1
 73 70 l 1,18,19
 163 58 163 58 247 58 c 0,0,1
263 318 m 0,20,21
 324 318 324 318 404 345 c 2,22,-1
 430 354 l 1,23,24
 427 602 427 602 270 602 c 0,25,26
 200 602 200 602 160.5 561.5 c 128,-1,27
 121 521 121 521 121 451 c 0,28,29
 121 318 121 318 263 318 c 0,20,21
EndSplineSet
Substitution2: "'frac' Diagonal Fractions in Latin lookup 1 subtable" ninesuperior
EndChar

StartChar: colon
Encoding: 58 58 29
Width: 217
GlyphClass: 2
Flags: W
LayerCount: 2
Fore
SplineSet
67 322 m 1,0,-1
 67 436 l 1,1,-1
 149 436 l 1,2,-1
 149 322 l 1,3,-1
 67 322 l 1,0,-1
67 0 m 1,4,-1
 67 114 l 1,5,-1
 149 114 l 1,6,-1
 149 0 l 1,7,-1
 67 0 l 1,4,-1
EndSplineSet
EndChar

StartChar: semicolon
Encoding: 59 59 30
Width: 248
GlyphClass: 2
Flags: W
LayerCount: 2
Fore
SplineSet
93 107 m 1,0,-1
 177 107 l 1,1,-1
 110 -123 l 1,2,-1
 48 -123 l 1,3,-1
 93 107 l 1,0,-1
88 322 m 1,4,-1
 88 436 l 1,5,-1
 169 436 l 1,6,-1
 169 322 l 1,7,-1
 88 322 l 1,4,-1
EndSplineSet
EndChar

StartChar: less
Encoding: 60 60 31
Width: 560
GlyphClass: 2
Flags: W
LayerCount: 2
Fore
SplineSet
477 409 m 1,0,-1
 138 252 l 1,1,-1
 477 92 l 1,2,-1
 477 13 l 1,3,-1
 61 218 l 1,4,-1
 61 284 l 1,5,-1
 477 487 l 1,6,-1
 477 409 l 1,0,-1
EndSplineSet
EndChar

StartChar: equal
Encoding: 61 61 32
Width: 560
GlyphClass: 2
Flags: W
LayerCount: 2
Fore
SplineSet
64 309 m 1,0,-1
 64 378 l 1,1,-1
 496 378 l 1,2,-1
 496 309 l 1,3,-1
 64 309 l 1,0,-1
64 124 m 1,4,-1
 64 193 l 1,5,-1
 496 193 l 1,6,-1
 496 124 l 1,7,-1
 64 124 l 1,4,-1
EndSplineSet
EndChar

StartChar: greater
Encoding: 62 62 33
Width: 560
GlyphClass: 2
Flags: W
LayerCount: 2
Fore
SplineSet
421 252 m 1,0,-1
 82 409 l 1,1,-1
 82 487 l 1,2,-1
 498 284 l 1,3,-1
 498 218 l 1,4,-1
 82 13 l 1,5,-1
 82 92 l 1,6,-1
 421 252 l 1,0,-1
EndSplineSet
EndChar

StartChar: question
Encoding: 63 63 34
Width: 447
GlyphClass: 2
Flags: W
LayerCount: 2
Fore
SplineSet
406 542 m 0,0,1
 406 477 406 477 388.5 443.5 c 128,-1,2
 371 410 371 410 317.5 365.5 c 128,-1,3
 264 321 264 321 244 294.5 c 128,-1,4
 224 268 224 268 224 236 c 2,5,-1
 224 201 l 1,6,-1
 161 201 l 1,7,8
 148 228 148 228 148 262 c 128,-1,9
 148 296 148 296 171 325.5 c 128,-1,10
 194 355 194 355 245 399 c 128,-1,11
 296 443 296 443 313 469 c 128,-1,12
 330 495 330 495 330 541.5 c 128,-1,13
 330 588 330 588 298 611 c 128,-1,14
 266 634 266 634 197 634 c 0,15,16
 153 634 153 634 68 616 c 1,17,-1
 42 611 l 1,18,-1
 37 672 l 1,19,20
 138 702 138 702 204 702 c 0,21,22
 307 702 307 702 356.5 664.5 c 128,-1,23
 406 627 406 627 406 542 c 0,0,1
150 1 m 1,24,-1
 150 113 l 1,25,-1
 232 113 l 1,26,-1
 232 1 l 1,27,-1
 150 1 l 1,24,-1
EndSplineSet
EndChar

StartChar: at
Encoding: 64 64 35
Width: 977
GlyphClass: 2
Flags: W
LayerCount: 2
Fore
SplineSet
933 305 m 2,0,-1
 933 292 l 2,1,2
 933 80 933 80 866 25 c 0,3,4
 842 6 842 6 817.5 0 c 128,-1,5
 793 -6 793 -6 761.5 -6 c 128,-1,6
 730 -6 730 -6 707.5 0 c 128,-1,7
 685 6 685 6 673 15 c 0,8,9
 649 33 649 33 640 54 c 1,10,11
 542 -5 542 -5 466 -5 c 0,12,13
 429 -5 429 -5 401.5 4 c 128,-1,14
 374 13 374 13 346 38 c 0,15,16
 290 88 290 88 290 233 c 128,-1,17
 290 378 290 378 335.5 441.5 c 128,-1,18
 381 505 381 505 493 505 c 0,19,20
 536 505 536 505 590 486 c 1,21,-1
 608 479 l 1,22,-1
 608 495 l 1,23,-1
 683 495 l 1,24,-1
 683 304 l 2,25,26
 683 129 683 129 694 96 c 0,27,28
 699 83 699 83 708.5 72 c 128,-1,29
 718 61 718 61 729 59 c 128,-1,30
 740 57 740 57 767 57 c 128,-1,31
 794 57 794 57 812.5 70 c 128,-1,32
 831 83 831 83 844 136 c 128,-1,33
 857 189 857 189 857 292 c 2,34,-1
 857 306 l 2,35,36
 857 491 857 491 775 574 c 128,-1,37
 693 657 693 657 502.5 657 c 128,-1,38
 312 657 312 657 219.5 562.5 c 128,-1,39
 127 468 127 468 127 255.5 c 128,-1,40
 127 43 127 43 215 -47 c 128,-1,41
 303 -137 303 -137 504 -137 c 1,42,-1
 647 -127 l 1,43,-1
 650 -194 l 1,44,45
 556 -203 556 -203 504 -203 c 0,46,47
 388 -203 388 -203 307.5 -181 c 128,-1,48
 227 -159 227 -159 168 -106 c 1,49,50
 51 -4 51 -4 51 261 c 0,51,52
 51 502 51 502 166 612.5 c 128,-1,53
 281 723 281 723 504 723 c 128,-1,54
 727 723 727 723 830 620.5 c 128,-1,55
 933 518 933 518 933 305 c 2,0,-1
471 61 m 0,56,57
 514 61 514 61 617 107 c 1,58,59
 608 161 608 161 608 280 c 2,60,-1
 608 419 l 1,61,62
 548 439 548 439 505 439 c 0,63,64
 424 439 424 439 395 393 c 128,-1,65
 366 347 366 347 366 244 c 0,66,67
 366 61 366 61 471 61 c 0,56,57
EndSplineSet
EndChar

StartChar: A
Encoding: 65 65 36
Width: 596
GlyphClass: 2
Flags: W
LayerCount: 2
Fore
SplineSet
24 0 m 1,0,-1
 214 692 l 1,1,-1
 382 692 l 1,2,-1
 572 0 l 1,3,-1
 496 0 l 1,4,-1
 446 178 l 1,5,-1
 150 178 l 1,6,-1
 100 0 l 1,7,-1
 24 0 l 1,0,-1
272 626 m 1,8,-1
 167 247 l 1,9,-1
 429 247 l 1,10,-1
 324 626 l 1,11,-1
 272 626 l 1,8,-1
EndSplineSet
Position2: "'cpsp' Capital Spacing in Latin lookup 0 subtable" dx=5 dy=0 dh=10 dv=0
EndChar

StartChar: B
Encoding: 66 66 37
Width: 616
GlyphClass: 2
Flags: W
LayerCount: 2
Fore
SplineSet
85 692 m 1,0,-1
 336 692 l 2,1,2
 439 692 439 692 490.5 649.5 c 128,-1,3
 542 607 542 607 542 516 c 0,4,5
 542 451 542 451 519.5 414.5 c 128,-1,6
 497 378 497 378 453 357 c 1,7,8
 563 319 563 319 563 194 c 0,9,10
 563 90 563 90 508 45 c 128,-1,11
 453 0 453 0 349 0 c 2,12,-1
 85 0 l 1,13,-1
 85 692 l 1,0,-1
341 318 m 2,14,-1
 162 318 l 1,15,-1
 162 68 l 1,16,-1
 346 68 l 2,17,18
 414 68 414 68 449.5 96.5 c 128,-1,19
 485 125 485 125 485 197 c 0,20,21
 485 235 485 235 470.5 261 c 128,-1,22
 456 287 456 287 432 298 c 0,23,24
 388 318 388 318 341 318 c 2,14,-1
333 624 m 2,25,-1
 162 624 l 1,26,-1
 162 385 l 1,27,-1
 340 385 l 2,28,29
 404 385 404 385 433.5 415.5 c 128,-1,30
 463 446 463 446 463 507.5 c 128,-1,31
 463 569 463 569 431.5 596.5 c 128,-1,32
 400 624 400 624 333 624 c 2,25,-1
EndSplineSet
Position2: "'cpsp' Capital Spacing in Latin lookup 0 subtable" dx=5 dy=0 dh=10 dv=0
EndChar

StartChar: C
Encoding: 67 67 38
Width: 544
GlyphClass: 2
Flags: W
LayerCount: 2
Fore
SplineSet
503 11 m 1,0,1
 400 -10 400 -10 318 -10 c 128,-1,2
 236 -10 236 -10 185.5 12.5 c 128,-1,3
 135 35 135 35 107.5 82.5 c 128,-1,4
 80 130 80 130 69.5 191.5 c 128,-1,5
 59 253 59 253 59 345 c 128,-1,6
 59 437 59 437 69.5 499.5 c 128,-1,7
 80 562 80 562 107.5 610 c 128,-1,8
 135 658 135 658 185 680 c 128,-1,9
 235 702 235 702 315 702 c 128,-1,10
 395 702 395 702 503 680 c 1,11,-1
 500 615 l 1,12,13
 399 633 399 633 320 633 c 0,14,15
 210 633 210 633 174.5 567.5 c 128,-1,16
 139 502 139 502 139 344 c 0,17,18
 139 265 139 265 145.5 217 c 128,-1,19
 152 169 152 169 171 130.5 c 128,-1,20
 190 92 190 92 226.5 75.5 c 128,-1,21
 263 59 263 59 333.5 59 c 128,-1,22
 404 59 404 59 500 77 c 1,23,-1
 503 11 l 1,0,1
EndSplineSet
Position2: "'cpsp' Capital Spacing in Latin lookup 0 subtable" dx=5 dy=0 dh=10 dv=0
EndChar

StartChar: D
Encoding: 68 68 39
Width: 645
GlyphClass: 2
Flags: W
LayerCount: 2
Fore
SplineSet
332 0 m 2,0,-1
 85 0 l 1,1,-1
 85 692 l 1,2,-1
 332 692 l 2,3,4
 501 692 501 692 556 558 c 0,5,6
 588 481 588 481 588 356 c 0,7,8
 588 95 588 95 458 27 c 0,9,10
 406 0 406 0 332 0 c 2,0,-1
509 356 m 0,11,12
 509 555 509 555 420 604 c 0,13,14
 384 624 384 624 332 624 c 2,15,-1
 162 624 l 1,16,-1
 162 68 l 1,17,-1
 332 68 l 2,18,19
 509 68 509 68 509 356 c 0,11,12
EndSplineSet
Position2: "'cpsp' Capital Spacing in Latin lookup 0 subtable" dx=5 dy=0 dh=10 dv=0
EndChar

StartChar: E
Encoding: 69 69 40
Width: 553
GlyphClass: 2
Flags: W
LayerCount: 2
Fore
SplineSet
85 0 m 1,0,-1
 85 692 l 1,1,-1
 506 692 l 1,2,-1
 506 624 l 1,3,-1
 162 624 l 1,4,-1
 162 385 l 1,5,-1
 446 385 l 1,6,-1
 446 318 l 1,7,-1
 162 318 l 1,8,-1
 162 68 l 1,9,-1
 506 68 l 1,10,-1
 506 0 l 1,11,-1
 85 0 l 1,0,-1
EndSplineSet
Position2: "'cpsp' Capital Spacing in Latin lookup 0 subtable" dx=5 dy=0 dh=10 dv=0
EndChar

StartChar: F
Encoding: 70 70 41
Width: 526
GlyphClass: 2
Flags: W
LayerCount: 2
Fore
SplineSet
85 0 m 1,0,-1
 85 692 l 1,1,-1
 499 692 l 1,2,-1
 499 624 l 1,3,-1
 162 624 l 1,4,-1
 162 354 l 1,5,-1
 447 354 l 1,6,-1
 447 286 l 1,7,-1
 162 286 l 1,8,-1
 162 0 l 1,9,-1
 85 0 l 1,0,-1
EndSplineSet
Position2: "'cpsp' Capital Spacing in Latin lookup 0 subtable" dx=5 dy=0 dh=10 dv=0
EndChar

StartChar: G
Encoding: 71 71 42
Width: 616
GlyphClass: 2
Flags: W
LayerCount: 2
Fore
SplineSet
359 285 m 1,0,-1
 359 354 l 1,1,-1
 550 354 l 1,2,-1
 550 14 l 1,3,4
 424 -10 424 -10 325 -10 c 0,5,6
 174 -10 174 -10 115.5 77 c 128,-1,7
 57 164 57 164 57 345.5 c 128,-1,8
 57 527 57 527 115.5 614.5 c 128,-1,9
 174 702 174 702 323 702 c 0,10,11
 416 702 416 702 516 682 c 1,12,-1
 550 676 l 1,13,-1
 547 612 l 1,14,15
 423 633 423 633 332 633 c 0,16,17
 217 633 217 633 177 566.5 c 128,-1,18
 137 500 137 500 137 345.5 c 128,-1,19
 137 191 137 191 177 124.5 c 128,-1,20
 217 58 217 58 331 58 c 0,21,22
 401 58 401 58 474 72 c 1,23,-1
 474 285 l 1,24,-1
 359 285 l 1,0,-1
EndSplineSet
Position2: "'cpsp' Capital Spacing in Latin lookup 0 subtable" dx=5 dy=0 dh=10 dv=0
EndChar

StartChar: H
Encoding: 72 72 43
Width: 675
GlyphClass: 2
Flags: W
LayerCount: 2
Fore
SplineSet
514 0 m 1,0,-1
 514 313 l 1,1,-1
 162 313 l 1,2,-1
 162 0 l 1,3,-1
 85 0 l 1,4,-1
 85 692 l 1,5,-1
 162 692 l 1,6,-1
 162 382 l 1,7,-1
 514 382 l 1,8,-1
 514 692 l 1,9,-1
 590 692 l 1,10,-1
 590 0 l 1,11,-1
 514 0 l 1,0,-1
EndSplineSet
Position2: "'cpsp' Capital Spacing in Latin lookup 0 subtable" dx=5 dy=0 dh=10 dv=0
EndChar

StartChar: I
Encoding: 73 73 44
Width: 246
GlyphClass: 2
Flags: W
LayerCount: 2
Fore
SplineSet
85 0 m 1,0,-1
 85 692 l 1,1,-1
 162 692 l 1,2,-1
 162 0 l 1,3,-1
 85 0 l 1,0,-1
EndSplineSet
Position2: "'cpsp' Capital Spacing in Latin lookup 0 subtable" dx=5 dy=0 dh=10 dv=0
EndChar

StartChar: J
Encoding: 74 74 45
Width: 289
GlyphClass: 2
Flags: W
LayerCount: 2
Fore
SplineSet
18 -72 m 1,0,-1
 18 -3 l 1,1,2
 90 -3 90 -3 110.5 14.5 c 128,-1,3
 131 32 131 32 131 106 c 2,4,-1
 131 692 l 1,5,-1
 207 692 l 1,6,-1
 208 95 l 2,7,8
 208 11 208 11 180 -28 c 0,9,10
 157 -61 157 -61 89 -69 c 0,11,12
 62 -72 62 -72 18 -72 c 1,0,-1
EndSplineSet
Position2: "'cpsp' Capital Spacing in Latin lookup 0 subtable" dx=5 dy=0 dh=10 dv=0
EndChar

StartChar: K
Encoding: 75 75 46
Width: 569
GlyphClass: 2
Flags: W
LayerCount: 2
Fore
SplineSet
162 0 m 1,0,-1
 85 0 l 1,1,-1
 85 692 l 1,2,-1
 162 692 l 1,3,-1
 162 370 l 1,4,-1
 276 374 l 1,5,-1
 453 692 l 1,6,-1
 541 692 l 1,7,-1
 343 344 l 1,8,-1
 552 0 l 1,9,-1
 461 0 l 1,10,-1
 277 306 l 1,11,-1
 162 302 l 1,12,-1
 162 0 l 1,0,-1
EndSplineSet
Position2: "'cpsp' Capital Spacing in Latin lookup 0 subtable" dx=5 dy=0 dh=10 dv=0
EndChar

StartChar: L
Encoding: 76 76 47
Width: 479
GlyphClass: 2
Flags: W
LayerCount: 2
Fore
SplineSet
466 0 m 1,0,-1
 85 0 l 1,1,-1
 85 692 l 1,2,-1
 162 692 l 1,3,-1
 162 69 l 1,4,-1
 466 69 l 1,5,-1
 466 0 l 1,0,-1
EndSplineSet
Position2: "'cpsp' Capital Spacing in Latin lookup 0 subtable" dx=5 dy=0 dh=10 dv=0
EndChar

StartChar: M
Encoding: 77 77 48
Width: 840
GlyphClass: 2
Flags: W
LayerCount: 2
Fore
SplineSet
85 0 m 1,0,-1
 85 692 l 1,1,-1
 224 692 l 1,2,-1
 420 107 l 1,3,-1
 616 692 l 1,4,-1
 755 692 l 1,5,-1
 755 0 l 1,6,-1
 678 0 l 1,7,-1
 678 610 l 1,8,-1
 664 610 l 1,9,-1
 463 25 l 1,10,-1
 377 25 l 1,11,-1
 176 610 l 1,12,-1
 162 610 l 1,13,-1
 162 0 l 1,14,-1
 85 0 l 1,0,-1
EndSplineSet
Position2: "'cpsp' Capital Spacing in Latin lookup 0 subtable" dx=5 dy=0 dh=10 dv=0
EndChar

StartChar: N
Encoding: 78 78 49
Width: 676
GlyphClass: 2
Flags: W
LayerCount: 2
Fore
SplineSet
85 0 m 1,0,-1
 85 692 l 1,1,-1
 229 692 l 1,2,-1
 494 68 l 1,3,-1
 515 68 l 1,4,-1
 515 692 l 1,5,-1
 591 692 l 1,6,-1
 591 0 l 1,7,-1
 450 0 l 1,8,-1
 181 624 l 1,9,-1
 162 624 l 1,10,-1
 162 0 l 1,11,-1
 85 0 l 1,0,-1
EndSplineSet
Position2: "'cpsp' Capital Spacing in Latin lookup 0 subtable" dx=5 dy=0 dh=10 dv=0
EndChar

StartChar: O
Encoding: 79 79 50
Width: 660
GlyphClass: 2
Flags: W
LayerCount: 2
Fore
SplineSet
176 124.5 m 128,-1,1
 216 58 216 58 330.5 58 c 128,-1,2
 445 58 445 58 484.5 123 c 128,-1,3
 524 188 524 188 524 341 c 128,-1,4
 524 494 524 494 483 564 c 128,-1,5
 442 634 442 634 329.5 634 c 128,-1,6
 217 634 217 634 176.5 564.5 c 128,-1,7
 136 495 136 495 136 343 c 128,-1,0
 136 191 136 191 176 124.5 c 128,-1,1
545 73 m 128,-1,9
 486 -10 486 -10 330.5 -10 c 128,-1,10
 175 -10 175 -10 116 75 c 128,-1,11
 57 160 57 160 57 342.5 c 128,-1,12
 57 525 57 525 117 613.5 c 128,-1,13
 177 702 177 702 330 702 c 128,-1,14
 483 702 483 702 543.5 614 c 128,-1,15
 604 526 604 526 604 341 c 128,-1,8
 604 156 604 156 545 73 c 128,-1,9
EndSplineSet
Position2: "'cpsp' Capital Spacing in Latin lookup 0 subtable" dx=5 dy=0 dh=10 dv=0
EndChar

StartChar: P
Encoding: 80 80 51
Width: 593
GlyphClass: 2
Flags: W
LayerCount: 2
Fore
SplineSet
338 233 m 2,0,-1
 162 233 l 1,1,-1
 162 0 l 1,2,-1
 85 0 l 1,3,-1
 85 692 l 1,4,-1
 338 692 l 2,5,6
 451 692 451 692 505 637 c 128,-1,7
 559 582 559 582 559 469 c 0,8,9
 559 233 559 233 338 233 c 2,0,-1
162 301 m 1,10,-1
 337 301 l 2,11,12
 480 301 480 301 480 469 c 0,13,14
 480 549 480 549 446 586.5 c 128,-1,15
 412 624 412 624 337 624 c 2,16,-1
 162 624 l 1,17,-1
 162 301 l 1,10,-1
EndSplineSet
Position2: "'cpsp' Capital Spacing in Latin lookup 0 subtable" dx=5 dy=0 dh=10 dv=0
EndChar

StartChar: Q
Encoding: 81 81 52
Width: 660
GlyphClass: 2
Flags: W
LayerCount: 2
Fore
SplineSet
330 -10 m 0,0,1
 175 -10 175 -10 116 75 c 128,-1,2
 57 160 57 160 57 342.5 c 128,-1,3
 57 525 57 525 117 613.5 c 128,-1,4
 177 702 177 702 330 702 c 128,-1,5
 483 702 483 702 543.5 614 c 128,-1,6
 604 526 604 526 604 343 c 0,7,8
 604 216 604 216 578 139.5 c 128,-1,9
 552 63 552 63 489 26 c 1,10,-1
 574 -111 l 1,11,-1
 502 -145 l 1,12,-1
 414 -1 l 1,13,14
 381 -10 381 -10 330 -10 c 0,0,1
176 124.5 m 128,-1,16
 216 58 216 58 330.5 58 c 128,-1,17
 445 58 445 58 484.5 122.5 c 128,-1,18
 524 187 524 187 524 340.5 c 128,-1,19
 524 494 524 494 483 564 c 128,-1,20
 442 634 442 634 329.5 634 c 128,-1,21
 217 634 217 634 176.5 564.5 c 128,-1,22
 136 495 136 495 136 343 c 128,-1,15
 136 191 136 191 176 124.5 c 128,-1,16
EndSplineSet
Position2: "'cpsp' Capital Spacing in Latin lookup 0 subtable" dx=5 dy=0 dh=10 dv=0
EndChar

StartChar: R
Encoding: 82 82 53
Width: 616
GlyphClass: 2
Flags: W
LayerCount: 2
Fore
SplineSet
162 265 m 1,0,-1
 162 0 l 1,1,-1
 85 0 l 1,2,-1
 85 692 l 1,3,-1
 341 692 l 2,4,5
 451 692 451 692 506.5 641 c 128,-1,6
 562 590 562 590 562 482 c 0,7,8
 562 322 562 322 435 281 c 1,9,-1
 568 0 l 1,10,-1
 483 0 l 1,11,-1
 358 265 l 1,12,-1
 162 265 l 1,0,-1
342 333 m 2,13,14
 483 333 483 333 483 478.5 c 128,-1,15
 483 624 483 624 341 624 c 2,16,-1
 162 624 l 1,17,-1
 162 333 l 1,18,-1
 342 333 l 2,13,14
EndSplineSet
Position2: "'cpsp' Capital Spacing in Latin lookup 0 subtable" dx=5 dy=0 dh=10 dv=0
EndChar

StartChar: S
Encoding: 83 83 54
Width: 542
GlyphClass: 2
Flags: W
LayerCount: 2
Fore
SplineSet
276 635 m 0,0,1
 126 635 126 635 126 522 c 0,2,3
 126 459 126 459 160.5 435.5 c 128,-1,4
 195 412 195 412 300.5 388.5 c 128,-1,5
 406 365 406 365 450 327.5 c 128,-1,6
 494 290 494 290 494 204 c 0,7,8
 494 -9 494 -9 273 -9 c 0,9,10
 200 -9 200 -9 90 8 c 1,11,-1
 54 13 l 1,12,-1
 62 77 l 1,13,14
 198 59 198 59 269 59 c 0,15,16
 417 59 417 59 417 198 c 0,17,18
 417 254 417 254 384.5 278.5 c 128,-1,19
 352 303 352 303 263 320 c 1,20,21
 146 345 146 345 97 384.5 c 128,-1,22
 48 424 48 424 48 517 c 0,23,24
 48 703 48 703 271 703 c 0,25,26
 344 703 344 703 446 688 c 2,27,-1
 480 683 l 1,28,-1
 473 618 l 1,29,30
 334 635 334 635 276 635 c 0,0,1
EndSplineSet
Position2: "'cpsp' Capital Spacing in Latin lookup 0 subtable" dx=5 dy=0 dh=10 dv=0
EndChar

StartChar: T
Encoding: 84 84 55
Width: 526
GlyphClass: 2
Flags: W
LayerCount: 2
Fore
SplineSet
13 623 m 1,0,-1
 13 692 l 1,1,-1
 513 692 l 1,2,-1
 513 623 l 1,3,-1
 302 623 l 1,4,-1
 302 0 l 1,5,-1
 226 0 l 1,6,-1
 226 623 l 1,7,-1
 13 623 l 1,0,-1
EndSplineSet
Position2: "'cpsp' Capital Spacing in Latin lookup 0 subtable" dx=5 dy=0 dh=10 dv=0
EndChar

StartChar: U
Encoding: 85 85 56
Width: 644
GlyphClass: 2
Flags: W
LayerCount: 2
Fore
SplineSet
157 208 m 2,0,1
 157 58 157 58 319 58 c 0,2,3
 403 58 403 58 445.5 93.5 c 128,-1,4
 488 129 488 129 488 208 c 2,5,-1
 488 692 l 1,6,-1
 564 692 l 1,7,-1
 564 210 l 2,8,9
 564 94 564 94 502.5 42 c 128,-1,10
 441 -10 441 -10 321 -10 c 128,-1,11
 201 -10 201 -10 140.5 42 c 128,-1,12
 80 94 80 94 80 210 c 2,13,-1
 80 692 l 1,14,-1
 157 692 l 1,15,-1
 157 208 l 2,0,1
EndSplineSet
Position2: "'cpsp' Capital Spacing in Latin lookup 0 subtable" dx=5 dy=0 dh=10 dv=0
EndChar

StartChar: V
Encoding: 86 86 57
Width: 582
GlyphClass: 2
Flags: W
LayerCount: 2
Fore
SplineSet
478 692 m 1,0,-1
 558 692 l 1,1,-1
 377 0 l 1,2,-1
 205 0 l 1,3,-1
 24 692 l 1,4,-1
 104 692 l 1,5,-1
 263 68 l 1,6,-1
 319 68 l 1,7,-1
 478 692 l 1,0,-1
EndSplineSet
Position2: "'cpsp' Capital Spacing in Latin lookup 0 subtable" dx=5 dy=0 dh=10 dv=0
EndChar

StartChar: W
Encoding: 87 87 58
Width: 886
GlyphClass: 2
Flags: W
LayerCount: 2
Fore
SplineSet
30 692 m 1,0,-1
 110 692 l 1,1,-1
 228 68 l 1,2,-1
 257 68 l 1,3,-1
 398 686 l 1,4,-1
 488 686 l 1,5,-1
 629 68 l 1,6,-1
 658 68 l 1,7,-1
 776 692 l 1,8,-1
 855 692 l 1,9,-1
 715 0 l 1,10,-1
 574 0 l 1,11,-1
 443 591 l 1,12,-1
 312 0 l 1,13,-1
 171 0 l 1,14,-1
 30 692 l 1,0,-1
EndSplineSet
Position2: "'cpsp' Capital Spacing in Latin lookup 0 subtable" dx=5 dy=0 dh=10 dv=0
EndChar

StartChar: X
Encoding: 88 88 59
Width: 558
GlyphClass: 2
Flags: W
LayerCount: 2
Fore
SplineSet
106 692 m 1,0,-1
 281 396 l 1,1,-1
 457 692 l 1,2,-1
 540 692 l 1,3,-1
 327 341 l 1,4,-1
 540 0 l 1,5,-1
 453 0 l 1,6,-1
 279 287 l 1,7,-1
 102 0 l 1,8,-1
 19 0 l 1,9,-1
 233 339 l 1,10,-1
 19 692 l 1,11,-1
 106 692 l 1,0,-1
EndSplineSet
Position2: "'cpsp' Capital Spacing in Latin lookup 0 subtable" dx=5 dy=0 dh=10 dv=0
EndChar

StartChar: Y
Encoding: 89 89 60
Width: 538
GlyphClass: 2
Flags: W
LayerCount: 2
Fore
SplineSet
308 0 m 1,0,-1
 231 0 l 1,1,-1
 231 291 l 1,2,-1
 10 692 l 1,3,-1
 97 692 l 1,4,-1
 269 368 l 1,5,-1
 441 692 l 1,6,-1
 528 692 l 1,7,-1
 308 291 l 1,8,-1
 308 0 l 1,0,-1
EndSplineSet
Position2: "'cpsp' Capital Spacing in Latin lookup 0 subtable" dx=5 dy=0 dh=10 dv=0
EndChar

StartChar: Z
Encoding: 90 90 61
Width: 536
GlyphClass: 2
Flags: W
LayerCount: 2
Fore
SplineSet
43 624 m 1,0,-1
 43 692 l 1,1,-1
 493 692 l 1,2,-1
 493 602 l 1,3,-1
 131 88 l 1,4,-1
 131 68 l 1,5,-1
 493 68 l 1,6,-1
 493 -1 l 1,7,-1
 43 -1 l 1,8,-1
 43 88 l 1,9,-1
 404 602 l 1,10,-1
 404 624 l 1,11,-1
 43 624 l 1,0,-1
EndSplineSet
Position2: "'cpsp' Capital Spacing in Latin lookup 0 subtable" dx=5 dy=0 dh=10 dv=0
EndChar

StartChar: bracketleft
Encoding: 91 91 62
Width: 329
GlyphClass: 2
Flags: W
LayerCount: 2
Fore
SplineSet
289 749 m 1,0,-1
 289 682 l 1,1,-1
 155 682 l 1,2,-1
 155 -56 l 1,3,-1
 289 -56 l 1,4,-1
 289 -123 l 1,5,-1
 79 -123 l 1,6,-1
 79 749 l 1,7,-1
 289 749 l 1,0,-1
EndSplineSet
Substitution2: "'case' Case-Sensitive Forms in Latin lookup 4 subtable" bracketleft.cap
EndChar

StartChar: backslash
Encoding: 92 92 63
Width: 436
GlyphClass: 2
Flags: W
LayerCount: 2
Fore
SplineSet
405 14 m 1,0,-1
 338 -14 l 1,1,-1
 30 678 l 1,2,-1
 97 707 l 1,3,-1
 405 14 l 1,0,-1
EndSplineSet
EndChar

StartChar: bracketright
Encoding: 93 93 64
Width: 329
GlyphClass: 2
Flags: W
LayerCount: 2
Fore
SplineSet
40 682 m 1,0,-1
 40 749 l 1,1,-1
 250 749 l 1,2,-1
 250 -123 l 1,3,-1
 40 -123 l 1,4,-1
 40 -56 l 1,5,-1
 174 -56 l 1,6,-1
 174 682 l 1,7,-1
 40 682 l 1,0,-1
EndSplineSet
Substitution2: "'case' Case-Sensitive Forms in Latin lookup 4 subtable" bracketright.cap
EndChar

StartChar: asciicircum
Encoding: 94 94 65
Width: 560
GlyphClass: 2
Flags: W
LayerCount: 2
Fore
SplineSet
421 319 m 1,0,-1
 278 586 l 1,1,-1
 138 319 l 1,2,-1
 58 319 l 1,3,-1
 243 660 l 1,4,-1
 310 660 l 1,5,-1
 501 319 l 1,6,-1
 421 319 l 1,0,-1
EndSplineSet
EndChar

StartChar: underscore
Encoding: 95 95 66
Width: 632
GlyphClass: 2
Flags: W
LayerCount: 2
Fore
SplineSet
102 -92 m 1,0,-1
 530 -92 l 1,1,-1
 530 -158 l 1,2,-1
 102 -158 l 1,3,-1
 102 -92 l 1,0,-1
EndSplineSet
EndChar

StartChar: grave
Encoding: 96 96 67
Width: 236
GlyphClass: 2
Flags: W
LayerCount: 2
Fore
SplineSet
25 740 m 1,0,-1
 241 642 l 1,1,-1
 220 591 l 1,2,-1
 -1 676 l 1,3,-1
 25 740 l 1,0,-1
EndSplineSet
EndChar

StartChar: a
Encoding: 97 97 68
Width: 501
GlyphClass: 2
Flags: W
LayerCount: 2
Fore
SplineSet
425 349 m 2,0,-1
 425 93 l 1,1,2
 428 56 428 56 483 49 c 1,3,-1
 480 -10 l 1,4,5
 401 -10 401 -10 361 30 c 1,6,7
 271 -10 271 -10 181 -10 c 0,8,9
 112 -10 112 -10 76 29 c 128,-1,10
 40 68 40 68 40 141 c 128,-1,11
 40 214 40 214 77 248.5 c 128,-1,12
 114 283 114 283 193 291 c 2,13,-1
 350 306 l 1,14,-1
 350 349 l 2,15,16
 350 400 350 400 328 422 c 128,-1,17
 306 444 306 444 268 444 c 0,18,19
 188 444 188 444 102 434 c 1,20,-1
 71 431 l 1,21,-1
 68 488 l 1,22,23
 178 510 178 510 263 510 c 128,-1,24
 348 510 348 510 386.5 471 c 128,-1,25
 425 432 425 432 425 349 c 2,0,-1
117 145 m 0,26,27
 117 53 117 53 193 53 c 0,28,29
 261 53 261 53 327 76 c 2,30,-1
 350 84 l 1,31,-1
 350 249 l 1,32,-1
 202 235 l 2,33,34
 157 231 157 231 137 209 c 128,-1,35
 117 187 117 187 117 145 c 0,26,27
EndSplineSet
EndChar

StartChar: b
Encoding: 98 98 69
Width: 526
GlyphClass: 2
Flags: W
LayerCount: 2
Fore
SplineSet
293 510 m 0,0,1
 394 510 394 510 434.5 452.5 c 128,-1,2
 475 395 475 395 475 251 c 128,-1,3
 475 107 475 107 424.5 48.5 c 128,-1,4
 374 -10 374 -10 239 -10 c 0,5,6
 197 -10 197 -10 100 -2 c 1,7,-1
 72 1 l 1,8,-1
 72 718 l 1,9,-1
 146 718 l 1,10,-1
 146 475 l 1,11,12
 222 510 222 510 293 510 c 0,0,1
238 57 m 0,13,14
 336 57 336 57 367.5 101.5 c 128,-1,15
 399 146 399 146 399 252 c 128,-1,16
 399 358 399 358 374 400.5 c 128,-1,17
 349 443 349 443 285 443 c 0,18,19
 227 443 227 443 166 421 c 2,20,-1
 146 414 l 1,21,-1
 146 62 l 1,22,23
 211 57 211 57 238 57 c 0,13,14
EndSplineSet
EndChar

StartChar: c
Encoding: 99 99 70
Width: 436
GlyphClass: 2
Flags: W
LayerCount: 2
Fore
SplineSet
259 510 m 0,0,1
 292 510 292 510 371 498 c 1,2,-1
 395 495 l 1,3,-1
 392 434 l 1,4,5
 312 443 312 443 274 443 c 0,6,7
 189 443 189 443 158.5 402.5 c 128,-1,8
 128 362 128 362 128 252.5 c 128,-1,9
 128 143 128 143 156.5 100 c 128,-1,10
 185 57 185 57 275 57 c 1,11,-1
 393 66 l 1,12,-1
 396 4 l 1,13,14
 303 -10 303 -10 257 -10 c 0,15,16
 140 -10 140 -10 95.5 50 c 128,-1,17
 51 110 51 110 51 252.5 c 128,-1,18
 51 395 51 395 99 452.5 c 128,-1,19
 147 510 147 510 259 510 c 0,0,1
EndSplineSet
EndChar

StartChar: d
Encoding: 100 100 71
Width: 529
GlyphClass: 2
Flags: W
LayerCount: 2
Fore
SplineSet
456 718 m 1,0,-1
 456 0 l 1,1,-1
 382 0 l 1,2,-1
 382 34 l 1,3,4
 305 -10 305 -10 230 -10 c 0,5,6
 190 -10 190 -10 160 0 c 128,-1,7
 130 10 130 10 104 36 c 0,8,9
 50 90 50 90 50 235.5 c 128,-1,10
 50 381 50 381 98.5 445.5 c 128,-1,11
 147 510 147 510 259 510 c 0,12,13
 317 510 317 510 382 497 c 1,14,-1
 382 718 l 1,15,-1
 456 718 l 1,0,-1
196 64 m 128,-1,17
 214 57 214 57 242.5 57 c 128,-1,18
 271 57 271 57 306.5 66.5 c 128,-1,19
 342 76 342 76 362 85 c 2,20,-1
 382 94 l 1,21,-1
 382 433 l 1,22,23
 318 445 318 445 263 445 c 0,24,25
 187 445 187 445 157 396.5 c 128,-1,26
 127 348 127 348 127 246 c 0,27,28
 127 130 127 130 162 90 c 0,29,16
 178 71 178 71 196 64 c 128,-1,17
EndSplineSet
EndChar

StartChar: e
Encoding: 101 101 72
Width: 505
GlyphClass: 2
Flags: W
LayerCount: 2
Fore
SplineSet
412 62 m 1,0,-1
 441 65 l 1,1,-1
 443 6 l 1,2,3
 329 -10 329 -10 248 -10 c 0,4,5
 140 -10 140 -10 95 52.5 c 128,-1,6
 50 115 50 115 50 247 c 0,7,8
 50 510 50 510 259 510 c 0,9,10
 360 510 360 510 410 453.5 c 128,-1,11
 460 397 460 397 460 276 c 1,12,-1
 456 219 l 1,13,-1
 126 219 l 1,14,15
 126 136 126 136 156 96 c 128,-1,16
 186 56 186 56 260.5 56 c 128,-1,17
 335 56 335 56 412 62 c 1,0,-1
385 279 m 1,18,19
 385 371 385 371 355.5 409 c 128,-1,20
 326 447 326 447 259.5 447 c 128,-1,21
 193 447 193 447 159.5 407 c 128,-1,22
 126 367 126 367 125 279 c 1,23,-1
 385 279 l 1,18,19
EndSplineSet
EndChar

StartChar: f
Encoding: 102 102 73
Width: 331
GlyphClass: 2
Flags: W
LayerCount: 2
Fore
SplineSet
168 435 m 1,0,-1
 168 0 l 1,1,-1
 93 0 l 1,2,-1
 93 435 l 1,3,-1
 30 435 l 1,4,-1
 30 500 l 1,5,-1
 93 500 l 1,6,-1
 93 545 l 2,7,8
 93 651 93 651 123 689.5 c 128,-1,9
 153 728 153 728 228 728 c 1,10,-1
 329 721 l 1,11,-1
 328 659 l 1,12,13
 272 661 272 661 235.5 661 c 128,-1,14
 199 661 199 661 183.5 637 c 128,-1,15
 168 613 168 613 168 544 c 2,16,-1
 168 500 l 1,17,-1
 313 500 l 1,18,-1
 313 435 l 1,19,-1
 168 435 l 1,0,-1
EndSplineSet
EndChar

StartChar: g
Encoding: 103 103 74
Width: 514
GlyphClass: 2
Flags: W
LayerCount: 2
Fore
SplineSet
265 -235 m 0,0,1
 145 -235 145 -235 97.5 -202.5 c 128,-1,2
 50 -170 50 -170 50 -84 c 0,3,4
 50 -43 50 -43 68 -17.5 c 128,-1,5
 86 8 86 8 129 40 c 1,6,7
 101 59 101 59 101 109 c 0,8,9
 101 126 101 126 126 172 c 2,10,-1
 135 188 l 1,11,12
 56 224 56 224 56 339 c 0,13,14
 56 510 56 510 243 510 c 0,15,16
 291 510 291 510 332 500 c 1,17,-1
 347 497 l 1,18,-1
 495 501 l 1,19,-1
 495 437 l 1,20,-1
 400 439 l 1,21,22
 433 406 433 406 433 339 c 0,23,24
 433 245 433 245 386.5 207.5 c 128,-1,25
 340 170 340 170 240 170 c 0,26,27
 213 170 213 170 191 174 c 1,28,29
 173 130 173 130 173 117 c 0,30,31
 173 86 173 86 192 78.5 c 128,-1,32
 211 71 211 71 307 71 c 128,-1,33
 403 71 403 71 445 41 c 128,-1,34
 487 11 487 11 487 -76 c 0,35,36
 487 -235 487 -235 265 -235 c 0,0,1
124 -78 m 0,37,38
 124 -131 124 -131 153.5 -151.5 c 128,-1,39
 183 -172 183 -172 262.5 -172 c 128,-1,40
 342 -172 342 -172 376.5 -150 c 128,-1,41
 411 -128 411 -128 411 -76.5 c 128,-1,42
 411 -25 411 -25 386 -10 c 128,-1,43
 361 5 361 5 288 5 c 1,44,-1
 180 10 l 1,45,46
 147 -14 147 -14 135.5 -32 c 128,-1,47
 124 -50 124 -50 124 -78 c 0,37,38
157.5 255 m 128,-1,49
 184 230 184 230 245 230 c 128,-1,50
 306 230 306 230 332 255 c 128,-1,51
 358 280 358 280 358 339.5 c 128,-1,52
 358 399 358 399 332 424 c 128,-1,53
 306 449 306 449 245 449 c 128,-1,54
 184 449 184 449 157.5 423.5 c 128,-1,55
 131 398 131 398 131 339 c 128,-1,48
 131 280 131 280 157.5 255 c 128,-1,49
EndSplineSet
EndChar

StartChar: h
Encoding: 104 104 75
Width: 537
GlyphClass: 2
Flags: W
LayerCount: 2
Fore
SplineSet
147 0 m 1,0,-1
 72 0 l 1,1,-1
 72 718 l 1,2,-1
 147 718 l 1,3,-1
 147 472 l 1,4,5
 227 510 227 510 301 510 c 0,6,7
 401 510 401 510 435.5 456 c 128,-1,8
 470 402 470 402 470 264 c 2,9,-1
 470 0 l 1,10,-1
 395 0 l 1,11,-1
 395 262 l 2,12,13
 395 366 395 366 374.5 404.5 c 128,-1,14
 354 443 354 443 288 443 c 0,15,16
 225 443 225 443 166 420 c 1,17,-1
 147 413 l 1,18,-1
 147 0 l 1,0,-1
EndSplineSet
EndChar

StartChar: i
Encoding: 105 105 76
Width: 219
GlyphClass: 2
Flags: W
LayerCount: 2
Fore
SplineSet
72 0 m 1,0,-1
 72 500 l 1,1,-1
 147 500 l 1,2,-1
 147 0 l 1,3,-1
 72 0 l 1,0,-1
72 613 m 1,4,-1
 72 700 l 1,5,-1
 147 700 l 1,6,-1
 147 613 l 1,7,-1
 72 613 l 1,4,-1
EndSplineSet
EndChar

StartChar: j
Encoding: 106 106 77
Width: 219
GlyphClass: 2
Flags: W
LayerCount: 2
Fore
SplineSet
73 13 m 2,0,-1
 73 500 l 1,1,-1
 147 500 l 1,2,-1
 147 12 l 2,3,4
 147 -80 147 -80 114 -126 c 128,-1,5
 81 -172 81 -172 -19 -223 c 1,6,-1
 -49 -165 l 1,7,8
 29 -120 29 -120 51 -88.5 c 128,-1,9
 73 -57 73 -57 73 13 c 2,0,-1
73 613 m 1,10,-1
 73 700 l 1,11,-1
 147 700 l 1,12,-1
 147 613 l 1,13,-1
 73 613 l 1,10,-1
EndSplineSet
EndChar

StartChar: k
Encoding: 107 107 78
Width: 479
GlyphClass: 2
Flags: W
LayerCount: 2
Fore
SplineSet
147 0 m 1,0,-1
 72 0 l 1,1,-1
 72 718 l 1,2,-1
 147 718 l 1,3,-1
 147 294 l 1,4,-1
 225 298 l 1,5,-1
 368 500 l 1,6,-1
 453 500 l 1,7,-1
 290 270 l 1,8,-1
 460 0 l 1,9,-1
 375 0 l 1,10,-1
 226 232 l 1,11,-1
 147 229 l 1,12,-1
 147 0 l 1,0,-1
EndSplineSet
EndChar

StartChar: l
Encoding: 108 108 79
Width: 231
GlyphClass: 2
Flags: W
LayerCount: 2
Fore
SplineSet
78 0 m 1,0,-1
 78 718 l 1,1,-1
 153 718 l 1,2,-1
 153 0 l 1,3,-1
 78 0 l 1,0,-1
EndSplineSet
EndChar

StartChar: m
Encoding: 109 109 80
Width: 836
GlyphClass: 2
Flags: W
LayerCount: 2
Fore
SplineSet
147 0 m 1,0,-1
 72 0 l 1,1,-1
 72 500 l 1,2,-1
 146 500 l 1,3,-1
 146 465 l 1,4,5
 221 510 221 510 292 510 c 0,6,7
 385 510 385 510 422 459 c 1,8,9
 455 479 455 479 507.5 494.5 c 128,-1,10
 560 510 560 510 600 510 c 0,11,12
 700 510 700 510 734.5 456.5 c 128,-1,13
 769 403 769 403 769 264 c 2,14,-1
 769 0 l 1,15,-1
 694 0 l 1,16,-1
 694 262 l 2,17,18
 694 366 694 366 674 404.5 c 128,-1,19
 654 443 654 443 589 443 c 0,20,21
 556 443 556 443 521 433.5 c 128,-1,22
 486 424 486 424 467 415 c 2,23,-1
 448 406 l 1,24,25
 461 373 461 373 461 260 c 2,26,-1
 461 0 l 1,27,-1
 386 0 l 1,28,-1
 386 258 l 2,29,30
 386 366 386 366 366.5 404.5 c 128,-1,31
 347 443 347 443 281 443 c 0,32,33
 249 443 249 443 215.5 433.5 c 128,-1,34
 182 424 182 424 164 415 c 2,35,-1
 147 406 l 1,36,-1
 147 0 l 1,0,-1
EndSplineSet
EndChar

StartChar: n
Encoding: 110 110 81
Width: 537
GlyphClass: 2
Flags: W
LayerCount: 2
Fore
SplineSet
147 0 m 1,0,-1
 72 0 l 1,1,-1
 72 500 l 1,2,-1
 146 500 l 1,3,-1
 146 465 l 1,4,5
 227 510 227 510 301 510 c 0,6,7
 401 510 401 510 435.5 456 c 128,-1,8
 470 402 470 402 470 264 c 2,9,-1
 470 0 l 1,10,-1
 396 0 l 1,11,-1
 396 262 l 2,12,13
 396 366 396 366 375.5 404.5 c 128,-1,14
 355 443 355 443 288 443 c 0,15,16
 256 443 256 443 220.5 433.5 c 128,-1,17
 185 424 185 424 166 415 c 2,18,-1
 147 406 l 1,19,-1
 147 0 l 1,0,-1
EndSplineSet
EndChar

StartChar: o
Encoding: 111 111 82
Width: 528
GlyphClass: 2
Flags: W
LayerCount: 2
Fore
SplineSet
99 449 m 128,-1,1
 148 510 148 510 264.5 510 c 128,-1,2
 381 510 381 510 429.5 449 c 128,-1,3
 478 388 478 388 478 251 c 128,-1,4
 478 114 478 114 432 52 c 128,-1,5
 386 -10 386 -10 264 -10 c 128,-1,6
 142 -10 142 -10 96 52 c 128,-1,7
 50 114 50 114 50 251 c 128,-1,0
 50 388 50 388 99 449 c 128,-1,1
153.5 99 m 128,-1,9
 180 55 180 55 264.5 55 c 128,-1,10
 349 55 349 55 375 98.5 c 128,-1,11
 401 142 401 142 401 252 c 128,-1,12
 401 362 401 362 372 403.5 c 128,-1,13
 343 445 343 445 264.5 445 c 128,-1,14
 186 445 186 445 156.5 403.5 c 128,-1,15
 127 362 127 362 127 252.5 c 128,-1,8
 127 143 127 143 153.5 99 c 128,-1,9
EndSplineSet
EndChar

StartChar: p
Encoding: 112 112 83
Width: 527
GlyphClass: 2
Flags: W
LayerCount: 2
Fore
SplineSet
72 -222 m 1,0,-1
 72 500 l 1,1,-1
 146 500 l 1,2,-1
 146 464 l 1,3,4
 222 510 222 510 296 510 c 0,5,6
 391 510 391 510 434 449.5 c 128,-1,7
 477 389 477 389 477 250 c 128,-1,8
 477 111 477 111 426.5 50.5 c 128,-1,9
 376 -10 376 -10 259 -10 c 0,10,11
 198 -10 198 -10 147 1 c 1,12,-1
 147 -222 l 1,13,-1
 72 -222 l 1,0,-1
285 443 m 0,14,15
 255 443 255 443 220.5 433 c 128,-1,16
 186 423 186 423 166 413 c 2,17,-1
 147 403 l 1,18,-1
 147 66 l 1,19,20
 218 55 218 55 255 55 c 0,21,22
 336 55 336 55 368.5 101 c 128,-1,23
 401 147 401 147 401 251 c 128,-1,24
 401 355 401 355 371.5 399 c 128,-1,25
 342 443 342 443 285 443 c 0,14,15
EndSplineSet
EndChar

StartChar: q
Encoding: 113 113 84
Width: 526
GlyphClass: 2
Flags: W
LayerCount: 2
Fore
SplineSet
238 -10 m 0,0,1
 137 -10 137 -10 93.5 49 c 128,-1,2
 50 108 50 108 50 249 c 128,-1,3
 50 390 50 390 102 450 c 128,-1,4
 154 510 154 510 286 510 c 1,5,-1
 453 500 l 1,6,-1
 453 -222 l 1,7,-1
 379 -222 l 1,8,-1
 379 23 l 1,9,10
 309 -10 309 -10 238 -10 c 0,0,1
287 445 m 0,11,12
 193 445 193 445 159.5 398 c 128,-1,13
 126 351 126 351 126 248.5 c 128,-1,14
 126 146 126 146 153.5 101.5 c 128,-1,15
 181 57 181 57 246 57 c 0,16,17
 304 57 304 57 361 79 c 2,18,-1
 379 86 l 1,19,-1
 379 439 l 1,20,21
 317 445 317 445 287 445 c 0,11,12
EndSplineSet
EndChar

StartChar: r
Encoding: 114 114 85
Width: 346
GlyphClass: 2
Flags: W
LayerCount: 2
Fore
SplineSet
72 0 m 1,0,-1
 72 500 l 1,1,-1
 146 500 l 1,2,-1
 146 432 l 1,3,4
 233 492 233 492 329 511 c 1,5,-1
 329 435 l 1,6,7
 287 427 287 427 241.5 410 c 128,-1,8
 196 393 196 393 172 380 c 2,9,-1
 147 367 l 1,10,-1
 147 0 l 1,11,-1
 72 0 l 1,0,-1
EndSplineSet
EndChar

StartChar: s
Encoding: 115 115 86
Width: 465
GlyphClass: 2
Flags: W
LayerCount: 2
Fore
SplineSet
229 443 m 0,0,1
 120 443 120 443 120 367 c 0,2,3
 120 332 120 332 145 317.5 c 128,-1,4
 170 303 170 303 259 287.5 c 128,-1,5
 348 272 348 272 385 244 c 128,-1,6
 422 216 422 216 422 139 c 128,-1,7
 422 62 422 62 372.5 26 c 128,-1,8
 323 -10 323 -10 228 -10 c 0,9,10
 166 -10 166 -10 82 4 c 2,11,-1
 52 9 l 1,12,-1
 56 74 l 1,13,14
 170 57 170 57 228 57 c 128,-1,15
 286 57 286 57 316.5 75.5 c 128,-1,16
 347 94 347 94 347 137.5 c 128,-1,17
 347 181 347 181 321 196.5 c 128,-1,18
 295 212 295 212 207 226 c 128,-1,19
 119 240 119 240 82 267 c 128,-1,20
 45 294 45 294 45 367 c 128,-1,21
 45 440 45 440 96.5 475 c 128,-1,22
 148 510 148 510 225 510 c 0,23,24
 286 510 286 510 378 496 c 1,25,-1
 406 491 l 1,26,-1
 404 427 l 1,27,28
 293 443 293 443 229 443 c 0,0,1
EndSplineSet
EndChar

StartChar: t
Encoding: 116 116 87
Width: 351
GlyphClass: 2
Flags: W
LayerCount: 2
Fore
SplineSet
331 435 m 1,0,-1
 172 435 l 1,1,-1
 172 196 l 2,2,3
 172 110 172 110 184.5 83 c 128,-1,4
 197 56 197 56 244 56 c 1,5,-1
 333 62 l 1,6,-1
 338 0 l 1,7,8
 271 -11 271 -11 236 -11 c 0,9,10
 158 -11 158 -11 128 27 c 128,-1,11
 98 65 98 65 98 172 c 2,12,-1
 98 435 l 1,13,-1
 27 435 l 1,14,-1
 27 500 l 1,15,-1
 98 500 l 1,16,-1
 98 653 l 1,17,-1
 172 653 l 1,18,-1
 172 500 l 1,19,-1
 331 500 l 1,20,-1
 331 435 l 1,0,-1
EndSplineSet
EndChar

StartChar: u
Encoding: 117 117 88
Width: 531
GlyphClass: 2
Flags: W
LayerCount: 2
Fore
SplineSet
384 500 m 1,0,-1
 459 500 l 1,1,-1
 459 0 l 1,2,-1
 384 0 l 1,3,-1
 384 35 l 1,4,5
 309 -10 309 -10 236 -10 c 0,6,7
 134 -10 134 -10 100.5 43 c 128,-1,8
 67 96 67 96 67 239 c 2,9,-1
 67 500 l 1,10,-1
 142 500 l 1,11,-1
 142 240 l 2,12,13
 142 131 142 131 161 94 c 128,-1,14
 180 57 180 57 247 57 c 0,15,16
 280 57 280 57 314 66.5 c 128,-1,17
 348 76 348 76 366 85 c 2,18,-1
 384 94 l 1,19,-1
 384 500 l 1,0,-1
EndSplineSet
EndChar

StartChar: v
Encoding: 118 118 89
Width: 481
GlyphClass: 2
Flags: W
LayerCount: 2
Fore
SplineSet
25 500 m 1,0,-1
 105 500 l 1,1,-1
 222 65 l 1,2,-1
 259 65 l 1,3,-1
 380 500 l 1,4,-1
 457 500 l 1,5,-1
 316 0 l 1,6,-1
 166 0 l 1,7,-1
 25 500 l 1,0,-1
EndSplineSet
EndChar

StartChar: w
Encoding: 119 119 90
Width: 762
GlyphClass: 2
Flags: W
LayerCount: 2
Fore
SplineSet
31 500 m 1,0,-1
 106 500 l 1,1,-1
 207 65 l 1,2,-1
 223 65 l 1,3,-1
 342 490 l 1,4,-1
 420 490 l 1,5,-1
 539 65 l 1,6,-1
 556 65 l 1,7,-1
 656 500 l 1,8,-1
 731 500 l 1,9,-1
 612 0 l 1,10,-1
 487 0 l 1,11,-1
 381 391 l 1,12,-1
 275 0 l 1,13,-1
 150 0 l 1,14,-1
 31 500 l 1,0,-1
EndSplineSet
EndChar

StartChar: x
Encoding: 120 120 91
Width: 452
GlyphClass: 2
Flags: W
LayerCount: 2
Fore
SplineSet
22 500 m 1,0,-1
 104 500 l 1,1,-1
 226 304 l 1,2,-1
 348 500 l 1,3,-1
 430 500 l 1,4,-1
 271 252 l 1,5,-1
 429 0 l 1,6,-1
 347 0 l 1,7,-1
 226 195 l 1,8,-1
 104 0 l 1,9,-1
 22 0 l 1,10,-1
 179 250 l 1,11,-1
 22 500 l 1,0,-1
EndSplineSet
EndChar

StartChar: y
Encoding: 121 121 92
Width: 483
GlyphClass: 2
Flags: W
LayerCount: 2
Fore
SplineSet
25 500 m 1,0,-1
 100 500 l 1,1,-1
 225 65 l 1,2,-1
 258 65 l 1,3,-1
 384 500 l 1,4,-1
 459 500 l 1,5,-1
 251 -222 l 1,6,-1
 176 -222 l 1,7,-1
 241 0 l 1,8,-1
 167 0 l 1,9,-1
 25 500 l 1,0,-1
EndSplineSet
EndChar

StartChar: z
Encoding: 122 122 93
Width: 455
GlyphClass: 2
Flags: W
LayerCount: 2
Fore
SplineSet
42 433 m 1,0,-1
 42 500 l 1,1,-1
 413 500 l 1,2,-1
 413 433 l 1,3,-1
 133 67 l 1,4,-1
 413 67 l 1,5,-1
 413 0 l 1,6,-1
 42 0 l 1,7,-1
 42 67 l 1,8,-1
 322 433 l 1,9,-1
 42 433 l 1,0,-1
EndSplineSet
EndChar

StartChar: braceleft
Encoding: 123 123 94
Width: 352
GlyphClass: 2
Flags: W
LayerCount: 2
Fore
SplineSet
197 575 m 1,0,-1
 204 452 l 1,1,2
 204 388 204 388 182.5 359 c 128,-1,3
 161 330 161 330 99 312 c 1,4,5
 160 294 160 294 182 263.5 c 128,-1,6
 204 233 204 233 204 170 c 1,7,-1
 197 54 l 1,8,9
 197 -2 197 -2 221.5 -30.5 c 128,-1,10
 246 -59 246 -59 312 -63 c 1,11,-1
 310 -128 l 1,12,13
 209 -124 209 -124 166.5 -83.5 c 128,-1,14
 124 -43 124 -43 124 47 c 1,15,-1
 131 169 l 1,16,17
 131 212 131 212 106 238.5 c 128,-1,18
 81 265 81 265 24 281 c 1,19,-1
 24 342 l 1,20,21
 81 355 81 355 106 381.5 c 128,-1,22
 131 408 131 408 131 451 c 1,23,-1
 124 579 l 1,24,25
 124 671 124 671 166.5 711 c 128,-1,26
 209 751 209 751 311 755 c 1,27,-1
 312 690 l 1,28,29
 246 686 246 686 221.5 658.5 c 128,-1,30
 197 631 197 631 197 575 c 1,0,-1
EndSplineSet
Substitution2: "'case' Case-Sensitive Forms in Latin lookup 4 subtable" braceleft.cap
EndChar

StartChar: bar
Encoding: 124 124 95
Width: 230
GlyphClass: 2
Flags: W
LayerCount: 2
Fore
SplineSet
78 -222 m 1,0,-1
 78 718 l 1,1,-1
 152 718 l 1,2,-1
 152 -222 l 1,3,-1
 78 -222 l 1,0,-1
EndSplineSet
EndChar

StartChar: braceright
Encoding: 125 125 96
Width: 352
GlyphClass: 2
Flags: W
LayerCount: 2
Fore
SplineSet
155 54 m 1,0,-1
 148 170 l 1,1,2
 148 233 148 233 170 263.5 c 128,-1,3
 192 294 192 294 253 312 c 1,4,5
 191 330 191 330 169.5 359 c 128,-1,6
 148 388 148 388 148 452 c 1,7,-1
 155 575 l 1,8,9
 155 631 155 631 130.5 658.5 c 128,-1,10
 106 686 106 686 40 690 c 1,11,-1
 41 755 l 1,12,13
 143 751 143 751 185.5 711 c 128,-1,14
 228 671 228 671 228 579 c 1,15,-1
 221 451 l 1,16,17
 221 408 221 408 246 381.5 c 128,-1,18
 271 355 271 355 328 342 c 1,19,-1
 328 281 l 1,20,21
 271 265 271 265 246 238.5 c 128,-1,22
 221 212 221 212 221 169 c 1,23,-1
 228 47 l 1,24,25
 228 -43 228 -43 185.5 -83.5 c 128,-1,26
 143 -124 143 -124 42 -128 c 1,27,-1
 40 -63 l 1,28,29
 106 -59 106 -59 130.5 -30.5 c 128,-1,30
 155 -2 155 -2 155 54 c 1,0,-1
EndSplineSet
Substitution2: "'case' Case-Sensitive Forms in Latin lookup 4 subtable" braceright.cap
EndChar

StartChar: asciitilde
Encoding: 126 126 97
Width: 560
GlyphClass: 2
Flags: W
LayerCount: 2
Fore
SplineSet
379 195 m 0,0,1
 352 195 352 195 276.5 226 c 128,-1,2
 201 257 201 257 182.5 257 c 128,-1,3
 164 257 164 257 138 245.5 c 128,-1,4
 112 234 112 234 95 222 c 2,5,-1
 78 210 l 1,6,-1
 67 272 l 1,7,8
 129 325 129 325 183 325 c 0,9,10
 212 325 212 325 286.5 294.5 c 128,-1,11
 361 264 361 264 380 264 c 0,12,13
 415 264 415 264 468 298 c 1,14,-1
 485 310 l 1,15,-1
 495 249 l 1,16,17
 432 195 432 195 379 195 c 0,0,1
EndSplineSet
EndChar

StartChar: exclamdown
Encoding: 161 161 99
Width: 228
GlyphClass: 2
Flags: W
LayerCount: 2
Fore
SplineSet
154 500 m 1,0,-1
 154 388 l 1,1,-1
 72 388 l 1,2,-1
 72 500 l 1,3,-1
 154 500 l 1,0,-1
148 272 m 1,4,-1
 153 -192 l 1,5,-1
 74 -192 l 1,6,-1
 79 272 l 1,7,-1
 148 272 l 1,4,-1
EndSplineSet
Substitution2: "'case' Case-Sensitive Forms in Latin lookup 4 subtable" exclamdown.cap
EndChar

StartChar: cent
Encoding: 162 162 100
Width: 560
GlyphClass: 2
Flags: W
LayerCount: 2
Fore
SplineSet
278 -81 m 1,0,-1
 278 36 l 1,1,2
 185 41 185 41 143 88 c 128,-1,3
 101 135 101 135 101 246 c 128,-1,4
 101 357 101 357 144.5 408.5 c 128,-1,5
 188 460 188 460 278 465 c 1,6,-1
 278 583 l 1,7,-1
 343 583 l 1,8,-1
 343 462 l 1,9,10
 382 462 382 462 428 453 c 2,11,-1
 444 450 l 1,12,-1
 441 390 l 1,13,14
 362 397 362 397 312 397 c 0,15,16
 238 397 238 397 208.5 363.5 c 128,-1,17
 179 330 179 330 179 248 c 128,-1,18
 179 166 179 166 208.5 134.5 c 128,-1,19
 238 103 238 103 318 103 c 1,20,-1
 442 110 l 1,21,-1
 445 49 l 1,22,23
 385 40 385 40 343 38 c 1,24,-1
 343 -81 l 1,25,-1
 278 -81 l 1,0,-1
EndSplineSet
EndChar

StartChar: sterling
Encoding: 163 163 101
Width: 560
GlyphClass: 2
Flags: W
LayerCount: 2
Fore
SplineSet
445 592 m 1,0,1
 365 603 365 603 318.5 603 c 128,-1,2
 272 603 272 603 255 575 c 128,-1,3
 238 547 238 547 238 467 c 2,4,-1
 238 417 l 1,5,-1
 409 417 l 1,6,-1
 409 352 l 1,7,-1
 238 352 l 1,8,-1
 238 66 l 1,9,-1
 392 66 l 1,10,-1
 469 82 l 1,11,-1
 482 18 l 1,12,-1
 400 0 l 1,13,-1
 80 0 l 1,14,-1
 80 66 l 1,15,-1
 165 66 l 1,16,-1
 165 352 l 1,17,-1
 98 352 l 1,18,-1
 98 417 l 1,19,-1
 165 417 l 1,20,-1
 165 472 l 2,21,22
 165 589 165 589 198.5 629.5 c 128,-1,23
 232 670 232 670 313 670 c 0,24,25
 365 670 365 670 424 658 c 1,26,-1
 446 653 l 1,27,-1
 445 592 l 1,0,1
EndSplineSet
EndChar

StartChar: currency
Encoding: 164 164 102
Width: 560
GlyphClass: 2
Flags: W
LayerCount: 2
Fore
SplineSet
379 101 m 1,0,1
 333 71 333 71 279 71 c 128,-1,2
 225 71 225 71 181 101 c 1,3,-1
 111 30 l 1,4,-1
 58 83 l 1,5,-1
 128 153 l 1,6,7
 99 198 99 198 99 251 c 128,-1,8
 99 304 99 304 128 351 c 1,9,-1
 58 421 l 1,10,-1
 111 474 l 1,11,-1
 181 403 l 1,12,13
 225 433 225 433 279 433 c 128,-1,14
 333 433 333 433 379 403 c 1,15,-1
 449 474 l 1,16,-1
 502 421 l 1,17,-1
 431 351 l 1,18,19
 461 305 461 305 461 251 c 128,-1,20
 461 197 461 197 431 153 c 1,21,-1
 502 83 l 1,22,-1
 449 30 l 1,23,-1
 379 101 l 1,0,1
280 137 m 128,-1,25
 327 137 327 137 361 171 c 128,-1,26
 395 205 395 205 395 252 c 128,-1,27
 395 299 395 299 361 333 c 128,-1,28
 327 367 327 367 280 367 c 128,-1,29
 233 367 233 367 199 333 c 128,-1,30
 165 299 165 299 165 252 c 128,-1,31
 165 205 165 205 199 171 c 128,-1,24
 233 137 233 137 280 137 c 128,-1,25
EndSplineSet
EndChar

StartChar: yen
Encoding: 165 165 103
Width: 560
GlyphClass: 2
Flags: W
LayerCount: 2
Fore
SplineSet
57 315 m 1,0,-1
 57 380 l 1,1,-1
 197 380 l 1,2,-1
 23 660 l 1,3,-1
 109 660 l 1,4,-1
 281 390 l 1,5,-1
 451 660 l 1,6,-1
 537 660 l 1,7,-1
 366 380 l 1,8,-1
 502 380 l 1,9,-1
 502 315 l 1,10,-1
 328 315 l 1,11,-1
 320 296 l 1,12,-1
 320 228 l 1,13,-1
 503 228 l 1,14,-1
 503 163 l 1,15,-1
 320 163 l 1,16,-1
 320 0 l 1,17,-1
 243 0 l 1,18,-1
 243 163 l 1,19,-1
 58 163 l 1,20,-1
 58 228 l 1,21,-1
 243 228 l 1,22,-1
 243 296 l 1,23,-1
 235 315 l 1,24,-1
 57 315 l 1,0,-1
EndSplineSet
EndChar

StartChar: brokenbar
Encoding: 166 166 104
Width: 234
GlyphClass: 2
Flags: W
LayerCount: 2
Fore
SplineSet
80 718 m 1,0,-1
 154 718 l 1,1,-1
 154 344 l 1,2,-1
 80 344 l 1,3,-1
 80 718 l 1,0,-1
80 156 m 1,4,-1
 154 156 l 1,5,-1
 154 -222 l 1,6,-1
 80 -222 l 1,7,-1
 80 156 l 1,4,-1
EndSplineSet
EndChar

StartChar: section
Encoding: 167 167 105
Width: 499
GlyphClass: 2
Flags: W
LayerCount: 2
Fore
SplineSet
418 571 m 1,0,1
 309 586 309 586 253 586 c 128,-1,2
 197 586 197 586 168 564 c 128,-1,3
 139 542 139 542 139 494 c 128,-1,4
 139 446 139 446 169.5 427.5 c 128,-1,5
 200 409 200 409 285 393 c 128,-1,6
 370 377 370 377 406.5 348 c 128,-1,7
 443 319 443 319 443 250.5 c 128,-1,8
 443 182 443 182 399 118 c 1,9,10
 436 86 436 86 436 18 c 0,11,12
 436 -150 436 -150 245 -150 c 0,13,14
 181 -150 181 -150 100 -138 c 1,15,-1
 70 -133 l 1,16,-1
 77 -70 l 1,17,18
 186 -85 186 -85 241 -85 c 0,19,20
 364 -85 364 -85 364 14 c 0,21,22
 364 59 364 59 335 74.5 c 128,-1,23
 306 90 306 90 218 106.5 c 128,-1,24
 130 123 130 123 91 154 c 128,-1,25
 52 185 52 185 52 255 c 0,26,27
 52 294 52 294 73 331 c 128,-1,28
 94 368 94 368 110 381 c 1,29,30
 66 413 66 413 66 492 c 0,31,32
 66 651 66 651 258 651 c 0,33,34
 309 651 309 651 396 638 c 2,35,-1
 422 634 l 1,36,-1
 418 571 l 1,0,1
160 354 m 1,37,38
 127 299 127 299 127 260.5 c 128,-1,39
 127 222 127 222 152 203 c 128,-1,40
 177 184 177 184 244.5 171.5 c 128,-1,41
 312 159 312 159 342 146 c 1,42,43
 347 153 347 153 357 182.5 c 128,-1,44
 367 212 367 212 367 248 c 128,-1,45
 367 284 367 284 341.5 302 c 128,-1,46
 316 320 316 320 251.5 331.5 c 128,-1,47
 187 343 187 343 160 354 c 1,37,38
EndSplineSet
EndChar

StartChar: dieresis
Encoding: 168 168 106
Width: 236
GlyphClass: 2
Flags: W
LayerCount: 2
Fore
SplineSet
-12 621 m 1,0,-1
 -12 711 l 1,1,-1
 60 711 l 1,2,-1
 60 621 l 1,3,-1
 -12 621 l 1,0,-1
188 621 m 1,4,-1
 188 711 l 1,5,-1
 261 711 l 1,6,-1
 261 621 l 1,7,-1
 188 621 l 1,4,-1
EndSplineSet
EndChar

StartChar: copyright
Encoding: 169 169 107
Width: 645
GlyphClass: 2
Flags: W
LayerCount: 2
Fore
SplineSet
134.5 240 m 128,-1,1
 59 319 59 319 59 434.5 c 128,-1,2
 59 550 59 550 134 628.5 c 128,-1,3
 209 707 209 707 323 707 c 128,-1,4
 437 707 437 707 511.5 627.5 c 128,-1,5
 586 548 586 548 586 433 c 128,-1,6
 586 318 586 318 512 239.5 c 128,-1,7
 438 161 438 161 324 161 c 128,-1,0
 210 161 210 161 134.5 240 c 128,-1,1
103 434 m 128,-1,9
 103 338 103 338 165.5 271.5 c 128,-1,10
 228 205 228 205 322 205 c 128,-1,11
 416 205 416 205 479 271.5 c 128,-1,12
 542 338 542 338 542 434 c 128,-1,13
 542 530 542 530 479 597 c 128,-1,14
 416 664 416 664 322.5 664 c 128,-1,15
 229 664 229 664 166 597 c 128,-1,8
 103 530 103 530 103 434 c 128,-1,9
326 276 m 0,16,17
 261 276 261 276 235 313.5 c 128,-1,18
 209 351 209 351 209 433.5 c 128,-1,19
 209 516 209 516 235.5 553.5 c 128,-1,20
 262 591 262 591 327 591 c 0,21,22
 364 591 364 591 394 584 c 1,23,-1
 404 581 l 1,24,-1
 400 528 l 1,25,26
 362 534 362 534 327.5 534 c 128,-1,27
 293 534 293 534 281.5 511.5 c 128,-1,28
 270 489 270 489 270 435.5 c 128,-1,29
 270 382 270 382 282.5 357.5 c 128,-1,30
 295 333 295 333 330 333 c 1,31,-1
 400 340 l 1,32,-1
 404 288 l 1,33,34
 367 276 367 276 326 276 c 0,16,17
EndSplineSet
EndChar

StartChar: ordfeminine
Encoding: 170 170 108
Width: 386
GlyphClass: 2
Flags: W
LayerCount: 2
Fore
SplineSet
302 560 m 2,0,-1
 302 423 l 1,1,2
 311 412 311 412 332 406 c 1,3,-1
 330 357 l 1,4,5
 292 357 292 357 276 363 c 128,-1,6
 260 369 260 369 247 383 c 1,7,8
 192 357 192 357 146 357 c 128,-1,9
 100 357 100 357 77 382 c 128,-1,10
 54 407 54 407 54 449 c 0,11,12
 54 529 54 529 150 535 c 2,13,-1
 238 541 l 1,14,-1
 238 563 l 2,15,16
 238 585 238 585 226 594 c 128,-1,17
 214 603 214 603 189 603 c 1,18,-1
 74 596 l 1,19,-1
 72 644 l 1,20,21
 141 659 141 659 195 659 c 128,-1,22
 249 659 249 659 275.5 637 c 128,-1,23
 302 615 302 615 302 560 c 2,0,-1
120 450 m 0,24,25
 120 411 120 411 156 411 c 0,26,27
 185 411 185 411 226 424 c 2,28,-1
 238 428 l 1,29,-1
 238 495 l 1,30,-1
 161 490 l 2,31,32
 139 488 139 488 129.5 479 c 128,-1,33
 120 470 120 470 120 450 c 0,24,25
EndSplineSet
EndChar

StartChar: guillemotleft
Encoding: 171 171 109
Width: 539
GlyphClass: 2
Flags: W
LayerCount: 2
Fore
SplineSet
234 344 m 1,0,-1
 110 250 l 1,1,-1
 234 145 l 1,2,-1
 234 67 l 1,3,-1
 45 218 l 1,4,-1
 45 278 l 1,5,-1
 234 421 l 1,6,-1
 234 344 l 1,0,-1
472 344 m 1,7,-1
 347 250 l 1,8,-1
 472 145 l 1,9,-1
 472 67 l 1,10,-1
 282 218 l 1,11,-1
 282 278 l 1,12,-1
 472 421 l 1,13,-1
 472 344 l 1,7,-1
EndSplineSet
EndChar

StartChar: logicalnot
Encoding: 172 172 110
Width: 560
GlyphClass: 2
Flags: W
LayerCount: 2
Fore
SplineSet
65 342 m 1,0,-1
 493 342 l 1,1,-1
 493 117 l 1,2,-1
 423 117 l 1,3,-1
 423 274 l 1,4,-1
 65 274 l 1,5,-1
 65 342 l 1,0,-1
EndSplineSet
EndChar

StartChar: registered
Encoding: 174 174 111
Width: 645
GlyphClass: 2
Flags: W
LayerCount: 2
Fore
SplineSet
134.5 240 m 128,-1,1
 59 319 59 319 59 434.5 c 128,-1,2
 59 550 59 550 134 628.5 c 128,-1,3
 209 707 209 707 323 707 c 128,-1,4
 437 707 437 707 511.5 628 c 128,-1,5
 586 549 586 549 586 433.5 c 128,-1,6
 586 318 586 318 512 239.5 c 128,-1,7
 438 161 438 161 324 161 c 128,-1,0
 210 161 210 161 134.5 240 c 128,-1,1
166 597 m 128,-1,9
 103 530 103 530 103 434.5 c 128,-1,10
 103 339 103 339 166 272 c 128,-1,11
 229 205 229 205 322.5 205 c 128,-1,12
 416 205 416 205 479 271.5 c 128,-1,13
 542 338 542 338 542 434 c 128,-1,14
 542 530 542 530 479 597 c 128,-1,15
 416 664 416 664 322.5 664 c 128,-1,8
 229 664 229 664 166 597 c 128,-1,9
271 389 m 1,16,-1
 271 282 l 1,17,-1
 213 282 l 1,18,-1
 213 585 l 1,19,-1
 323 585 l 2,20,21
 380 585 380 585 408.5 563 c 128,-1,22
 437 541 437 541 437 497 c 128,-1,23
 437 453 437 453 425.5 431.5 c 128,-1,24
 414 410 414 410 386 397 c 1,25,-1
 441 282 l 1,26,-1
 380 282 l 1,27,-1
 330 389 l 1,28,-1
 271 389 l 1,16,-1
270 538 m 1,29,-1
 270 436 l 1,30,-1
 329 436 l 2,31,32
 356 436 356 436 368 448 c 128,-1,33
 380 460 380 460 380 487 c 0,34,35
 380 538 380 538 318 538 c 2,36,-1
 270 538 l 1,29,-1
EndSplineSet
EndChar

StartChar: macron
Encoding: 175 175 112
Width: 236
GlyphClass: 2
Flags: W
LayerCount: 2
Fore
SplineSet
-14 624 m 1,0,-1
 -14 683 l 1,1,-1
 261 683 l 1,2,-1
 261 624 l 1,3,-1
 -14 624 l 1,0,-1
EndSplineSet
EndChar

StartChar: degree
Encoding: 176 176 113
Width: 560
GlyphClass: 2
Flags: W
LayerCount: 2
Fore
SplineSet
138 561 m 128,-1,1
 138 624 138 624 177.5 663 c 128,-1,2
 217 702 217 702 280 702 c 128,-1,3
 343 702 343 702 382.5 663 c 128,-1,4
 422 624 422 624 422 561 c 128,-1,5
 422 498 422 498 382.5 459 c 128,-1,6
 343 420 343 420 280 420 c 128,-1,7
 217 420 217 420 177.5 459 c 128,-1,0
 138 498 138 498 138 561 c 128,-1,1
214 628 m 128,-1,9
 189 602 189 602 189 560.5 c 128,-1,10
 189 519 189 519 214 493.5 c 128,-1,11
 239 468 239 468 280 468 c 128,-1,12
 321 468 321 468 347 493.5 c 128,-1,13
 373 519 373 519 373 560.5 c 128,-1,14
 373 602 373 602 347 628 c 128,-1,15
 321 654 321 654 280 654 c 128,-1,8
 239 654 239 654 214 628 c 128,-1,9
EndSplineSet
EndChar

StartChar: plusminus
Encoding: 177 177 114
Width: 560
GlyphClass: 2
Flags: W
LayerCount: 2
Fore
SplineSet
55 293 m 1,0,-1
 55 361 l 1,1,-1
 244 361 l 1,2,-1
 244 487 l 1,3,-1
 314 487 l 1,4,-1
 314 361 l 1,5,-1
 505 361 l 1,6,-1
 505 293 l 1,7,-1
 314 293 l 1,8,-1
 314 166 l 1,9,-1
 244 166 l 1,10,-1
 244 293 l 1,11,-1
 55 293 l 1,0,-1
55 106 m 1,12,-1
 505 106 l 1,13,-1
 505 38 l 1,14,-1
 55 38 l 1,15,-1
 55 106 l 1,12,-1
EndSplineSet
EndChar

StartChar: twosuperior
Encoding: 178 178 115
Width: 280
GlyphClass: 2
Flags: W
LayerCount: 2
Fore
SplineSet
239 478 m 1,0,-1
 30 478 l 1,1,-1
 30 533 l 1,2,-1
 118 620 l 1,3,4
 169 669 169 669 169 703 c 0,5,6
 169 740 169 740 120 740 c 1,7,-1
 35 731 l 1,8,-1
 33 788 l 1,9,10
 92 800 92 800 140 800 c 0,11,12
 235 800 235 800 235 709 c 0,13,14
 235 676 235 676 221 651.5 c 128,-1,15
 207 627 207 627 174 597 c 1,16,-1
 111 536 l 1,17,-1
 239 536 l 1,18,-1
 239 478 l 1,0,-1
EndSplineSet
Substitution2: "Single Substitution lookup 5 subtable" twoinferior
EndChar

StartChar: threesuperior
Encoding: 179 179 116
Width: 280
GlyphClass: 2
Flags: W
LayerCount: 2
Fore
SplineSet
136 800 m 0,0,1
 241 800 241 800 241 716 c 0,2,3
 241 665 241 665 202 643 c 1,4,5
 226 635 226 635 237.5 618.5 c 128,-1,6
 249 602 249 602 249 565 c 0,7,8
 249 468 249 468 143 468 c 0,9,10
 100 468 100 468 48 476 c 1,11,-1
 30 478 l 1,12,-1
 34 534 l 1,13,14
 91 526 91 526 137.5 526 c 128,-1,15
 184 526 184 526 184 568.5 c 128,-1,16
 184 611 184 611 137 611 c 2,17,-1
 72 611 l 1,18,-1
 72 664 l 1,19,-1
 137 664 l 2,20,21
 151 664 151 664 163 677 c 128,-1,22
 175 690 175 690 175 708 c 0,23,24
 175 742 175 742 130 742 c 1,25,-1
 38 735 l 1,26,-1
 34 790 l 1,27,28
 93 800 93 800 136 800 c 0,0,1
EndSplineSet
Substitution2: "Single Substitution lookup 5 subtable" threeinferior
EndChar

StartChar: acute
Encoding: 180 180 117
Width: 268
GlyphClass: 2
Flags: W
LayerCount: 2
Fore
SplineSet
26 642 m 1,0,-1
 242 740 l 1,1,-1
 268 676 l 1,2,-1
 47 591 l 1,3,-1
 26 642 l 1,0,-1
EndSplineSet
EndChar

StartChar: mu
Encoding: 181 181 118
Width: 560
GlyphClass: 2
Flags: W
LayerCount: 2
Fore
SplineSet
401 500 m 1,0,-1
 476 500 l 1,1,-1
 476 0 l 1,2,-1
 401 0 l 1,3,-1
 401 35 l 1,4,5
 326 -10 326 -10 260.5 -10 c 128,-1,6
 195 -10 195 -10 159 7 c 1,7,-1
 159 -222 l 1,8,-1
 84 -222 l 1,9,-1
 84 500 l 1,10,-1
 159 500 l 1,11,-1
 159 240 l 2,12,13
 159 131 159 131 178 94 c 128,-1,14
 197 57 197 57 264 57 c 0,15,16
 297 57 297 57 331 66.5 c 128,-1,17
 365 76 365 76 383 85 c 2,18,-1
 401 94 l 1,19,-1
 401 500 l 1,0,-1
EndSplineSet
EndChar

StartChar: paragraph
Encoding: 182 182 119
Width: 593
GlyphClass: 2
Flags: W
LayerCount: 2
Fore
SplineSet
411 0 m 1,0,-1
 411 627 l 1,1,-1
 295 627 l 1,2,-1
 295 0 l 1,3,-1
 228 0 l 1,4,-1
 228 324 l 1,5,-1
 221 324 l 2,6,7
 140 324 140 324 87.5 375 c 128,-1,8
 35 426 35 426 35 507 c 128,-1,9
 35 588 35 588 88 640 c 128,-1,10
 141 692 141 692 222 692 c 2,11,-1
 551 692 l 1,12,-1
 551 627 l 1,13,-1
 479 627 l 1,14,-1
 479 0 l 1,15,-1
 411 0 l 1,0,-1
EndSplineSet
EndChar

StartChar: periodcentered
Encoding: 183 183 120
Width: 217
GlyphClass: 2
Flags: W
LayerCount: 2
Fore
SplineSet
68 229 m 1,0,-1
 68 343 l 1,1,-1
 150 343 l 1,2,-1
 150 229 l 1,3,-1
 68 229 l 1,0,-1
EndSplineSet
Substitution2: "'case' Case-Sensitive Forms in Latin lookup 4 subtable" periodcentered.cap
EndChar

StartChar: cedilla
Encoding: 184 184 121
Width: 263
GlyphClass: 2
Flags: W
LayerCount: 2
Fore
SplineSet
221 -127 m 0,0,1
 221 -217 221 -217 128 -217 c 0,2,3
 82 -217 82 -217 54 -212 c 2,4,-1
 42 -210 l 1,5,-1
 45 -162 l 1,6,7
 84 -165 84 -165 111 -165 c 0,8,9
 155 -165 155 -165 155 -127 c 0,10,11
 155 -93 155 -93 111 -93 c 2,12,-1
 69 -93 l 1,13,-1
 69 1 l 1,14,-1
 110 1 l 1,15,-1
 110 -49 l 1,16,17
 169 -49 169 -49 195 -65 c 128,-1,18
 221 -81 221 -81 221 -127 c 0,0,1
EndSplineSet
EndChar

StartChar: onesuperior
Encoding: 185 185 122
Width: 280
GlyphClass: 2
Flags: W
LayerCount: 2
Fore
SplineSet
193 790 m 1,0,-1
 193 478 l 1,1,-1
 129 478 l 1,2,-1
 129 720 l 1,3,-1
 61 673 l 1,4,-1
 32 720 l 1,5,-1
 133 790 l 1,6,-1
 193 790 l 1,0,-1
EndSplineSet
Substitution2: "Single Substitution lookup 5 subtable" oneinferior
EndChar

StartChar: ordmasculine
Encoding: 186 186 123
Width: 380
GlyphClass: 2
Flags: W
LayerCount: 2
Fore
SplineSet
87.5 623 m 128,-1,1
 122 659 122 659 190.5 659 c 128,-1,2
 259 659 259 659 292.5 623 c 128,-1,3
 326 587 326 587 326 510 c 0,4,5
 326 357 326 357 191 357 c 0,6,7
 53 357 53 357 53 510 c 0,8,0
 53 587 53 587 87.5 623 c 128,-1,1
137.5 439.5 m 128,-1,10
 153 418 153 418 190.5 418 c 128,-1,11
 228 418 228 418 242.5 439.5 c 128,-1,12
 257 461 257 461 257 510 c 128,-1,13
 257 559 257 559 242.5 578.5 c 128,-1,14
 228 598 228 598 190.5 598 c 128,-1,15
 153 598 153 598 137.5 578 c 128,-1,16
 122 558 122 558 122 509.5 c 128,-1,9
 122 461 122 461 137.5 439.5 c 128,-1,10
EndSplineSet
EndChar

StartChar: guillemotright
Encoding: 187 187 124
Width: 539
GlyphClass: 2
Flags: W
LayerCount: 2
Fore
SplineSet
429 250 m 1,0,-1
 304 344 l 1,1,-1
 304 421 l 1,2,-1
 494 278 l 1,3,-1
 494 218 l 1,4,-1
 304 67 l 1,5,-1
 304 145 l 1,6,-1
 429 250 l 1,0,-1
192 250 m 1,7,-1
 67 344 l 1,8,-1
 67 421 l 1,9,-1
 256 278 l 1,10,-1
 256 218 l 1,11,-1
 67 67 l 1,12,-1
 67 145 l 1,13,-1
 192 250 l 1,7,-1
EndSplineSet
EndChar

StartChar: onequarter
Encoding: 188 188 125
Width: 534
GlyphClass: 2
Flags: W
LayerCount: 2
Fore
SplineSet
198 790 m 1,0,-1
 198 478 l 1,1,-1
 134 478 l 1,2,-1
 134 720 l 1,3,-1
 66 673 l 1,4,-1
 37 720 l 1,5,-1
 138 790 l 1,6,-1
 198 790 l 1,0,-1
35 28 m 1,7,-1
 427 660 l 1,8,-1
 467 634 l 1,9,-1
 74 3 l 1,10,-1
 35 28 l 1,7,-1
412 -100 m 1,11,-1
 412 -52 l 1,12,-1
 271 -52 l 1,13,-1
 271 2 l 1,14,-1
 340 212 l 1,15,-1
 410 212 l 1,16,-1
 337 6 l 1,17,-1
 412 6 l 1,18,-1
 417 95 l 1,19,-1
 475 95 l 1,20,-1
 475 6 l 1,21,-1
 502 6 l 1,22,-1
 502 -52 l 1,23,-1
 475 -52 l 1,24,-1
 475 -100 l 1,25,-1
 412 -100 l 1,11,-1
EndSplineSet
EndChar

StartChar: onehalf
Encoding: 189 189 126
Width: 529
GlyphClass: 2
Flags: W
LayerCount: 2
Fore
SplineSet
202 790 m 1,0,-1
 202 478 l 1,1,-1
 138 478 l 1,2,-1
 138 720 l 1,3,-1
 70 673 l 1,4,-1
 41 720 l 1,5,-1
 142 790 l 1,6,-1
 202 790 l 1,0,-1
33 28 m 1,7,-1
 425 660 l 1,8,-1
 465 634 l 1,9,-1
 72 3 l 1,10,-1
 33 28 l 1,7,-1
486 -100 m 1,11,-1
 277 -100 l 1,12,-1
 277 -45 l 1,13,-1
 365 42 l 1,14,15
 416 91 416 91 416 125 c 0,16,17
 416 162 416 162 367 162 c 1,18,-1
 282 153 l 1,19,-1
 280 210 l 1,20,21
 339 222 339 222 386 222 c 0,22,23
 482 222 482 222 482 131 c 0,24,25
 482 98 482 98 468 73.5 c 128,-1,26
 454 49 454 49 421 19 c 1,27,-1
 358 -42 l 1,28,-1
 486 -42 l 1,29,-1
 486 -100 l 1,11,-1
EndSplineSet
EndChar

StartChar: threequarters
Encoding: 190 190 127
Width: 550
GlyphClass: 2
Flags: W
LayerCount: 2
Fore
SplineSet
155 800 m 0,0,1
 260 800 260 800 260 716 c 0,2,3
 260 665 260 665 221 643 c 1,4,5
 245 635 245 635 256.5 618.5 c 128,-1,6
 268 602 268 602 268 565 c 0,7,8
 268 468 268 468 162 468 c 0,9,10
 119 468 119 468 66 476 c 1,11,-1
 49 478 l 1,12,-1
 53 534 l 1,13,14
 110 526 110 526 156.5 526 c 128,-1,15
 203 526 203 526 203 568.5 c 128,-1,16
 203 611 203 611 156 611 c 2,17,-1
 91 611 l 1,18,-1
 91 664 l 1,19,-1
 156 664 l 2,20,21
 170 664 170 664 182 677 c 128,-1,22
 194 690 194 690 194 708 c 0,23,24
 194 742 194 742 149 742 c 1,25,-1
 57 735 l 1,26,-1
 53 790 l 1,27,28
 112 800 112 800 155 800 c 0,0,1
52 28 m 1,29,-1
 444 660 l 1,30,-1
 484 634 l 1,31,-1
 91 3 l 1,32,-1
 52 28 l 1,29,-1
429 -100 m 1,33,-1
 429 -52 l 1,34,-1
 288 -52 l 1,35,-1
 288 2 l 1,36,-1
 357 212 l 1,37,-1
 427 212 l 1,38,-1
 354 6 l 1,39,-1
 429 6 l 1,40,-1
 434 95 l 1,41,-1
 492 95 l 1,42,-1
 492 6 l 1,43,-1
 519 6 l 1,44,-1
 519 -52 l 1,45,-1
 492 -52 l 1,46,-1
 492 -100 l 1,47,-1
 429 -100 l 1,33,-1
EndSplineSet
EndChar

StartChar: questiondown
Encoding: 191 191 128
Width: 441
GlyphClass: 2
Flags: W
LayerCount: 2
Fore
SplineSet
38 -41 m 0,0,1
 38 24 38 24 55.5 57.5 c 128,-1,2
 73 91 73 91 126.5 135.5 c 128,-1,3
 180 180 180 180 200 206.5 c 128,-1,4
 220 233 220 233 220 265 c 2,5,-1
 220 300 l 1,6,-1
 283 300 l 1,7,8
 296 273 296 273 296 239 c 128,-1,9
 296 205 296 205 273 175.5 c 128,-1,10
 250 146 250 146 199 102 c 128,-1,11
 148 58 148 58 131 32 c 128,-1,12
 114 6 114 6 114 -40.5 c 128,-1,13
 114 -87 114 -87 146 -110 c 128,-1,14
 178 -133 178 -133 247 -133 c 0,15,16
 300 -133 300 -133 376 -116 c 2,17,-1
 402 -110 l 1,18,-1
 407 -171 l 1,19,20
 306 -201 306 -201 240 -201 c 0,21,22
 137 -201 137 -201 87.5 -163.5 c 128,-1,23
 38 -126 38 -126 38 -41 c 0,0,1
294 500 m 1,24,-1
 294 388 l 1,25,-1
 212 388 l 1,26,-1
 212 500 l 1,27,-1
 294 500 l 1,24,-1
EndSplineSet
Substitution2: "'case' Case-Sensitive Forms in Latin lookup 4 subtable" questiondown.cap
EndChar

StartChar: Agrave
Encoding: 192 192 129
Width: 596
GlyphClass: 2
Flags: W
LayerCount: 2
Fore
SplineSet
24 0 m 1,0,-1
 214 692 l 1,1,-1
 382 692 l 1,2,-1
 572 0 l 1,3,-1
 496 0 l 1,4,-1
 446 178 l 1,5,-1
 150 178 l 1,6,-1
 100 0 l 1,7,-1
 24 0 l 1,0,-1
272 626 m 1,8,-1
 167 247 l 1,9,-1
 429 247 l 1,10,-1
 324 626 l 1,11,-1
 272 626 l 1,8,-1
189 931 m 1,12,-1
 405 831 l 1,13,-1
 382 778 l 1,14,-1
 163 865 l 1,15,-1
 189 931 l 1,12,-1
EndSplineSet
Position2: "'cpsp' Capital Spacing in Latin lookup 0 subtable" dx=5 dy=0 dh=10 dv=0
EndChar

StartChar: Aacute
Encoding: 193 193 130
Width: 596
GlyphClass: 2
Flags: W
LayerCount: 2
Fore
SplineSet
24 0 m 1,0,-1
 214 692 l 1,1,-1
 382 692 l 1,2,-1
 572 0 l 1,3,-1
 496 0 l 1,4,-1
 446 178 l 1,5,-1
 150 178 l 1,6,-1
 100 0 l 1,7,-1
 24 0 l 1,0,-1
272 626 m 1,8,-1
 167 247 l 1,9,-1
 429 247 l 1,10,-1
 324 626 l 1,11,-1
 272 626 l 1,8,-1
186 831 m 1,12,-1
 402 931 l 1,13,-1
 428 865 l 1,14,-1
 209 778 l 1,15,-1
 186 831 l 1,12,-1
EndSplineSet
Position2: "'cpsp' Capital Spacing in Latin lookup 0 subtable" dx=5 dy=0 dh=10 dv=0
EndChar

StartChar: Acircumflex
Encoding: 194 194 131
Width: 596
GlyphClass: 2
Flags: W
LayerCount: 2
Fore
SplineSet
24 0 m 1,0,-1
 214 692 l 1,1,-1
 382 692 l 1,2,-1
 572 0 l 1,3,-1
 496 0 l 1,4,-1
 446 178 l 1,5,-1
 150 178 l 1,6,-1
 100 0 l 1,7,-1
 24 0 l 1,0,-1
272 626 m 1,8,-1
 167 247 l 1,9,-1
 429 247 l 1,10,-1
 324 626 l 1,11,-1
 272 626 l 1,8,-1
130 791 m 1,12,-1
 264 926 l 1,13,-1
 329 926 l 1,14,-1
 463 791 l 1,15,-1
 379 791 l 1,16,-1
 297 871 l 1,17,-1
 214 791 l 1,18,-1
 130 791 l 1,12,-1
EndSplineSet
Position2: "'cpsp' Capital Spacing in Latin lookup 0 subtable" dx=5 dy=0 dh=10 dv=0
EndChar

StartChar: Atilde
Encoding: 195 195 132
Width: 596
GlyphClass: 2
Flags: W
LayerCount: 2
Fore
SplineSet
24 0 m 1,0,-1
 214 692 l 1,1,-1
 382 692 l 1,2,-1
 572 0 l 1,3,-1
 496 0 l 1,4,-1
 446 178 l 1,5,-1
 150 178 l 1,6,-1
 100 0 l 1,7,-1
 24 0 l 1,0,-1
272 626 m 1,8,-1
 167 247 l 1,9,-1
 429 247 l 1,10,-1
 324 626 l 1,11,-1
 272 626 l 1,8,-1
374 803 m 0,12,13
 353 803 353 803 291 830 c 128,-1,14
 229 857 229 857 216 857 c 0,15,16
 194 857 194 857 155 821 c 2,17,-1
 142 809 l 1,18,-1
 125 865 l 1,19,20
 144 887 144 887 170 905 c 128,-1,21
 196 923 196 923 219 923 c 128,-1,22
 242 923 242 923 303 896 c 128,-1,23
 364 869 364 869 374 869 c 0,24,25
 394 869 394 869 432 904 c 2,26,-1
 444 915 l 1,27,-1
 462 859 l 1,28,29
 415 803 415 803 374 803 c 0,12,13
EndSplineSet
Position2: "'cpsp' Capital Spacing in Latin lookup 0 subtable" dx=5 dy=0 dh=10 dv=0
EndChar

StartChar: Adieresis
Encoding: 196 196 133
Width: 596
GlyphClass: 2
Flags: W
LayerCount: 2
Fore
SplineSet
24 0 m 1,0,-1
 214 692 l 1,1,-1
 382 692 l 1,2,-1
 572 0 l 1,3,-1
 496 0 l 1,4,-1
 446 178 l 1,5,-1
 150 178 l 1,6,-1
 100 0 l 1,7,-1
 24 0 l 1,0,-1
272 626 m 1,8,-1
 167 247 l 1,9,-1
 429 247 l 1,10,-1
 324 626 l 1,11,-1
 272 626 l 1,8,-1
159 808 m 1,12,-1
 159 898 l 1,13,-1
 232 898 l 1,14,-1
 232 808 l 1,15,-1
 159 808 l 1,12,-1
363 808 m 1,16,-1
 363 898 l 1,17,-1
 435 898 l 1,18,-1
 435 808 l 1,19,-1
 363 808 l 1,16,-1
EndSplineSet
Position2: "'cpsp' Capital Spacing in Latin lookup 0 subtable" dx=5 dy=0 dh=10 dv=0
EndChar

StartChar: Aring
Encoding: 197 197 134
Width: 596
GlyphClass: 2
Flags: W
LayerCount: 2
Fore
SplineSet
382 821 m 128,-1,1
 415 793 415 793 415 747 c 128,-1,2
 415 701 415 701 387 671 c 1,3,-1
 572 0 l 1,4,-1
 496 0 l 1,5,-1
 446 178 l 1,6,-1
 150 178 l 1,7,-1
 100 0 l 1,8,-1
 24 0 l 1,9,-1
 208 669 l 1,10,11
 178 697 178 697 178 745 c 128,-1,12
 178 793 178 793 211.5 821 c 128,-1,13
 245 849 245 849 297 849 c 128,-1,0
 349 849 349 849 382 821 c 128,-1,1
272 626 m 1,14,-1
 167 247 l 1,15,-1
 429 247 l 1,16,-1
 324 626 l 1,17,-1
 272 626 l 1,14,-1
235 744 m 0,18,19
 235 700 235 700 278 692 c 1,20,-1
 315 692 l 1,21,22
 359 700 359 700 359 744 c 0,23,24
 359 769 359 769 342.5 783 c 128,-1,25
 326 797 326 797 297 797 c 0,26,27
 235 797 235 797 235 744 c 0,18,19
EndSplineSet
Position2: "'cpsp' Capital Spacing in Latin lookup 0 subtable" dx=5 dy=0 dh=10 dv=0
EndChar

StartChar: AE
Encoding: 198 198 135
Width: 876
GlyphClass: 2
Flags: W
LayerCount: 2
Fore
SplineSet
408 0 m 1,0,-1
 408 175 l 1,1,-1
 157 175 l 1,2,-1
 99 0 l 1,3,-1
 20 0 l 1,4,-1
 244 696 l 1,5,-1
 829 696 l 1,6,-1
 829 623 l 1,7,-1
 484 623 l 1,8,-1
 484 393 l 1,9,-1
 769 393 l 1,10,-1
 769 320 l 1,11,-1
 484 320 l 1,12,-1
 484 73 l 1,13,-1
 829 73 l 1,14,-1
 829 0 l 1,15,-1
 408 0 l 1,0,-1
300 623 m 1,16,-1
 178 249 l 1,17,-1
 408 249 l 1,18,-1
 409 623 l 1,19,-1
 300 623 l 1,16,-1
EndSplineSet
Position2: "'cpsp' Capital Spacing in Latin lookup 0 subtable" dx=5 dy=0 dh=10 dv=0
EndChar

StartChar: Ccedilla
Encoding: 199 199 136
Width: 544
GlyphClass: 2
Flags: W
LayerCount: 2
Fore
SplineSet
433 -127 m 0,0,1
 433 -217 433 -217 340 -217 c 0,2,3
 294 -217 294 -217 266 -212 c 2,4,-1
 254 -210 l 1,5,-1
 257 -162 l 1,6,7
 296 -165 296 -165 323 -165 c 0,8,9
 367 -165 367 -165 367 -127 c 0,10,11
 367 -93 367 -93 323 -93 c 2,12,-1
 281 -93 l 1,13,-1
 281 -9 l 1,14,15
 152 0 152 0 105.5 84.5 c 128,-1,16
 59 169 59 169 59 344 c 0,17,18
 59 437 59 437 69.5 499.5 c 128,-1,19
 80 562 80 562 107.5 610 c 128,-1,20
 135 658 135 658 185 680 c 128,-1,21
 235 702 235 702 315 702 c 128,-1,22
 395 702 395 702 503 680 c 1,23,-1
 500 615 l 1,24,25
 399 633 399 633 320 633 c 0,26,27
 210 633 210 633 174.5 567.5 c 128,-1,28
 139 502 139 502 139 344 c 0,29,30
 139 265 139 265 145.5 217 c 128,-1,31
 152 169 152 169 171 130.5 c 128,-1,32
 190 92 190 92 226.5 75.5 c 128,-1,33
 263 59 263 59 333.5 59 c 128,-1,34
 404 59 404 59 500 77 c 1,35,-1
 503 11 l 1,36,37
 411 -9 411 -9 322 -10 c 1,38,-1
 322 -49 l 1,39,40
 381 -49 381 -49 407 -65 c 128,-1,41
 433 -81 433 -81 433 -127 c 0,0,1
EndSplineSet
Position2: "'cpsp' Capital Spacing in Latin lookup 0 subtable" dx=5 dy=0 dh=10 dv=0
EndChar

StartChar: Egrave
Encoding: 200 200 137
Width: 553
GlyphClass: 2
Flags: W
LayerCount: 2
Fore
SplineSet
85 0 m 1,0,-1
 85 692 l 1,1,-1
 506 692 l 1,2,-1
 506 624 l 1,3,-1
 162 624 l 1,4,-1
 162 385 l 1,5,-1
 446 385 l 1,6,-1
 446 318 l 1,7,-1
 162 318 l 1,8,-1
 162 68 l 1,9,-1
 506 68 l 1,10,-1
 506 0 l 1,11,-1
 85 0 l 1,0,-1
195 931 m 1,12,-1
 411 831 l 1,13,-1
 388 778 l 1,14,-1
 169 865 l 1,15,-1
 195 931 l 1,12,-1
EndSplineSet
Position2: "'cpsp' Capital Spacing in Latin lookup 0 subtable" dx=5 dy=0 dh=10 dv=0
EndChar

StartChar: Eacute
Encoding: 201 201 138
Width: 553
GlyphClass: 2
Flags: W
LayerCount: 2
Fore
SplineSet
85 0 m 1,0,-1
 85 692 l 1,1,-1
 506 692 l 1,2,-1
 506 624 l 1,3,-1
 162 624 l 1,4,-1
 162 385 l 1,5,-1
 446 385 l 1,6,-1
 446 318 l 1,7,-1
 162 318 l 1,8,-1
 162 68 l 1,9,-1
 506 68 l 1,10,-1
 506 0 l 1,11,-1
 85 0 l 1,0,-1
176 831 m 1,12,-1
 392 931 l 1,13,-1
 418 865 l 1,14,-1
 199 778 l 1,15,-1
 176 831 l 1,12,-1
EndSplineSet
Position2: "'cpsp' Capital Spacing in Latin lookup 0 subtable" dx=5 dy=0 dh=10 dv=0
EndChar

StartChar: Ecircumflex
Encoding: 202 202 139
Width: 553
GlyphClass: 2
Flags: W
LayerCount: 2
Fore
SplineSet
85 0 m 1,0,-1
 85 692 l 1,1,-1
 506 692 l 1,2,-1
 506 624 l 1,3,-1
 162 624 l 1,4,-1
 162 385 l 1,5,-1
 446 385 l 1,6,-1
 446 318 l 1,7,-1
 162 318 l 1,8,-1
 162 68 l 1,9,-1
 506 68 l 1,10,-1
 506 0 l 1,11,-1
 85 0 l 1,0,-1
127 791 m 1,12,-1
 261 926 l 1,13,-1
 326 926 l 1,14,-1
 460 791 l 1,15,-1
 376 791 l 1,16,-1
 294 871 l 1,17,-1
 211 791 l 1,18,-1
 127 791 l 1,12,-1
EndSplineSet
Position2: "'cpsp' Capital Spacing in Latin lookup 0 subtable" dx=5 dy=0 dh=10 dv=0
EndChar

StartChar: Edieresis
Encoding: 203 203 140
Width: 553
GlyphClass: 2
Flags: W
LayerCount: 2
Fore
SplineSet
85 0 m 1,0,-1
 85 692 l 1,1,-1
 506 692 l 1,2,-1
 506 624 l 1,3,-1
 162 624 l 1,4,-1
 162 385 l 1,5,-1
 446 385 l 1,6,-1
 446 318 l 1,7,-1
 162 318 l 1,8,-1
 162 68 l 1,9,-1
 506 68 l 1,10,-1
 506 0 l 1,11,-1
 85 0 l 1,0,-1
157 808 m 1,12,-1
 157 898 l 1,13,-1
 230 898 l 1,14,-1
 230 808 l 1,15,-1
 157 808 l 1,12,-1
361 808 m 1,16,-1
 361 898 l 1,17,-1
 433 898 l 1,18,-1
 433 808 l 1,19,-1
 361 808 l 1,16,-1
EndSplineSet
Position2: "'cpsp' Capital Spacing in Latin lookup 0 subtable" dx=5 dy=0 dh=10 dv=0
EndChar

StartChar: Igrave
Encoding: 204 204 141
Width: 246
GlyphClass: 2
Flags: W
LayerCount: 2
Fore
SplineSet
85 0 m 1,0,-1
 85 692 l 1,1,-1
 162 692 l 1,2,-1
 162 0 l 1,3,-1
 85 0 l 1,0,-1
6 931 m 1,4,-1
 222 831 l 1,5,-1
 199 778 l 1,6,-1
 -20 865 l 1,7,-1
 6 931 l 1,4,-1
EndSplineSet
Position2: "'cpsp' Capital Spacing in Latin lookup 0 subtable" dx=5 dy=0 dh=10 dv=0
EndChar

StartChar: Iacute
Encoding: 205 205 142
Width: 246
GlyphClass: 2
Flags: W
LayerCount: 2
Fore
SplineSet
85 0 m 1,0,-1
 85 692 l 1,1,-1
 162 692 l 1,2,-1
 162 0 l 1,3,-1
 85 0 l 1,0,-1
13 831 m 1,4,-1
 229 931 l 1,5,-1
 255 865 l 1,6,-1
 36 778 l 1,7,-1
 13 831 l 1,4,-1
EndSplineSet
Position2: "'cpsp' Capital Spacing in Latin lookup 0 subtable" dx=5 dy=0 dh=10 dv=0
EndChar

StartChar: Icircumflex
Encoding: 206 206 143
Width: 246
GlyphClass: 2
Flags: W
LayerCount: 2
Fore
SplineSet
85 0 m 1,0,-1
 85 692 l 1,1,-1
 162 692 l 1,2,-1
 162 0 l 1,3,-1
 85 0 l 1,0,-1
-47 791 m 1,4,-1
 87 926 l 1,5,-1
 152 926 l 1,6,-1
 286 791 l 1,7,-1
 202 791 l 1,8,-1
 120 871 l 1,9,-1
 37 791 l 1,10,-1
 -47 791 l 1,4,-1
EndSplineSet
Position2: "'cpsp' Capital Spacing in Latin lookup 0 subtable" dx=5 dy=0 dh=10 dv=0
EndChar

StartChar: Idieresis
Encoding: 207 207 144
Width: 246
GlyphClass: 2
Flags: W
LayerCount: 2
Fore
SplineSet
85 0 m 1,0,-1
 85 692 l 1,1,-1
 162 692 l 1,2,-1
 162 0 l 1,3,-1
 85 0 l 1,0,-1
-15 808 m 1,4,-1
 -15 898 l 1,5,-1
 58 898 l 1,6,-1
 58 808 l 1,7,-1
 -15 808 l 1,4,-1
189 808 m 1,8,-1
 189 898 l 1,9,-1
 261 898 l 1,10,-1
 261 808 l 1,11,-1
 189 808 l 1,8,-1
EndSplineSet
Position2: "'cpsp' Capital Spacing in Latin lookup 0 subtable" dx=5 dy=0 dh=10 dv=0
EndChar

StartChar: Eth
Encoding: 208 208 145
Width: 647
GlyphClass: 2
Flags: W
LayerCount: 2
Fore
SplineSet
20 311 m 1,0,-1
 20 384 l 1,1,-1
 88 384 l 1,2,-1
 88 696 l 1,3,-1
 335 696 l 2,4,5
 476 696 476 696 533.5 608 c 128,-1,6
 591 520 591 520 591 359 c 0,7,8
 591 97 591 97 460 28 c 1,9,10
 409 0 409 0 335 0 c 2,11,-1
 88 0 l 1,12,-1
 88 311 l 1,13,-1
 20 311 l 1,0,-1
511 359 m 0,14,15
 511 553 511 553 422 603 c 0,16,17
 387 623 387 623 335 623 c 2,18,-1
 164 623 l 1,19,-1
 164 384 l 1,20,-1
 322 384 l 1,21,-1
 322 311 l 1,22,-1
 164 311 l 1,23,-1
 164 73 l 1,24,-1
 335 73 l 2,25,26
 511 73 511 73 511 359 c 0,14,15
EndSplineSet
Position2: "'cpsp' Capital Spacing in Latin lookup 0 subtable" dx=5 dy=0 dh=10 dv=0
EndChar

StartChar: Ntilde
Encoding: 209 209 146
Width: 676
GlyphClass: 2
Flags: W
LayerCount: 2
Fore
SplineSet
85 0 m 1,0,-1
 85 692 l 1,1,-1
 229 692 l 1,2,-1
 494 68 l 1,3,-1
 515 68 l 1,4,-1
 515 692 l 1,5,-1
 591 692 l 1,6,-1
 591 0 l 1,7,-1
 450 0 l 1,8,-1
 181 624 l 1,9,-1
 162 624 l 1,10,-1
 162 0 l 1,11,-1
 85 0 l 1,0,-1
416 803 m 0,12,13
 395 803 395 803 333 830 c 128,-1,14
 271 857 271 857 258 857 c 0,15,16
 236 857 236 857 197 821 c 2,17,-1
 184 809 l 1,18,-1
 167 865 l 1,19,20
 186 887 186 887 212 905 c 128,-1,21
 238 923 238 923 261 923 c 128,-1,22
 284 923 284 923 345 896 c 128,-1,23
 406 869 406 869 416 869 c 0,24,25
 436 869 436 869 474 904 c 2,26,-1
 486 915 l 1,27,-1
 504 859 l 1,28,29
 457 803 457 803 416 803 c 0,12,13
EndSplineSet
Position2: "'cpsp' Capital Spacing in Latin lookup 0 subtable" dx=5 dy=0 dh=10 dv=0
EndChar

StartChar: Ograve
Encoding: 210 210 147
Width: 660
GlyphClass: 2
Flags: W
LayerCount: 2
Fore
SplineSet
176 124.5 m 128,-1,1
 216 58 216 58 330.5 58 c 128,-1,2
 445 58 445 58 484.5 123 c 128,-1,3
 524 188 524 188 524 341 c 128,-1,4
 524 494 524 494 483 564 c 128,-1,5
 442 634 442 634 329.5 634 c 128,-1,6
 217 634 217 634 176.5 564.5 c 128,-1,7
 136 495 136 495 136 343 c 128,-1,0
 136 191 136 191 176 124.5 c 128,-1,1
545 73 m 128,-1,9
 486 -10 486 -10 330.5 -10 c 128,-1,10
 175 -10 175 -10 116 75 c 128,-1,11
 57 160 57 160 57 342.5 c 128,-1,12
 57 525 57 525 117 613.5 c 128,-1,13
 177 702 177 702 330 702 c 128,-1,14
 483 702 483 702 543.5 614 c 128,-1,15
 604 526 604 526 604 341 c 128,-1,8
 604 156 604 156 545 73 c 128,-1,9
227 931 m 1,16,-1
 443 831 l 1,17,-1
 420 778 l 1,18,-1
 201 865 l 1,19,-1
 227 931 l 1,16,-1
EndSplineSet
Position2: "'cpsp' Capital Spacing in Latin lookup 0 subtable" dx=5 dy=0 dh=10 dv=0
EndChar

StartChar: Oacute
Encoding: 211 211 148
Width: 660
GlyphClass: 2
Flags: W
LayerCount: 2
Fore
SplineSet
176 124.5 m 128,-1,1
 216 58 216 58 330.5 58 c 128,-1,2
 445 58 445 58 484.5 123 c 128,-1,3
 524 188 524 188 524 341 c 128,-1,4
 524 494 524 494 483 564 c 128,-1,5
 442 634 442 634 329.5 634 c 128,-1,6
 217 634 217 634 176.5 564.5 c 128,-1,7
 136 495 136 495 136 343 c 128,-1,0
 136 191 136 191 176 124.5 c 128,-1,1
545 73 m 128,-1,9
 486 -10 486 -10 330.5 -10 c 128,-1,10
 175 -10 175 -10 116 75 c 128,-1,11
 57 160 57 160 57 342.5 c 128,-1,12
 57 525 57 525 117 613.5 c 128,-1,13
 177 702 177 702 330 702 c 128,-1,14
 483 702 483 702 543.5 614 c 128,-1,15
 604 526 604 526 604 341 c 128,-1,8
 604 156 604 156 545 73 c 128,-1,9
198 831 m 1,16,-1
 414 931 l 1,17,-1
 440 865 l 1,18,-1
 221 778 l 1,19,-1
 198 831 l 1,16,-1
EndSplineSet
Position2: "'cpsp' Capital Spacing in Latin lookup 0 subtable" dx=5 dy=0 dh=10 dv=0
EndChar

StartChar: Ocircumflex
Encoding: 212 212 149
Width: 660
GlyphClass: 2
Flags: W
LayerCount: 2
Fore
SplineSet
176 124.5 m 128,-1,1
 216 58 216 58 330.5 58 c 128,-1,2
 445 58 445 58 484.5 123 c 128,-1,3
 524 188 524 188 524 341 c 128,-1,4
 524 494 524 494 483 564 c 128,-1,5
 442 634 442 634 329.5 634 c 128,-1,6
 217 634 217 634 176.5 564.5 c 128,-1,7
 136 495 136 495 136 343 c 128,-1,0
 136 191 136 191 176 124.5 c 128,-1,1
545 73 m 128,-1,9
 486 -10 486 -10 330.5 -10 c 128,-1,10
 175 -10 175 -10 116 75 c 128,-1,11
 57 160 57 160 57 342.5 c 128,-1,12
 57 525 57 525 117 613.5 c 128,-1,13
 177 702 177 702 330 702 c 128,-1,14
 483 702 483 702 543.5 614 c 128,-1,15
 604 526 604 526 604 341 c 128,-1,8
 604 156 604 156 545 73 c 128,-1,9
164 791 m 1,16,-1
 298 926 l 1,17,-1
 363 926 l 1,18,-1
 497 791 l 1,19,-1
 413 791 l 1,20,-1
 331 871 l 1,21,-1
 248 791 l 1,22,-1
 164 791 l 1,16,-1
EndSplineSet
Position2: "'cpsp' Capital Spacing in Latin lookup 0 subtable" dx=5 dy=0 dh=10 dv=0
EndChar

StartChar: Otilde
Encoding: 213 213 150
Width: 660
GlyphClass: 2
Flags: W
LayerCount: 2
Fore
SplineSet
176 124.5 m 128,-1,1
 216 58 216 58 330.5 58 c 128,-1,2
 445 58 445 58 484.5 123 c 128,-1,3
 524 188 524 188 524 341 c 128,-1,4
 524 494 524 494 483 564 c 128,-1,5
 442 634 442 634 329.5 634 c 128,-1,6
 217 634 217 634 176.5 564.5 c 128,-1,7
 136 495 136 495 136 343 c 128,-1,0
 136 191 136 191 176 124.5 c 128,-1,1
545 73 m 128,-1,9
 486 -10 486 -10 330.5 -10 c 128,-1,10
 175 -10 175 -10 116 75 c 128,-1,11
 57 160 57 160 57 342.5 c 128,-1,12
 57 525 57 525 117 613.5 c 128,-1,13
 177 702 177 702 330 702 c 128,-1,14
 483 702 483 702 543.5 614 c 128,-1,15
 604 526 604 526 604 341 c 128,-1,8
 604 156 604 156 545 73 c 128,-1,9
408 803 m 0,16,17
 387 803 387 803 325 830 c 128,-1,18
 263 857 263 857 250 857 c 0,19,20
 228 857 228 857 189 821 c 2,21,-1
 176 809 l 1,22,-1
 159 865 l 1,23,24
 178 887 178 887 204 905 c 128,-1,25
 230 923 230 923 253 923 c 128,-1,26
 276 923 276 923 337 896 c 128,-1,27
 398 869 398 869 408 869 c 0,28,29
 428 869 428 869 466 904 c 2,30,-1
 478 915 l 1,31,-1
 496 859 l 1,32,33
 449 803 449 803 408 803 c 0,16,17
EndSplineSet
Position2: "'cpsp' Capital Spacing in Latin lookup 0 subtable" dx=5 dy=0 dh=10 dv=0
EndChar

StartChar: Odieresis
Encoding: 214 214 151
Width: 660
GlyphClass: 2
Flags: W
LayerCount: 2
Fore
SplineSet
176 124.5 m 128,-1,1
 216 58 216 58 330.5 58 c 128,-1,2
 445 58 445 58 484.5 123 c 128,-1,3
 524 188 524 188 524 341 c 128,-1,4
 524 494 524 494 483 564 c 128,-1,5
 442 634 442 634 329.5 634 c 128,-1,6
 217 634 217 634 176.5 564.5 c 128,-1,7
 136 495 136 495 136 343 c 128,-1,0
 136 191 136 191 176 124.5 c 128,-1,1
545 73 m 128,-1,9
 486 -10 486 -10 330.5 -10 c 128,-1,10
 175 -10 175 -10 116 75 c 128,-1,11
 57 160 57 160 57 342.5 c 128,-1,12
 57 525 57 525 117 613.5 c 128,-1,13
 177 702 177 702 330 702 c 128,-1,14
 483 702 483 702 543.5 614 c 128,-1,15
 604 526 604 526 604 341 c 128,-1,8
 604 156 604 156 545 73 c 128,-1,9
192 808 m 1,16,-1
 192 898 l 1,17,-1
 265 898 l 1,18,-1
 265 808 l 1,19,-1
 192 808 l 1,16,-1
396 808 m 1,20,-1
 396 898 l 1,21,-1
 468 898 l 1,22,-1
 468 808 l 1,23,-1
 396 808 l 1,20,-1
EndSplineSet
Position2: "'cpsp' Capital Spacing in Latin lookup 0 subtable" dx=5 dy=0 dh=10 dv=0
EndChar

StartChar: multiply
Encoding: 215 215 152
Width: 560
GlyphClass: 2
Flags: W
LayerCount: 2
Fore
SplineSet
120 459 m 1,0,-1
 280 297 l 1,1,-1
 441 460 l 1,2,-1
 489 412 l 1,3,-1
 326 251 l 1,4,-1
 489 90 l 1,5,-1
 441 42 l 1,6,-1
 280 204 l 1,7,-1
 119 42 l 1,8,-1
 71 90 l 1,9,-1
 233 251 l 1,10,-1
 71 411 l 1,11,-1
 120 459 l 1,0,-1
EndSplineSet
EndChar

StartChar: Oslash
Encoding: 216 216 153
Width: 660
GlyphClass: 2
Flags: W
LayerCount: 2
Fore
SplineSet
330 -10 m 0,0,1
 261 -10 261 -10 210 7 c 1,2,-1
 153 -116 l 1,3,-1
 96 -90 l 1,4,-1
 155 36 l 1,5,6
 102 76 102 76 79.5 151 c 128,-1,7
 57 226 57 226 57 343 c 0,8,9
 57 525 57 525 117 613.5 c 128,-1,10
 177 702 177 702 330 702 c 0,11,12
 405 702 405 702 456 681 c 1,13,-1
 512 799 l 1,14,-1
 570 775 l 1,15,-1
 511 648 l 1,16,17
 604 570 604 570 604 343 c 0,18,19
 604 156 604 156 545 73 c 128,-1,20
 486 -10 486 -10 330 -10 c 0,0,1
176.5 564.5 m 128,-1,22
 136 495 136 495 136 330.5 c 128,-1,23
 136 166 136 166 188 108 c 1,24,-1
 426 615 l 1,25,26
 388 634 388 634 330 634 c 0,27,21
 217 634 217 634 176.5 564.5 c 128,-1,22
330 58 m 0,28,29
 445 58 445 58 484.5 123 c 128,-1,30
 524 188 524 188 524 349 c 128,-1,31
 524 510 524 510 476 574 c 1,32,-1
 241 72 l 1,33,34
 275 58 275 58 330 58 c 0,28,29
EndSplineSet
Position2: "'cpsp' Capital Spacing in Latin lookup 0 subtable" dx=5 dy=0 dh=10 dv=0
EndChar

StartChar: Ugrave
Encoding: 217 217 154
Width: 644
GlyphClass: 2
Flags: W
LayerCount: 2
Fore
SplineSet
157 208 m 2,0,1
 157 58 157 58 319 58 c 0,2,3
 403 58 403 58 445.5 93.5 c 128,-1,4
 488 129 488 129 488 208 c 2,5,-1
 488 692 l 1,6,-1
 564 692 l 1,7,-1
 564 210 l 2,8,9
 564 94 564 94 502.5 42 c 128,-1,10
 441 -10 441 -10 321 -10 c 128,-1,11
 201 -10 201 -10 140.5 42 c 128,-1,12
 80 94 80 94 80 210 c 2,13,-1
 80 692 l 1,14,-1
 157 692 l 1,15,-1
 157 208 l 2,0,1
222 931 m 1,16,-1
 438 831 l 1,17,-1
 415 778 l 1,18,-1
 196 865 l 1,19,-1
 222 931 l 1,16,-1
EndSplineSet
Position2: "'cpsp' Capital Spacing in Latin lookup 0 subtable" dx=5 dy=0 dh=10 dv=0
EndChar

StartChar: Uacute
Encoding: 218 218 155
Width: 644
GlyphClass: 2
Flags: W
LayerCount: 2
Fore
SplineSet
157 208 m 2,0,1
 157 58 157 58 319 58 c 0,2,3
 403 58 403 58 445.5 93.5 c 128,-1,4
 488 129 488 129 488 208 c 2,5,-1
 488 692 l 1,6,-1
 564 692 l 1,7,-1
 564 210 l 2,8,9
 564 94 564 94 502.5 42 c 128,-1,10
 441 -10 441 -10 321 -10 c 128,-1,11
 201 -10 201 -10 140.5 42 c 128,-1,12
 80 94 80 94 80 210 c 2,13,-1
 80 692 l 1,14,-1
 157 692 l 1,15,-1
 157 208 l 2,0,1
199 831 m 1,16,-1
 415 931 l 1,17,-1
 441 865 l 1,18,-1
 222 778 l 1,19,-1
 199 831 l 1,16,-1
EndSplineSet
Position2: "'cpsp' Capital Spacing in Latin lookup 0 subtable" dx=5 dy=0 dh=10 dv=0
EndChar

StartChar: Ucircumflex
Encoding: 219 219 156
Width: 644
GlyphClass: 2
Flags: W
LayerCount: 2
Fore
SplineSet
157 208 m 2,0,1
 157 58 157 58 319 58 c 0,2,3
 403 58 403 58 445.5 93.5 c 128,-1,4
 488 129 488 129 488 208 c 2,5,-1
 488 692 l 1,6,-1
 564 692 l 1,7,-1
 564 210 l 2,8,9
 564 94 564 94 502.5 42 c 128,-1,10
 441 -10 441 -10 321 -10 c 128,-1,11
 201 -10 201 -10 140.5 42 c 128,-1,12
 80 94 80 94 80 210 c 2,13,-1
 80 692 l 1,14,-1
 157 692 l 1,15,-1
 157 208 l 2,0,1
155 791 m 1,16,-1
 289 926 l 1,17,-1
 354 926 l 1,18,-1
 488 791 l 1,19,-1
 404 791 l 1,20,-1
 322 871 l 1,21,-1
 239 791 l 1,22,-1
 155 791 l 1,16,-1
EndSplineSet
Position2: "'cpsp' Capital Spacing in Latin lookup 0 subtable" dx=5 dy=0 dh=10 dv=0
EndChar

StartChar: Udieresis
Encoding: 220 220 157
Width: 644
GlyphClass: 2
Flags: W
LayerCount: 2
Fore
SplineSet
157 208 m 2,0,1
 157 58 157 58 319 58 c 0,2,3
 403 58 403 58 445.5 93.5 c 128,-1,4
 488 129 488 129 488 208 c 2,5,-1
 488 692 l 1,6,-1
 564 692 l 1,7,-1
 564 210 l 2,8,9
 564 94 564 94 502.5 42 c 128,-1,10
 441 -10 441 -10 321 -10 c 128,-1,11
 201 -10 201 -10 140.5 42 c 128,-1,12
 80 94 80 94 80 210 c 2,13,-1
 80 692 l 1,14,-1
 157 692 l 1,15,-1
 157 208 l 2,0,1
184 808 m 1,16,-1
 184 898 l 1,17,-1
 257 898 l 1,18,-1
 257 808 l 1,19,-1
 184 808 l 1,16,-1
388 808 m 1,20,-1
 388 898 l 1,21,-1
 460 898 l 1,22,-1
 460 808 l 1,23,-1
 388 808 l 1,20,-1
EndSplineSet
Position2: "'cpsp' Capital Spacing in Latin lookup 0 subtable" dx=5 dy=0 dh=10 dv=0
EndChar

StartChar: Yacute
Encoding: 221 221 158
Width: 538
GlyphClass: 2
Flags: W
LayerCount: 2
Fore
SplineSet
308 0 m 1,0,-1
 231 0 l 1,1,-1
 231 291 l 1,2,-1
 10 692 l 1,3,-1
 97 692 l 1,4,-1
 269 368 l 1,5,-1
 441 692 l 1,6,-1
 528 692 l 1,7,-1
 308 291 l 1,8,-1
 308 0 l 1,0,-1
167 831 m 1,9,-1
 383 931 l 1,10,-1
 409 865 l 1,11,-1
 190 778 l 1,12,-1
 167 831 l 1,9,-1
EndSplineSet
Position2: "'cpsp' Capital Spacing in Latin lookup 0 subtable" dx=5 dy=0 dh=10 dv=0
EndChar

StartChar: Thorn
Encoding: 222 222 159
Width: 599
GlyphClass: 2
Flags: W
LayerCount: 2
Fore
SplineSet
337 195 m 2,0,1
 481 195 481 195 481 361 c 0,2,3
 481 439 481 439 446.5 474.5 c 128,-1,4
 412 510 412 510 337 510 c 2,5,-1
 162 510 l 1,6,-1
 162 195 l 1,7,-1
 337 195 l 2,0,1
338 121 m 2,8,-1
 162 121 l 1,9,-1
 162 0 l 1,10,-1
 85 0 l 1,11,-1
 85 696 l 1,12,-1
 162 696 l 1,13,-1
 162 584 l 1,14,-1
 338 584 l 2,15,16
 451 584 451 584 505.5 529 c 128,-1,17
 560 474 560 474 560 359.5 c 128,-1,18
 560 245 560 245 504.5 183 c 128,-1,19
 449 121 449 121 338 121 c 2,8,-1
EndSplineSet
Position2: "'cpsp' Capital Spacing in Latin lookup 0 subtable" dx=5 dy=0 dh=10 dv=0
EndChar

StartChar: germandbls
Encoding: 223 223 160
Width: 574
GlyphClass: 2
Flags: W
LayerCount: 2
Fore
SplineSet
147 0 m 1,0,-1
 72 0 l 1,1,-1
 72 545 l 2,2,3
 72 646 72 646 117.5 687 c 128,-1,4
 163 728 163 728 267 728 c 128,-1,5
 371 728 371 728 416.5 694 c 128,-1,6
 462 660 462 660 462 584 c 0,7,8
 462 531 462 531 443 502.5 c 128,-1,9
 424 474 424 474 384 456.5 c 128,-1,10
 344 439 344 439 332.5 430 c 128,-1,11
 321 421 321 421 321 405.5 c 128,-1,12
 321 390 321 390 337.5 377 c 128,-1,13
 354 364 354 364 419 332 c 128,-1,14
 484 300 484 300 511.5 268 c 128,-1,15
 539 236 539 236 539 177 c 0,16,17
 539 75 539 75 493.5 32.5 c 128,-1,18
 448 -10 448 -10 338 -10 c 0,19,20
 288 -10 288 -10 228 1 c 2,21,-1
 207 5 l 1,22,-1
 210 68 l 1,23,24
 295 57 295 57 332 57 c 0,25,26
 404 57 404 57 432.5 83.5 c 128,-1,27
 461 110 461 110 461 158.5 c 128,-1,28
 461 207 461 207 440 229 c 128,-1,29
 419 251 419 251 354 282 c 128,-1,30
 289 313 289 313 266 337 c 128,-1,31
 243 361 243 361 243 398.5 c 128,-1,32
 243 436 243 436 261.5 456.5 c 128,-1,33
 280 477 280 477 319 494 c 128,-1,34
 358 511 358 511 371 529.5 c 128,-1,35
 384 548 384 548 384 586.5 c 128,-1,36
 384 625 384 625 358.5 643 c 128,-1,37
 333 661 333 661 266.5 661 c 128,-1,38
 200 661 200 661 173.5 635 c 128,-1,39
 147 609 147 609 147 536 c 2,40,-1
 147 0 l 1,0,-1
EndSplineSet
EndChar

StartChar: agrave
Encoding: 224 224 161
Width: 501
GlyphClass: 2
Flags: W
LayerCount: 2
Fore
SplineSet
425 349 m 2,0,-1
 425 93 l 1,1,2
 428 56 428 56 483 49 c 1,3,-1
 480 -10 l 1,4,5
 401 -10 401 -10 361 30 c 1,6,7
 271 -10 271 -10 181 -10 c 0,8,9
 112 -10 112 -10 76 29 c 128,-1,10
 40 68 40 68 40 141 c 128,-1,11
 40 214 40 214 77 248.5 c 128,-1,12
 114 283 114 283 193 291 c 2,13,-1
 350 306 l 1,14,-1
 350 349 l 2,15,16
 350 400 350 400 328 422 c 128,-1,17
 306 444 306 444 268 444 c 0,18,19
 188 444 188 444 102 434 c 1,20,-1
 71 431 l 1,21,-1
 68 488 l 1,22,23
 178 510 178 510 263 510 c 128,-1,24
 348 510 348 510 386.5 471 c 128,-1,25
 425 432 425 432 425 349 c 2,0,-1
117 145 m 0,26,27
 117 53 117 53 193 53 c 0,28,29
 261 53 261 53 327 76 c 2,30,-1
 350 84 l 1,31,-1
 350 249 l 1,32,-1
 202 235 l 2,33,34
 157 231 157 231 137 209 c 128,-1,35
 117 187 117 187 117 145 c 0,26,27
147 740 m 1,36,-1
 363 642 l 1,37,-1
 342 591 l 1,38,-1
 121 676 l 1,39,-1
 147 740 l 1,36,-1
EndSplineSet
EndChar

StartChar: aacute
Encoding: 225 225 162
Width: 501
GlyphClass: 2
Flags: W
LayerCount: 2
Fore
SplineSet
425 349 m 2,0,-1
 425 93 l 1,1,2
 428 56 428 56 483 49 c 1,3,-1
 480 -10 l 1,4,5
 401 -10 401 -10 361 30 c 1,6,7
 271 -10 271 -10 181 -10 c 0,8,9
 112 -10 112 -10 76 29 c 128,-1,10
 40 68 40 68 40 141 c 128,-1,11
 40 214 40 214 77 248.5 c 128,-1,12
 114 283 114 283 193 291 c 2,13,-1
 350 306 l 1,14,-1
 350 349 l 2,15,16
 350 400 350 400 328 422 c 128,-1,17
 306 444 306 444 268 444 c 0,18,19
 188 444 188 444 102 434 c 1,20,-1
 71 431 l 1,21,-1
 68 488 l 1,22,23
 178 510 178 510 263 510 c 128,-1,24
 348 510 348 510 386.5 471 c 128,-1,25
 425 432 425 432 425 349 c 2,0,-1
117 145 m 0,26,27
 117 53 117 53 193 53 c 0,28,29
 261 53 261 53 327 76 c 2,30,-1
 350 84 l 1,31,-1
 350 249 l 1,32,-1
 202 235 l 2,33,34
 157 231 157 231 137 209 c 128,-1,35
 117 187 117 187 117 145 c 0,26,27
118 642 m 1,36,-1
 334 740 l 1,37,-1
 360 676 l 1,38,-1
 139 591 l 1,39,-1
 118 642 l 1,36,-1
EndSplineSet
EndChar

StartChar: acircumflex
Encoding: 226 226 163
Width: 501
GlyphClass: 2
Flags: W
LayerCount: 2
Fore
SplineSet
425 349 m 2,0,-1
 425 93 l 1,1,2
 428 56 428 56 483 49 c 1,3,-1
 480 -10 l 1,4,5
 401 -10 401 -10 361 30 c 1,6,7
 271 -10 271 -10 181 -10 c 0,8,9
 112 -10 112 -10 76 29 c 128,-1,10
 40 68 40 68 40 141 c 128,-1,11
 40 214 40 214 77 248.5 c 128,-1,12
 114 283 114 283 193 291 c 2,13,-1
 350 306 l 1,14,-1
 350 349 l 2,15,16
 350 400 350 400 328 422 c 128,-1,17
 306 444 306 444 268 444 c 0,18,19
 188 444 188 444 102 434 c 1,20,-1
 71 431 l 1,21,-1
 68 488 l 1,22,23
 178 510 178 510 263 510 c 128,-1,24
 348 510 348 510 386.5 471 c 128,-1,25
 425 432 425 432 425 349 c 2,0,-1
117 145 m 0,26,27
 117 53 117 53 193 53 c 0,28,29
 261 53 261 53 327 76 c 2,30,-1
 350 84 l 1,31,-1
 350 249 l 1,32,-1
 202 235 l 2,33,34
 157 231 157 231 137 209 c 128,-1,35
 117 187 117 187 117 145 c 0,26,27
95 592 m 1,36,-1
 218 732 l 1,37,-1
 269 732 l 1,38,-1
 393 592 l 1,39,-1
 318 592 l 1,40,-1
 245 679 l 1,41,-1
 170 592 l 1,42,-1
 95 592 l 1,36,-1
EndSplineSet
EndChar

StartChar: atilde
Encoding: 227 227 164
Width: 501
GlyphClass: 2
Flags: W
LayerCount: 2
Fore
SplineSet
425 349 m 2,0,-1
 425 93 l 1,1,2
 428 56 428 56 483 49 c 1,3,-1
 480 -10 l 1,4,5
 401 -10 401 -10 361 30 c 1,6,7
 271 -10 271 -10 181 -10 c 0,8,9
 112 -10 112 -10 76 29 c 128,-1,10
 40 68 40 68 40 141 c 128,-1,11
 40 214 40 214 77 248.5 c 128,-1,12
 114 283 114 283 193 291 c 2,13,-1
 350 306 l 1,14,-1
 350 349 l 2,15,16
 350 400 350 400 328 422 c 128,-1,17
 306 444 306 444 268 444 c 0,18,19
 188 444 188 444 102 434 c 1,20,-1
 71 431 l 1,21,-1
 68 488 l 1,22,23
 178 510 178 510 263 510 c 128,-1,24
 348 510 348 510 386.5 471 c 128,-1,25
 425 432 425 432 425 349 c 2,0,-1
117 145 m 0,26,27
 117 53 117 53 193 53 c 0,28,29
 261 53 261 53 327 76 c 2,30,-1
 350 84 l 1,31,-1
 350 249 l 1,32,-1
 202 235 l 2,33,34
 157 231 157 231 137 209 c 128,-1,35
 117 187 117 187 117 145 c 0,26,27
307 612 m 0,36,37
 286 612 286 612 234.5 635.5 c 128,-1,38
 183 659 183 659 170 659 c 0,39,40
 147 659 147 659 108 629 c 2,41,-1
 95 619 l 1,42,-1
 77 667 l 1,43,44
 127 719 127 719 168 719 c 0,45,46
 189 719 189 719 241 696 c 128,-1,47
 293 673 293 673 304 673 c 0,48,49
 326 673 326 673 364 702 c 2,50,-1
 376 711 l 1,51,-1
 393 663 l 1,52,53
 347 612 347 612 307 612 c 0,36,37
EndSplineSet
EndChar

StartChar: adieresis
Encoding: 228 228 165
Width: 501
GlyphClass: 2
Flags: W
LayerCount: 2
Fore
SplineSet
425 349 m 2,0,-1
 425 93 l 1,1,2
 428 56 428 56 483 49 c 1,3,-1
 480 -10 l 1,4,5
 401 -10 401 -10 361 30 c 1,6,7
 271 -10 271 -10 181 -10 c 0,8,9
 112 -10 112 -10 76 29 c 128,-1,10
 40 68 40 68 40 141 c 128,-1,11
 40 214 40 214 77 248.5 c 128,-1,12
 114 283 114 283 193 291 c 2,13,-1
 350 306 l 1,14,-1
 350 349 l 2,15,16
 350 400 350 400 328 422 c 128,-1,17
 306 444 306 444 268 444 c 0,18,19
 188 444 188 444 102 434 c 1,20,-1
 71 431 l 1,21,-1
 68 488 l 1,22,23
 178 510 178 510 263 510 c 128,-1,24
 348 510 348 510 386.5 471 c 128,-1,25
 425 432 425 432 425 349 c 2,0,-1
117 145 m 0,26,27
 117 53 117 53 193 53 c 0,28,29
 261 53 261 53 327 76 c 2,30,-1
 350 84 l 1,31,-1
 350 249 l 1,32,-1
 202 235 l 2,33,34
 157 231 157 231 137 209 c 128,-1,35
 117 187 117 187 117 145 c 0,26,27
105 621 m 1,36,-1
 105 711 l 1,37,-1
 177 711 l 1,38,-1
 177 621 l 1,39,-1
 105 621 l 1,36,-1
305 621 m 1,40,-1
 305 711 l 1,41,-1
 378 711 l 1,42,-1
 378 621 l 1,43,-1
 305 621 l 1,40,-1
EndSplineSet
EndChar

StartChar: aring
Encoding: 229 229 166
Width: 501
GlyphClass: 2
Flags: W
LayerCount: 2
Fore
SplineSet
425 349 m 2,0,-1
 425 93 l 1,1,2
 428 56 428 56 483 49 c 1,3,-1
 480 -10 l 1,4,5
 401 -10 401 -10 361 30 c 1,6,7
 271 -10 271 -10 181 -10 c 0,8,9
 112 -10 112 -10 76 29 c 128,-1,10
 40 68 40 68 40 141 c 128,-1,11
 40 214 40 214 77 248.5 c 128,-1,12
 114 283 114 283 193 291 c 2,13,-1
 350 306 l 1,14,-1
 350 349 l 2,15,16
 350 400 350 400 328 422 c 128,-1,17
 306 444 306 444 268 444 c 0,18,19
 188 444 188 444 102 434 c 1,20,-1
 71 431 l 1,21,-1
 68 488 l 1,22,23
 178 510 178 510 263 510 c 128,-1,24
 348 510 348 510 386.5 471 c 128,-1,25
 425 432 425 432 425 349 c 2,0,-1
117 145 m 0,26,27
 117 53 117 53 193 53 c 0,28,29
 261 53 261 53 327 76 c 2,30,-1
 350 84 l 1,31,-1
 350 249 l 1,32,-1
 202 235 l 2,33,34
 157 231 157 231 137 209 c 128,-1,35
 117 187 117 187 117 145 c 0,26,27
151 645 m 128,-1,37
 151 689 151 689 181 719 c 128,-1,38
 211 749 211 749 254.5 749 c 128,-1,39
 298 749 298 749 328 719 c 128,-1,40
 358 689 358 689 358 645 c 128,-1,41
 358 601 358 601 328.5 571 c 128,-1,42
 299 541 299 541 255 541 c 128,-1,43
 211 541 211 541 181 571 c 128,-1,36
 151 601 151 601 151 645 c 128,-1,37
216 684.5 m 128,-1,45
 200 668 200 668 200 644.5 c 128,-1,46
 200 621 200 621 216 604.5 c 128,-1,47
 232 588 232 588 255 588 c 128,-1,48
 278 588 278 588 294 604.5 c 128,-1,49
 310 621 310 621 310 644.5 c 128,-1,50
 310 668 310 668 294 684.5 c 128,-1,51
 278 701 278 701 255 701 c 128,-1,44
 232 701 232 701 216 684.5 c 128,-1,45
EndSplineSet
EndChar

StartChar: ae
Encoding: 230 230 167
Width: 804
GlyphClass: 2
Flags: W
LayerCount: 2
Fore
SplineSet
710 65 m 2,0,-1
 739 67 l 1,1,-1
 741 6 l 1,2,3
 628 -10 628 -10 538 -10 c 128,-1,4
 448 -10 448 -10 400 44 c 1,5,-1
 368 30 l 1,6,7
 281 -10 281 -10 176 -10 c 0,8,9
 109 -10 109 -10 74.5 29.5 c 128,-1,10
 40 69 40 69 40 146 c 128,-1,11
 40 223 40 223 81 253.5 c 128,-1,12
 122 284 122 284 221 294 c 2,13,-1
 350 306 l 1,14,-1
 350 347 l 2,15,16
 350 438 350 438 263 438 c 0,17,18
 197 438 197 438 104 430 c 1,19,-1
 73 428 l 1,20,-1
 70 495 l 1,21,22
 189 510 189 510 267 510 c 0,23,24
 369 510 369 510 402 437 c 1,25,26
 450 510 450 510 554.5 510 c 128,-1,27
 659 510 659 510 709 453.5 c 128,-1,28
 759 397 759 397 759 276 c 1,29,-1
 755 218 l 1,30,-1
 425 218 l 1,31,32
 425 136 425 136 455 97 c 128,-1,33
 485 58 485 58 546.5 58 c 128,-1,34
 608 58 608 58 710 65 c 2,0,-1
188 55 m 0,35,36
 234 55 234 55 293 69.5 c 128,-1,37
 352 84 352 84 367 92 c 1,38,39
 348 143 348 143 348 245 c 1,40,-1
 202 233 l 2,41,42
 158 229 158 229 137.5 208 c 128,-1,43
 117 187 117 187 117 145 c 0,44,45
 117 55 117 55 188 55 c 0,35,36
425 279 m 1,46,-1
 684 279 l 1,47,48
 684 368 684 368 654.5 405.5 c 128,-1,49
 625 443 625 443 558.5 443 c 128,-1,50
 492 443 492 443 458.5 404 c 128,-1,51
 425 365 425 365 425 279 c 1,46,-1
EndSplineSet
EndChar

StartChar: ccedilla
Encoding: 231 231 168
Width: 436
GlyphClass: 2
Flags: W
LayerCount: 2
Fore
SplineSet
360 -127 m 0,0,1
 360 -217 360 -217 267 -217 c 0,2,3
 221 -217 221 -217 192 -212 c 2,4,-1
 181 -210 l 1,5,-1
 184 -162 l 1,6,7
 223 -165 223 -165 250 -165 c 0,8,9
 294 -165 294 -165 294 -127 c 0,10,11
 294 -93 294 -93 250 -93 c 2,12,-1
 208 -93 l 1,13,-1
 208 -7 l 1,14,15
 120 3 120 3 85.5 64 c 128,-1,16
 51 125 51 125 51 260 c 128,-1,17
 51 395 51 395 99 452.5 c 128,-1,18
 147 510 147 510 259 510 c 0,19,20
 292 510 292 510 371 498 c 1,21,-1
 395 495 l 1,22,-1
 392 434 l 1,23,24
 312 443 312 443 274 443 c 0,25,26
 189 443 189 443 158.5 402.5 c 128,-1,27
 128 362 128 362 128 252.5 c 128,-1,28
 128 143 128 143 156.5 100 c 128,-1,29
 185 57 185 57 275 57 c 1,30,-1
 393 66 l 1,31,-1
 396 4 l 1,32,33
 303 -10 303 -10 257 -10 c 2,34,-1
 249 -10 l 1,35,-1
 249 -49 l 1,36,37
 308 -49 308 -49 334 -65 c 128,-1,38
 360 -81 360 -81 360 -127 c 0,0,1
EndSplineSet
EndChar

StartChar: egrave
Encoding: 232 232 169
Width: 505
GlyphClass: 2
Flags: W
LayerCount: 2
Fore
SplineSet
412 62 m 1,0,-1
 441 65 l 1,1,-1
 443 6 l 1,2,3
 329 -10 329 -10 248 -10 c 0,4,5
 140 -10 140 -10 95 52.5 c 128,-1,6
 50 115 50 115 50 247 c 0,7,8
 50 510 50 510 259 510 c 0,9,10
 360 510 360 510 410 453.5 c 128,-1,11
 460 397 460 397 460 276 c 1,12,-1
 456 219 l 1,13,-1
 126 219 l 1,14,15
 126 136 126 136 156 96 c 128,-1,16
 186 56 186 56 260.5 56 c 128,-1,17
 335 56 335 56 412 62 c 1,0,-1
385 279 m 1,18,19
 385 371 385 371 355.5 409 c 128,-1,20
 326 447 326 447 259.5 447 c 128,-1,21
 193 447 193 447 159.5 407 c 128,-1,22
 126 367 126 367 125 279 c 1,23,-1
 385 279 l 1,18,19
147 741 m 1,24,-1
 363 643 l 1,25,-1
 342 592 l 1,26,-1
 121 677 l 1,27,-1
 147 741 l 1,24,-1
EndSplineSet
EndChar

StartChar: eacute
Encoding: 233 233 170
Width: 505
GlyphClass: 2
Flags: W
LayerCount: 2
Fore
SplineSet
412 62 m 1,0,-1
 441 65 l 1,1,-1
 443 6 l 1,2,3
 329 -10 329 -10 248 -10 c 0,4,5
 140 -10 140 -10 95 52.5 c 128,-1,6
 50 115 50 115 50 247 c 0,7,8
 50 510 50 510 259 510 c 0,9,10
 360 510 360 510 410 453.5 c 128,-1,11
 460 397 460 397 460 276 c 1,12,-1
 456 219 l 1,13,-1
 126 219 l 1,14,15
 126 136 126 136 156 96 c 128,-1,16
 186 56 186 56 260.5 56 c 128,-1,17
 335 56 335 56 412 62 c 1,0,-1
385 279 m 1,18,19
 385 371 385 371 355.5 409 c 128,-1,20
 326 447 326 447 259.5 447 c 128,-1,21
 193 447 193 447 159.5 407 c 128,-1,22
 126 367 126 367 125 279 c 1,23,-1
 385 279 l 1,18,19
145 642 m 1,24,-1
 361 740 l 1,25,-1
 387 676 l 1,26,-1
 166 591 l 1,27,-1
 145 642 l 1,24,-1
EndSplineSet
EndChar

StartChar: ecircumflex
Encoding: 234 234 171
Width: 505
GlyphClass: 2
Flags: W
LayerCount: 2
Fore
SplineSet
412 62 m 1,0,-1
 441 65 l 1,1,-1
 443 6 l 1,2,3
 329 -10 329 -10 248 -10 c 0,4,5
 140 -10 140 -10 95 52.5 c 128,-1,6
 50 115 50 115 50 247 c 0,7,8
 50 510 50 510 259 510 c 0,9,10
 360 510 360 510 410 453.5 c 128,-1,11
 460 397 460 397 460 276 c 1,12,-1
 456 219 l 1,13,-1
 126 219 l 1,14,15
 126 136 126 136 156 96 c 128,-1,16
 186 56 186 56 260.5 56 c 128,-1,17
 335 56 335 56 412 62 c 1,0,-1
385 279 m 1,18,19
 385 371 385 371 355.5 409 c 128,-1,20
 326 447 326 447 259.5 447 c 128,-1,21
 193 447 193 447 159.5 407 c 128,-1,22
 126 367 126 367 125 279 c 1,23,-1
 385 279 l 1,18,19
112 592 m 1,24,-1
 235 732 l 1,25,-1
 286 732 l 1,26,-1
 410 592 l 1,27,-1
 335 592 l 1,28,-1
 262 679 l 1,29,-1
 187 592 l 1,30,-1
 112 592 l 1,24,-1
EndSplineSet
EndChar

StartChar: edieresis
Encoding: 235 235 172
Width: 505
GlyphClass: 2
Flags: W
LayerCount: 2
Fore
SplineSet
412 62 m 1,0,-1
 441 65 l 1,1,-1
 443 6 l 1,2,3
 329 -10 329 -10 248 -10 c 0,4,5
 140 -10 140 -10 95 52.5 c 128,-1,6
 50 115 50 115 50 247 c 0,7,8
 50 510 50 510 259 510 c 0,9,10
 360 510 360 510 410 453.5 c 128,-1,11
 460 397 460 397 460 276 c 1,12,-1
 456 219 l 1,13,-1
 126 219 l 1,14,15
 126 136 126 136 156 96 c 128,-1,16
 186 56 186 56 260.5 56 c 128,-1,17
 335 56 335 56 412 62 c 1,0,-1
385 279 m 1,18,19
 385 371 385 371 355.5 409 c 128,-1,20
 326 447 326 447 259.5 447 c 128,-1,21
 193 447 193 447 159.5 407 c 128,-1,22
 126 367 126 367 125 279 c 1,23,-1
 385 279 l 1,18,19
120 621 m 1,24,-1
 120 711 l 1,25,-1
 192 711 l 1,26,-1
 192 621 l 1,27,-1
 120 621 l 1,24,-1
320 621 m 1,28,-1
 320 711 l 1,29,-1
 393 711 l 1,30,-1
 393 621 l 1,31,-1
 320 621 l 1,28,-1
EndSplineSet
EndChar

StartChar: igrave
Encoding: 236 236 173
Width: 219
GlyphClass: 2
Flags: W
LayerCount: 2
Fore
SplineSet
72 0 m 1,0,-1
 72 500 l 1,1,-1
 147 500 l 1,2,-1
 147 0 l 1,3,-1
 72 0 l 1,0,-1
-34 740 m 1,4,-1
 182 642 l 1,5,-1
 161 591 l 1,6,-1
 -60 676 l 1,7,-1
 -34 740 l 1,4,-1
EndSplineSet
EndChar

StartChar: iacute
Encoding: 237 237 174
Width: 219
GlyphClass: 2
Flags: W
LayerCount: 2
Fore
SplineSet
38 642 m 1,0,-1
 254 740 l 1,1,-1
 280 676 l 1,2,-1
 59 591 l 1,3,-1
 38 642 l 1,0,-1
72 500 m 1,4,-1
 147 500 l 1,5,-1
 147 0 l 1,6,-1
 72 0 l 1,7,-1
 72 500 l 1,4,-1
EndSplineSet
EndChar

StartChar: icircumflex
Encoding: 238 238 175
Width: 219
GlyphClass: 2
Flags: W
LayerCount: 2
Fore
SplineSet
72 500 m 1,0,-1
 147 500 l 1,1,-1
 147 0 l 1,2,-1
 72 0 l 1,3,-1
 72 500 l 1,0,-1
-42 592 m 1,4,-1
 81 732 l 1,5,-1
 132 732 l 1,6,-1
 256 592 l 1,7,-1
 181 592 l 1,8,-1
 108 679 l 1,9,-1
 33 592 l 1,10,-1
 -42 592 l 1,4,-1
EndSplineSet
EndChar

StartChar: idieresis
Encoding: 239 239 176
Width: 219
GlyphClass: 2
Flags: W
LayerCount: 2
Fore
SplineSet
72 500 m 1,0,-1
 147 500 l 1,1,-1
 147 0 l 1,2,-1
 72 0 l 1,3,-1
 72 500 l 1,0,-1
-31 621 m 1,4,-1
 -31 711 l 1,5,-1
 41 711 l 1,6,-1
 41 621 l 1,7,-1
 -31 621 l 1,4,-1
169 621 m 1,8,-1
 169 711 l 1,9,-1
 242 711 l 1,10,-1
 242 621 l 1,11,-1
 169 621 l 1,8,-1
EndSplineSet
EndChar

StartChar: eth
Encoding: 240 240 177
Width: 548
GlyphClass: 2
Flags: W
LayerCount: 2
Fore
SplineSet
342 643 m 1,0,1
 496 545 496 545 496 351.5 c 128,-1,2
 496 158 496 158 442 74.5 c 128,-1,3
 388 -9 388 -9 265 -9 c 0,4,5
 158 -9 158 -9 100 48.5 c 128,-1,6
 42 106 42 106 42 209.5 c 128,-1,7
 42 313 42 313 97 371.5 c 128,-1,8
 152 430 152 430 252 430 c 0,9,10
 317 430 317 430 392 403 c 2,11,-1
 417 394 l 1,12,13
 410 524 410 524 280 601 c 1,14,-1
 158 520 l 1,15,-1
 125 567 l 1,16,-1
 220 631 l 1,17,18
 166 654 166 654 96 672 c 1,19,-1
 111 728 l 1,20,21
 211 708 211 708 284 674 c 1,22,-1
 385 742 l 1,23,-1
 419 695 l 1,24,-1
 342 643 l 1,0,1
418 327 m 1,25,26
 328 363 328 363 260 363 c 128,-1,27
 192 363 192 363 156.5 321.5 c 128,-1,28
 121 280 121 280 121 210 c 128,-1,29
 121 140 121 140 157.5 99.5 c 128,-1,30
 194 59 194 59 270.5 59 c 128,-1,31
 347 59 347 59 382 118 c 128,-1,32
 417 177 417 177 418 327 c 1,25,26
EndSplineSet
EndChar

StartChar: ntilde
Encoding: 241 241 178
Width: 537
GlyphClass: 2
Flags: W
LayerCount: 2
Fore
SplineSet
72 0 m 1,0,-1
 72 500 l 1,1,-1
 146 500 l 1,2,-1
 146 465 l 1,3,-1
 168 476 l 2,4,5
 191 488 191 488 229.5 499 c 128,-1,6
 268 510 268 510 301 510 c 0,7,8
 401 510 401 510 435.5 456 c 128,-1,9
 470 402 470 402 470 264 c 2,10,11
 470 264 470 264 470 0 c 1,12,-1
 396 0 l 1,13,-1
 396 262 l 2,14,15
 396 366 396 366 375.5 404.5 c 128,-1,16
 355 443 355 443 285.5 443 c 128,-1,17
 216 443 216 443 147 406 c 1,18,-1
 147 0 l 1,19,-1
 72 0 l 1,0,-1
349 612 m 0,20,21
 328 612 328 612 276.5 635.5 c 128,-1,22
 225 659 225 659 212 659 c 0,23,24
 189 659 189 659 150 629 c 2,25,-1
 137 619 l 1,26,-1
 119 667 l 1,27,28
 169 719 169 719 210 719 c 0,29,30
 231 719 231 719 283 696 c 128,-1,31
 335 673 335 673 346 673 c 0,32,33
 368 673 368 673 406 702 c 2,34,-1
 418 711 l 1,35,-1
 435 663 l 1,36,37
 389 612 389 612 349 612 c 0,20,21
EndSplineSet
EndChar

StartChar: ograve
Encoding: 242 242 179
Width: 528
GlyphClass: 2
Flags: W
LayerCount: 2
Fore
SplineSet
99 449 m 128,-1,1
 148 510 148 510 264.5 510 c 128,-1,2
 381 510 381 510 429.5 449 c 128,-1,3
 478 388 478 388 478 251 c 128,-1,4
 478 114 478 114 432 52 c 128,-1,5
 386 -10 386 -10 264 -10 c 128,-1,6
 142 -10 142 -10 96 52 c 128,-1,7
 50 114 50 114 50 251 c 128,-1,0
 50 388 50 388 99 449 c 128,-1,1
153.5 99 m 128,-1,9
 180 55 180 55 264.5 55 c 128,-1,10
 349 55 349 55 375 98.5 c 128,-1,11
 401 142 401 142 401 252 c 128,-1,12
 401 362 401 362 372 403.5 c 128,-1,13
 343 445 343 445 264.5 445 c 128,-1,14
 186 445 186 445 156.5 403.5 c 128,-1,15
 127 362 127 362 127 252.5 c 128,-1,8
 127 143 127 143 153.5 99 c 128,-1,9
167 740 m 1,16,-1
 383 642 l 1,17,-1
 362 591 l 1,18,-1
 141 676 l 1,19,-1
 167 740 l 1,16,-1
EndSplineSet
EndChar

StartChar: oacute
Encoding: 243 243 180
Width: 528
GlyphClass: 2
Flags: W
LayerCount: 2
Fore
SplineSet
429.5 449 m 128,-1,1
 478 388 478 388 478 251 c 128,-1,2
 478 114 478 114 432 52 c 128,-1,3
 386 -10 386 -10 264 -10 c 128,-1,4
 142 -10 142 -10 96 52 c 128,-1,5
 50 114 50 114 50 251 c 128,-1,6
 50 388 50 388 99 449 c 128,-1,7
 148 510 148 510 264.5 510 c 128,-1,0
 381 510 381 510 429.5 449 c 128,-1,1
375 98.5 m 128,-1,9
 401 142 401 142 401 252 c 128,-1,10
 401 362 401 362 372 403.5 c 128,-1,11
 343 445 343 445 264.5 445 c 128,-1,12
 186 445 186 445 156.5 403.5 c 128,-1,13
 127 362 127 362 127 252.5 c 128,-1,14
 127 143 127 143 153.5 99 c 128,-1,15
 180 55 180 55 264.5 55 c 128,-1,8
 349 55 349 55 375 98.5 c 128,-1,9
154 642 m 1,16,-1
 370 740 l 1,17,-1
 396 676 l 1,18,-1
 175 591 l 1,19,-1
 154 642 l 1,16,-1
EndSplineSet
EndChar

StartChar: ocircumflex
Encoding: 244 244 181
Width: 528
GlyphClass: 2
Flags: W
LayerCount: 2
Fore
SplineSet
429.5 449 m 128,-1,1
 478 388 478 388 478 251 c 128,-1,2
 478 114 478 114 432 52 c 128,-1,3
 386 -10 386 -10 264 -10 c 128,-1,4
 142 -10 142 -10 96 52 c 128,-1,5
 50 114 50 114 50 251 c 128,-1,6
 50 388 50 388 99 449 c 128,-1,7
 148 510 148 510 264.5 510 c 128,-1,0
 381 510 381 510 429.5 449 c 128,-1,1
375 98.5 m 128,-1,9
 401 142 401 142 401 252 c 128,-1,10
 401 362 401 362 372 403.5 c 128,-1,11
 343 445 343 445 264.5 445 c 128,-1,12
 186 445 186 445 156.5 403.5 c 128,-1,13
 127 362 127 362 127 252.5 c 128,-1,14
 127 143 127 143 153.5 99 c 128,-1,15
 180 55 180 55 264.5 55 c 128,-1,8
 349 55 349 55 375 98.5 c 128,-1,9
113 592 m 1,16,-1
 236 732 l 1,17,-1
 287 732 l 1,18,-1
 411 592 l 1,19,-1
 336 592 l 1,20,-1
 263 679 l 1,21,-1
 188 592 l 1,22,-1
 113 592 l 1,16,-1
EndSplineSet
EndChar

StartChar: otilde
Encoding: 245 245 182
Width: 528
GlyphClass: 2
Flags: W
LayerCount: 2
Fore
SplineSet
429.5 449 m 128,-1,1
 478 388 478 388 478 251 c 128,-1,2
 478 114 478 114 432 52 c 128,-1,3
 386 -10 386 -10 264 -10 c 128,-1,4
 142 -10 142 -10 96 52 c 128,-1,5
 50 114 50 114 50 251 c 128,-1,6
 50 388 50 388 99 449 c 128,-1,7
 148 510 148 510 264.5 510 c 128,-1,0
 381 510 381 510 429.5 449 c 128,-1,1
375 98.5 m 128,-1,9
 401 142 401 142 401 252 c 128,-1,10
 401 362 401 362 372 403.5 c 128,-1,11
 343 445 343 445 264.5 445 c 128,-1,12
 186 445 186 445 156.5 403.5 c 128,-1,13
 127 362 127 362 127 252.5 c 128,-1,14
 127 143 127 143 153.5 99 c 128,-1,15
 180 55 180 55 264.5 55 c 128,-1,8
 349 55 349 55 375 98.5 c 128,-1,9
335 612 m 0,16,17
 314 612 314 612 262.5 635.5 c 128,-1,18
 211 659 211 659 198 659 c 0,19,20
 175 659 175 659 136 629 c 2,21,-1
 123 619 l 1,22,-1
 105 667 l 1,23,24
 155 719 155 719 196 719 c 0,25,26
 217 719 217 719 269 696 c 128,-1,27
 321 673 321 673 332 673 c 0,28,29
 354 673 354 673 392 702 c 2,30,-1
 404 711 l 1,31,-1
 421 663 l 1,32,33
 375 612 375 612 335 612 c 0,16,17
EndSplineSet
EndChar

StartChar: odieresis
Encoding: 246 246 183
Width: 528
GlyphClass: 2
Flags: W
LayerCount: 2
Fore
SplineSet
429.5 449 m 128,-1,1
 478 388 478 388 478 251 c 128,-1,2
 478 114 478 114 432 52 c 128,-1,3
 386 -10 386 -10 264 -10 c 128,-1,4
 142 -10 142 -10 96 52 c 128,-1,5
 50 114 50 114 50 251 c 128,-1,6
 50 388 50 388 99 449 c 128,-1,7
 148 510 148 510 264.5 510 c 128,-1,0
 381 510 381 510 429.5 449 c 128,-1,1
375 98.5 m 128,-1,9
 401 142 401 142 401 252 c 128,-1,10
 401 362 401 362 372 403.5 c 128,-1,11
 343 445 343 445 264.5 445 c 128,-1,12
 186 445 186 445 156.5 403.5 c 128,-1,13
 127 362 127 362 127 252.5 c 128,-1,14
 127 143 127 143 153.5 99 c 128,-1,15
 180 55 180 55 264.5 55 c 128,-1,8
 349 55 349 55 375 98.5 c 128,-1,9
125 621 m 1,16,-1
 125 711 l 1,17,-1
 197 711 l 1,18,-1
 197 621 l 1,19,-1
 125 621 l 1,16,-1
325 621 m 1,20,-1
 325 711 l 1,21,-1
 398 711 l 1,22,-1
 398 621 l 1,23,-1
 325 621 l 1,20,-1
EndSplineSet
EndChar

StartChar: divide
Encoding: 247 247 184
Width: 560
GlyphClass: 2
Flags: W
LayerCount: 2
Fore
SplineSet
120 281 m 1,0,-1
 120 354 l 1,1,-1
 177 354 l 1,2,-1
 177 402 l 1,3,-1
 383 402 l 1,4,-1
 383 354 l 1,5,-1
 439 354 l 1,6,-1
 439 281 l 1,7,-1
 120 281 l 1,0,-1
242 30 m 1,8,-1
 242 131 l 1,9,-1
 317 131 l 1,10,-1
 317 30 l 1,11,-1
 242 30 l 1,8,-1
EndSplineSet
EndChar

StartChar: oslash
Encoding: 248 248 185
Width: 528
GlyphClass: 2
Flags: W
LayerCount: 2
Fore
SplineSet
264 510 m 0,0,1
 303 510 303 510 338 502 c 1,2,-1
 381 606 l 1,3,-1
 431 587 l 1,4,-1
 388 483 l 1,5,6
 478 433 478 433 478 256 c 0,7,8
 478 114 478 114 432 52 c 128,-1,9
 386 -10 386 -10 264 -10 c 0,10,11
 223 -10 223 -10 188 -2 c 1,12,-1
 145 -112 l 1,13,-1
 95 -94 l 1,14,-1
 139 15 l 1,15,16
 90 42 90 42 70 100 c 128,-1,17
 50 158 50 158 50 256 c 0,18,19
 50 388 50 388 99 449 c 128,-1,20
 148 510 148 510 264 510 c 0,0,1
264 445 m 0,21,22
 186 445 186 445 156.5 403.5 c 128,-1,23
 127 362 127 362 127 272.5 c 128,-1,24
 127 183 127 183 135.5 142 c 128,-1,25
 144 101 144 101 169 80 c 1,26,-1
 314 439 l 1,27,28
 293 445 293 445 264 445 c 0,21,22
264 55 m 0,29,30
 349 55 349 55 375 98.5 c 128,-1,31
 401 142 401 142 401 260.5 c 128,-1,32
 401 379 401 379 359 417 c 1,33,-1
 213 60 l 1,34,35
 231 55 231 55 264 55 c 0,29,30
EndSplineSet
EndChar

StartChar: ugrave
Encoding: 249 249 186
Width: 531
GlyphClass: 2
Flags: W
LayerCount: 2
Fore
SplineSet
384 500 m 1,0,-1
 459 500 l 1,1,-1
 459 0 l 1,2,-1
 384 0 l 1,3,-1
 384 35 l 1,4,5
 309 -10 309 -10 236 -10 c 0,6,7
 134 -10 134 -10 100.5 43 c 128,-1,8
 67 96 67 96 67 239 c 2,9,-1
 67 500 l 1,10,-1
 142 500 l 1,11,-1
 142 240 l 2,12,13
 142 131 142 131 161 94 c 128,-1,14
 180 57 180 57 247 57 c 0,15,16
 280 57 280 57 314 66.5 c 128,-1,17
 348 76 348 76 366 85 c 2,18,-1
 384 94 l 1,19,-1
 384 500 l 1,0,-1
140 740 m 1,20,-1
 356 642 l 1,21,-1
 335 591 l 1,22,-1
 114 676 l 1,23,-1
 140 740 l 1,20,-1
EndSplineSet
EndChar

StartChar: uacute
Encoding: 250 250 187
Width: 531
GlyphClass: 2
Flags: W
LayerCount: 2
Fore
SplineSet
459 500 m 1,0,-1
 459 0 l 1,1,-1
 384 0 l 1,2,-1
 384 35 l 1,3,-1
 363 24 l 2,4,5
 342 12 342 12 305 1 c 128,-1,6
 268 -10 268 -10 236 -10 c 0,7,8
 134 -10 134 -10 100.5 43 c 128,-1,9
 67 96 67 96 67 239 c 2,10,11
 67 239 67 239 67 500 c 1,12,-1
 142 500 l 1,13,-1
 142 240 l 2,14,15
 142 131 142 131 161 94 c 128,-1,16
 180 57 180 57 250.5 57 c 128,-1,17
 321 57 321 57 384 94 c 1,18,-1
 384 500 l 1,19,-1
 459 500 l 1,0,-1
155 642 m 1,20,-1
 371 740 l 1,21,-1
 397 676 l 1,22,-1
 176 591 l 1,23,-1
 155 642 l 1,20,-1
EndSplineSet
EndChar

StartChar: ucircumflex
Encoding: 251 251 188
Width: 531
GlyphClass: 2
Flags: W
LayerCount: 2
Fore
SplineSet
459 500 m 1,0,-1
 459 0 l 1,1,-1
 384 0 l 1,2,-1
 384 35 l 1,3,-1
 363 24 l 2,4,5
 342 12 342 12 305 1 c 128,-1,6
 268 -10 268 -10 236 -10 c 0,7,8
 134 -10 134 -10 100.5 43 c 128,-1,9
 67 96 67 96 67 239 c 2,10,11
 67 239 67 239 67 500 c 1,12,-1
 142 500 l 1,13,-1
 142 240 l 2,14,15
 142 131 142 131 161 94 c 128,-1,16
 180 57 180 57 250.5 57 c 128,-1,17
 321 57 321 57 384 94 c 1,18,-1
 384 500 l 1,19,-1
 459 500 l 1,0,-1
105 592 m 1,20,-1
 228 732 l 1,21,-1
 279 732 l 1,22,-1
 403 592 l 1,23,-1
 328 592 l 1,24,-1
 255 679 l 1,25,-1
 180 592 l 1,26,-1
 105 592 l 1,20,-1
EndSplineSet
EndChar

StartChar: udieresis
Encoding: 252 252 189
Width: 531
GlyphClass: 2
Flags: W
LayerCount: 2
Fore
SplineSet
459 500 m 1,0,-1
 459 0 l 1,1,-1
 384 0 l 1,2,-1
 384 35 l 1,3,-1
 363 24 l 2,4,5
 342 12 342 12 305 1 c 128,-1,6
 268 -10 268 -10 236 -10 c 0,7,8
 134 -10 134 -10 100.5 43 c 128,-1,9
 67 96 67 96 67 239 c 2,10,11
 67 239 67 239 67 500 c 1,12,-1
 142 500 l 1,13,-1
 142 240 l 2,14,15
 142 131 142 131 161 94 c 128,-1,16
 180 57 180 57 250.5 57 c 128,-1,17
 321 57 321 57 384 94 c 1,18,-1
 384 500 l 1,19,-1
 459 500 l 1,0,-1
132 621 m 1,20,-1
 132 711 l 1,21,-1
 204 711 l 1,22,-1
 204 621 l 1,23,-1
 132 621 l 1,20,-1
332 621 m 1,24,-1
 332 711 l 1,25,-1
 405 711 l 1,26,-1
 405 621 l 1,27,-1
 332 621 l 1,24,-1
EndSplineSet
EndChar

StartChar: yacute
Encoding: 253 253 190
Width: 483
GlyphClass: 2
Flags: W
LayerCount: 2
Fore
SplineSet
25 500 m 1,0,-1
 100 500 l 1,1,-1
 225 65 l 1,2,-1
 258 65 l 1,3,-1
 384 500 l 1,4,-1
 459 500 l 1,5,-1
 251 -222 l 1,6,-1
 176 -222 l 1,7,-1
 241 0 l 1,8,-1
 167 0 l 1,9,-1
 25 500 l 1,0,-1
154 642 m 1,10,-1
 370 740 l 1,11,-1
 396 676 l 1,12,-1
 175 591 l 1,13,-1
 154 642 l 1,10,-1
EndSplineSet
EndChar

StartChar: thorn
Encoding: 254 254 191
Width: 527
GlyphClass: 2
Flags: W
LayerCount: 2
Fore
SplineSet
244 55 m 0,0,1
 338 55 338 55 368.5 100.5 c 128,-1,2
 399 146 399 146 399 251.5 c 128,-1,3
 399 357 399 357 374.5 400 c 128,-1,4
 350 443 350 443 286 443 c 0,5,6
 228 443 228 443 166 421 c 2,7,-1
 147 414 l 1,8,-1
 147 61 l 1,9,10
 212 55 212 55 244 55 c 0,0,1
293 510 m 0,11,12
 394 510 394 510 435 452.5 c 128,-1,13
 476 395 476 395 476 252 c 128,-1,14
 476 109 476 109 426.5 49.5 c 128,-1,15
 377 -10 377 -10 248 -10 c 1,16,-1
 147 -3 l 1,17,-1
 147 -222 l 1,18,-1
 72 -222 l 1,19,-1
 72 718 l 1,20,-1
 147 718 l 1,21,-1
 147 475 l 1,22,23
 222 510 222 510 293 510 c 0,11,12
EndSplineSet
EndChar

StartChar: ydieresis
Encoding: 255 255 192
Width: 483
GlyphClass: 2
Flags: W
LayerCount: 2
Fore
SplineSet
25 500 m 1,0,-1
 100 500 l 1,1,-1
 225 65 l 1,2,-1
 258 65 l 1,3,-1
 384 500 l 1,4,-1
 459 500 l 1,5,-1
 251 -222 l 1,6,-1
 176 -222 l 1,7,-1
 241 0 l 1,8,-1
 167 0 l 1,9,-1
 25 500 l 1,0,-1
104 621 m 1,10,-1
 104 711 l 1,11,-1
 176 711 l 1,12,-1
 176 621 l 1,13,-1
 104 621 l 1,10,-1
304 621 m 1,14,-1
 304 711 l 1,15,-1
 377 711 l 1,16,-1
 377 621 l 1,17,-1
 304 621 l 1,14,-1
EndSplineSet
EndChar

StartChar: Amacron
Encoding: 256 256 193
Width: 596
GlyphClass: 2
Flags: W
LayerCount: 2
Fore
SplineSet
24 0 m 1,0,-1
 214 692 l 1,1,-1
 382 692 l 1,2,-1
 572 0 l 1,3,-1
 496 0 l 1,4,-1
 446 178 l 1,5,-1
 150 178 l 1,6,-1
 100 0 l 1,7,-1
 24 0 l 1,0,-1
272 626 m 1,8,-1
 167 247 l 1,9,-1
 429 247 l 1,10,-1
 324 626 l 1,11,-1
 272 626 l 1,8,-1
141 812 m 1,12,-1
 141 870 l 1,13,-1
 452 870 l 1,14,-1
 452 812 l 1,15,-1
 141 812 l 1,12,-1
EndSplineSet
Position2: "'cpsp' Capital Spacing in Latin lookup 0 subtable" dx=5 dy=0 dh=10 dv=0
EndChar

StartChar: amacron
Encoding: 257 257 194
Width: 501
GlyphClass: 2
Flags: W
LayerCount: 2
Fore
SplineSet
425 349 m 2,0,-1
 425 93 l 1,1,2
 428 56 428 56 483 49 c 1,3,-1
 480 -10 l 1,4,5
 401 -10 401 -10 361 30 c 1,6,7
 271 -10 271 -10 181 -10 c 0,8,9
 112 -10 112 -10 76 29 c 128,-1,10
 40 68 40 68 40 141 c 128,-1,11
 40 214 40 214 77 248.5 c 128,-1,12
 114 283 114 283 193 291 c 2,13,-1
 350 306 l 1,14,-1
 350 349 l 2,15,16
 350 400 350 400 328 422 c 128,-1,17
 306 444 306 444 268 444 c 0,18,19
 188 444 188 444 102 434 c 1,20,-1
 71 431 l 1,21,-1
 68 488 l 1,22,23
 178 510 178 510 263 510 c 128,-1,24
 348 510 348 510 386.5 471 c 128,-1,25
 425 432 425 432 425 349 c 2,0,-1
117 145 m 0,26,27
 117 53 117 53 193 53 c 0,28,29
 261 53 261 53 327 76 c 2,30,-1
 350 84 l 1,31,-1
 350 249 l 1,32,-1
 202 235 l 2,33,34
 157 231 157 231 137 209 c 128,-1,35
 117 187 117 187 117 145 c 0,26,27
112 624 m 1,36,-1
 112 683 l 1,37,-1
 387 683 l 1,38,-1
 387 624 l 1,39,-1
 112 624 l 1,36,-1
EndSplineSet
EndChar

StartChar: Abreve
Encoding: 258 258 195
Width: 596
GlyphClass: 2
Flags: W
LayerCount: 2
Fore
SplineSet
24 0 m 1,0,-1
 214 692 l 1,1,-1
 382 692 l 1,2,-1
 572 0 l 1,3,-1
 496 0 l 1,4,-1
 446 178 l 1,5,-1
 150 178 l 1,6,-1
 100 0 l 1,7,-1
 24 0 l 1,0,-1
272 626 m 1,8,-1
 167 247 l 1,9,-1
 429 247 l 1,10,-1
 324 626 l 1,11,-1
 272 626 l 1,8,-1
234.5 864 m 128,-1,13
 260 843 260 843 296.5 843 c 128,-1,14
 333 843 333 843 358 864 c 128,-1,15
 383 885 383 885 384 918 c 1,16,-1
 454 918 l 1,17,18
 451 859 451 859 408 823 c 128,-1,19
 365 787 365 787 296 787 c 128,-1,20
 227 787 227 787 184.5 823 c 128,-1,21
 142 859 142 859 139 918 c 1,22,-1
 208 918 l 1,23,12
 209 885 209 885 234.5 864 c 128,-1,13
EndSplineSet
Position2: "'cpsp' Capital Spacing in Latin lookup 0 subtable" dx=5 dy=0 dh=10 dv=0
EndChar

StartChar: abreve
Encoding: 259 259 196
Width: 503
GlyphClass: 2
Flags: W
LayerCount: 2
Fore
SplineSet
425 347 m 2,0,-1
 425 101 l 1,1,2
 426 62 426 62 482 55 c 1,3,-1
 480 -10 l 1,4,5
 398 -10 398 -10 361 28 c 1,6,-1
 336 18 l 2,7,8
 311 9 311 9 265 -0.5 c 128,-1,9
 219 -10 219 -10 176 -10 c 0,10,11
 111 -10 111 -10 75.5 30 c 128,-1,12
 40 70 40 70 40 142 c 128,-1,13
 40 214 40 214 77 249 c 128,-1,14
 114 284 114 284 193 291 c 2,15,16
 193 291 193 291 350 306 c 1,17,-1
 350 347 l 2,18,19
 350 438 350 438 263 438 c 0,20,21
 190 438 190 438 72 425 c 1,22,-1
 69 490 l 1,23,-1
 101 495 l 2,24,25
 197 510 197 510 267 510 c 0,26,27
 347 510 347 510 386 470.5 c 128,-1,28
 425 431 425 431 425 347 c 2,0,-1
188 55 m 0,29,30
 263 55 263 55 350 85 c 1,31,-1
 350 245 l 1,32,-1
 202 233 l 1,33,34
 117 225 117 225 117 145 c 0,35,36
 117 102 117 102 135.5 78.5 c 128,-1,37
 154 55 154 55 188 55 c 0,29,30
192.5 678.5 m 128,-1,39
 214 658 214 658 252.5 658 c 128,-1,40
 291 658 291 658 313 678.5 c 128,-1,41
 335 699 335 699 336 733 c 1,42,-1
 413 733 l 1,43,44
 410 670 410 670 367.5 630.5 c 128,-1,45
 325 591 325 591 252.5 591 c 128,-1,46
 180 591 180 591 137.5 630.5 c 128,-1,47
 95 670 95 670 92 733 c 1,48,-1
 169 733 l 1,49,38
 171 699 171 699 192.5 678.5 c 128,-1,39
EndSplineSet
EndChar

StartChar: Aogonek
Encoding: 260 260 197
Width: 596
GlyphClass: 2
Flags: W
LayerCount: 2
Fore
SplineSet
494 -102 m 0,0,1
 494 -121 494 -121 505.5 -133 c 128,-1,2
 517 -145 517 -145 535 -145 c 1,3,-1
 585 -139 l 1,4,-1
 592 -197 l 1,5,6
 547 -206 547 -206 510 -206 c 128,-1,7
 473 -206 473 -206 447 -182.5 c 128,-1,8
 421 -159 421 -159 421 -123.5 c 128,-1,9
 421 -88 421 -88 446 -54.5 c 128,-1,10
 471 -21 471 -21 496 1 c 1,11,-1
 446 178 l 1,12,-1
 150 178 l 1,13,-1
 100 0 l 1,14,-1
 24 0 l 1,15,-1
 214 692 l 1,16,-1
 382 692 l 1,17,-1
 572 0 l 1,18,-1
 564 0 l 1,19,20
 494 -70 494 -70 494 -102 c 0,0,1
272 626 m 1,21,-1
 167 247 l 1,22,-1
 429 247 l 1,23,-1
 324 626 l 1,24,-1
 272 626 l 1,21,-1
EndSplineSet
Position2: "'cpsp' Capital Spacing in Latin lookup 0 subtable" dx=5 dy=0 dh=10 dv=0
EndChar

StartChar: aogonek
Encoding: 261 261 198
Width: 500
GlyphClass: 2
Flags: W
LayerCount: 2
Fore
SplineSet
425 349 m 2,0,-1
 425 93 l 1,1,2
 428 56 428 56 483 49 c 1,3,-1
 480 -10 l 1,4,5
 468 -10 468 -10 446 -8 c 1,6,7
 385 -72 385 -72 385 -102 c 0,8,9
 385 -121 385 -121 396.5 -133 c 128,-1,10
 408 -145 408 -145 426 -145 c 1,11,-1
 476 -139 l 1,12,-1
 483 -197 l 1,13,14
 438 -206 438 -206 401 -206 c 128,-1,15
 364 -206 364 -206 338 -182.5 c 128,-1,16
 312 -159 312 -159 312 -127 c 128,-1,17
 312 -95 312 -95 331 -65 c 0,18,19
 358 -22 358 -22 393 6 c 1,20,21
 377 14 377 14 361 30 c 1,22,23
 271 -10 271 -10 181 -10 c 0,24,25
 112 -10 112 -10 76 29 c 128,-1,26
 40 68 40 68 40 141 c 128,-1,27
 40 214 40 214 77 248.5 c 128,-1,28
 114 283 114 283 193 291 c 2,29,-1
 350 306 l 1,30,-1
 350 349 l 2,31,32
 350 400 350 400 328 422 c 128,-1,33
 306 444 306 444 268 444 c 0,34,35
 188 444 188 444 102 434 c 1,36,-1
 71 431 l 1,37,-1
 68 488 l 1,38,39
 178 510 178 510 263 510 c 128,-1,40
 348 510 348 510 386.5 471 c 128,-1,41
 425 432 425 432 425 349 c 2,0,-1
117 145 m 0,42,43
 117 53 117 53 193 53 c 0,44,45
 261 53 261 53 327 76 c 2,46,-1
 350 84 l 1,47,-1
 350 249 l 1,48,-1
 202 235 l 2,49,50
 157 231 157 231 137 209 c 128,-1,51
 117 187 117 187 117 145 c 0,42,43
EndSplineSet
EndChar

StartChar: Cacute
Encoding: 262 262 199
Width: 544
GlyphClass: 2
Flags: W
LayerCount: 2
Fore
SplineSet
503 11 m 1,0,1
 400 -10 400 -10 318 -10 c 128,-1,2
 236 -10 236 -10 185.5 12.5 c 128,-1,3
 135 35 135 35 107.5 82.5 c 128,-1,4
 80 130 80 130 69.5 191.5 c 128,-1,5
 59 253 59 253 59 345 c 128,-1,6
 59 437 59 437 69.5 499.5 c 128,-1,7
 80 562 80 562 107.5 610 c 128,-1,8
 135 658 135 658 185 680 c 128,-1,9
 235 702 235 702 315 702 c 128,-1,10
 395 702 395 702 503 680 c 1,11,-1
 500 615 l 1,12,13
 399 633 399 633 320 633 c 0,14,15
 210 633 210 633 174.5 567.5 c 128,-1,16
 139 502 139 502 139 344 c 0,17,18
 139 265 139 265 145.5 217 c 128,-1,19
 152 169 152 169 171 130.5 c 128,-1,20
 190 92 190 92 226.5 75.5 c 128,-1,21
 263 59 263 59 333.5 59 c 128,-1,22
 404 59 404 59 500 77 c 1,23,-1
 503 11 l 1,0,1
181 831 m 1,24,-1
 397 931 l 1,25,-1
 423 865 l 1,26,-1
 204 778 l 1,27,-1
 181 831 l 1,24,-1
EndSplineSet
Position2: "'cpsp' Capital Spacing in Latin lookup 0 subtable" dx=5 dy=0 dh=10 dv=0
EndChar

StartChar: cacute
Encoding: 263 263 200
Width: 436
GlyphClass: 2
Flags: W
LayerCount: 2
Fore
SplineSet
259 510 m 0,0,1
 292 510 292 510 371 498 c 1,2,-1
 395 495 l 1,3,-1
 392 434 l 1,4,5
 312 443 312 443 274 443 c 0,6,7
 189 443 189 443 158.5 402.5 c 128,-1,8
 128 362 128 362 128 252.5 c 128,-1,9
 128 143 128 143 156.5 100 c 128,-1,10
 185 57 185 57 275 57 c 1,11,-1
 393 66 l 1,12,-1
 396 4 l 1,13,14
 303 -10 303 -10 257 -10 c 0,15,16
 140 -10 140 -10 95.5 50 c 128,-1,17
 51 110 51 110 51 252.5 c 128,-1,18
 51 395 51 395 99 452.5 c 128,-1,19
 147 510 147 510 259 510 c 0,0,1
126 642 m 1,20,-1
 342 740 l 1,21,-1
 368 676 l 1,22,-1
 147 591 l 1,23,-1
 126 642 l 1,20,-1
EndSplineSet
EndChar

StartChar: Ccircumflex
Encoding: 264 264 201
Width: 544
GlyphClass: 2
Flags: W
LayerCount: 2
Fore
SplineSet
503 11 m 1,0,1
 400 -10 400 -10 318 -10 c 128,-1,2
 236 -10 236 -10 185.5 12.5 c 128,-1,3
 135 35 135 35 107.5 82.5 c 128,-1,4
 80 130 80 130 69.5 191.5 c 128,-1,5
 59 253 59 253 59 345 c 128,-1,6
 59 437 59 437 69.5 499.5 c 128,-1,7
 80 562 80 562 107.5 610 c 128,-1,8
 135 658 135 658 185 680 c 128,-1,9
 235 702 235 702 315 702 c 128,-1,10
 395 702 395 702 503 680 c 1,11,-1
 500 615 l 1,12,13
 399 633 399 633 320 633 c 0,14,15
 210 633 210 633 174.5 567.5 c 128,-1,16
 139 502 139 502 139 344 c 0,17,18
 139 265 139 265 145.5 217 c 128,-1,19
 152 169 152 169 171 130.5 c 128,-1,20
 190 92 190 92 226.5 75.5 c 128,-1,21
 263 59 263 59 333.5 59 c 128,-1,22
 404 59 404 59 500 77 c 1,23,-1
 503 11 l 1,0,1
144 791 m 1,24,-1
 278 926 l 1,25,-1
 343 926 l 1,26,-1
 477 791 l 1,27,-1
 393 791 l 1,28,-1
 311 871 l 1,29,-1
 228 791 l 1,30,-1
 144 791 l 1,24,-1
EndSplineSet
Position2: "'cpsp' Capital Spacing in Latin lookup 0 subtable" dx=5 dy=0 dh=10 dv=0
EndChar

StartChar: ccircumflex
Encoding: 265 265 202
Width: 436
GlyphClass: 2
Flags: W
LayerCount: 2
Fore
SplineSet
259 510 m 0,0,1
 292 510 292 510 371 498 c 1,2,-1
 395 495 l 1,3,-1
 392 434 l 1,4,5
 312 443 312 443 274 443 c 0,6,7
 189 443 189 443 158.5 402.5 c 128,-1,8
 128 362 128 362 128 252.5 c 128,-1,9
 128 143 128 143 156.5 100 c 128,-1,10
 185 57 185 57 275 57 c 1,11,-1
 393 66 l 1,12,-1
 396 4 l 1,13,14
 303 -10 303 -10 257 -10 c 0,15,16
 140 -10 140 -10 95.5 50 c 128,-1,17
 51 110 51 110 51 252.5 c 128,-1,18
 51 395 51 395 99 452.5 c 128,-1,19
 147 510 147 510 259 510 c 0,0,1
83 592 m 1,20,-1
 206 732 l 1,21,-1
 257 732 l 1,22,-1
 381 592 l 1,23,-1
 306 592 l 1,24,-1
 233 679 l 1,25,-1
 158 592 l 1,26,-1
 83 592 l 1,20,-1
EndSplineSet
EndChar

StartChar: Cdotaccent
Encoding: 266 266 203
Width: 544
GlyphClass: 2
Flags: W
LayerCount: 2
Fore
SplineSet
503 11 m 1,0,1
 400 -10 400 -10 318 -10 c 128,-1,2
 236 -10 236 -10 185.5 12.5 c 128,-1,3
 135 35 135 35 107.5 82.5 c 128,-1,4
 80 130 80 130 69.5 191.5 c 128,-1,5
 59 253 59 253 59 345 c 128,-1,6
 59 437 59 437 69.5 499.5 c 128,-1,7
 80 562 80 562 107.5 610 c 128,-1,8
 135 658 135 658 185 680 c 128,-1,9
 235 702 235 702 315 702 c 128,-1,10
 395 702 395 702 503 680 c 1,11,-1
 500 615 l 1,12,13
 399 633 399 633 320 633 c 0,14,15
 210 633 210 633 174.5 567.5 c 128,-1,16
 139 502 139 502 139 344 c 0,17,18
 139 265 139 265 145.5 217 c 128,-1,19
 152 169 152 169 171 130.5 c 128,-1,20
 190 92 190 92 226.5 75.5 c 128,-1,21
 263 59 263 59 333.5 59 c 128,-1,22
 404 59 404 59 500 77 c 1,23,-1
 503 11 l 1,0,1
255 798 m 1,24,-1
 255 885 l 1,25,-1
 329 885 l 1,26,-1
 329 798 l 1,27,-1
 255 798 l 1,24,-1
EndSplineSet
Position2: "'cpsp' Capital Spacing in Latin lookup 0 subtable" dx=5 dy=0 dh=10 dv=0
EndChar

StartChar: cdotaccent
Encoding: 267 267 204
Width: 436
GlyphClass: 2
Flags: W
LayerCount: 2
Fore
SplineSet
259 510 m 0,0,1
 292 510 292 510 371 498 c 1,2,-1
 395 495 l 1,3,-1
 392 434 l 1,4,5
 312 443 312 443 274 443 c 0,6,7
 189 443 189 443 158.5 402.5 c 128,-1,8
 128 362 128 362 128 252.5 c 128,-1,9
 128 143 128 143 156.5 100 c 128,-1,10
 185 57 185 57 275 57 c 1,11,-1
 393 66 l 1,12,-1
 396 4 l 1,13,14
 303 -10 303 -10 257 -10 c 0,15,16
 140 -10 140 -10 95.5 50 c 128,-1,17
 51 110 51 110 51 252.5 c 128,-1,18
 51 395 51 395 99 452.5 c 128,-1,19
 147 510 147 510 259 510 c 0,0,1
214 609 m 1,20,-1
 214 696 l 1,21,-1
 288 696 l 1,22,-1
 288 609 l 1,23,-1
 214 609 l 1,20,-1
EndSplineSet
EndChar

StartChar: Ccaron
Encoding: 268 268 205
Width: 544
GlyphClass: 2
Flags: W
LayerCount: 2
Fore
SplineSet
503 11 m 1,0,1
 400 -10 400 -10 318 -10 c 128,-1,2
 236 -10 236 -10 185.5 12.5 c 128,-1,3
 135 35 135 35 107.5 82.5 c 128,-1,4
 80 130 80 130 69.5 191.5 c 128,-1,5
 59 253 59 253 59 345 c 128,-1,6
 59 437 59 437 69.5 499.5 c 128,-1,7
 80 562 80 562 107.5 610 c 128,-1,8
 135 658 135 658 185 680 c 128,-1,9
 235 702 235 702 315 702 c 128,-1,10
 395 702 395 702 503 680 c 1,11,-1
 500 615 l 1,12,13
 399 633 399 633 320 633 c 0,14,15
 210 633 210 633 174.5 567.5 c 128,-1,16
 139 502 139 502 139 344 c 0,17,18
 139 265 139 265 145.5 217 c 128,-1,19
 152 169 152 169 171 130.5 c 128,-1,20
 190 92 190 92 226.5 75.5 c 128,-1,21
 263 59 263 59 333.5 59 c 128,-1,22
 404 59 404 59 500 77 c 1,23,-1
 503 11 l 1,0,1
271 791 m 1,24,-1
 137 926 l 1,25,-1
 221 926 l 1,26,-1
 304 846 l 1,27,-1
 386 926 l 1,28,-1
 470 926 l 1,29,-1
 336 791 l 1,30,-1
 271 791 l 1,24,-1
EndSplineSet
Position2: "'cpsp' Capital Spacing in Latin lookup 0 subtable" dx=5 dy=0 dh=10 dv=0
EndChar

StartChar: ccaron
Encoding: 269 269 206
Width: 436
GlyphClass: 2
Flags: W
LayerCount: 2
Fore
SplineSet
259 510 m 0,0,1
 292 510 292 510 371 498 c 1,2,-1
 395 495 l 1,3,-1
 392 434 l 1,4,5
 312 443 312 443 274 443 c 0,6,7
 189 443 189 443 158.5 402.5 c 128,-1,8
 128 362 128 362 128 252.5 c 128,-1,9
 128 143 128 143 156.5 100 c 128,-1,10
 185 57 185 57 275 57 c 1,11,-1
 393 66 l 1,12,-1
 396 4 l 1,13,14
 303 -10 303 -10 257 -10 c 0,15,16
 140 -10 140 -10 95.5 50 c 128,-1,17
 51 110 51 110 51 252.5 c 128,-1,18
 51 395 51 395 99 452.5 c 128,-1,19
 147 510 147 510 259 510 c 0,0,1
214 592 m 1,20,-1
 91 732 l 1,21,-1
 165 732 l 1,22,-1
 240 645 l 1,23,-1
 314 732 l 1,24,-1
 389 732 l 1,25,-1
 264 592 l 1,26,-1
 214 592 l 1,20,-1
EndSplineSet
EndChar

StartChar: Dcaron
Encoding: 270 270 207
Width: 645
GlyphClass: 2
Flags: W
LayerCount: 2
Fore
SplineSet
332 0 m 2,0,-1
 85 0 l 1,1,-1
 85 692 l 1,2,-1
 332 692 l 2,3,4
 501 692 501 692 556 558 c 0,5,6
 588 481 588 481 588 356 c 0,7,8
 588 95 588 95 458 27 c 0,9,10
 406 0 406 0 332 0 c 2,0,-1
509 356 m 0,11,12
 509 555 509 555 420 604 c 0,13,14
 384 624 384 624 332 624 c 2,15,-1
 162 624 l 1,16,-1
 162 68 l 1,17,-1
 332 68 l 2,18,19
 509 68 509 68 509 356 c 0,11,12
262 791 m 1,20,-1
 128 926 l 1,21,-1
 212 926 l 1,22,-1
 295 846 l 1,23,-1
 377 926 l 1,24,-1
 461 926 l 1,25,-1
 327 791 l 1,26,-1
 262 791 l 1,20,-1
EndSplineSet
Position2: "'cpsp' Capital Spacing in Latin lookup 0 subtable" dx=5 dy=0 dh=10 dv=0
EndChar

StartChar: dcaron
Encoding: 271 271 208
Width: 575
GlyphClass: 2
Flags: W
LayerCount: 2
Fore
SplineSet
558 683 m 1,0,-1
 632 683 l 1,1,-1
 583 476 l 1,2,-1
 518 476 l 1,3,-1
 558 683 l 1,0,-1
456 718 m 1,4,-1
 456 0 l 1,5,-1
 382 0 l 1,6,-1
 382 34 l 1,7,8
 305 -10 305 -10 230 -10 c 0,9,10
 190 -10 190 -10 160 0 c 128,-1,11
 130 10 130 10 104 36 c 0,12,13
 50 90 50 90 50 235.5 c 128,-1,14
 50 381 50 381 98.5 445.5 c 128,-1,15
 147 510 147 510 259 510 c 0,16,17
 317 510 317 510 382 497 c 1,18,-1
 382 718 l 1,19,-1
 456 718 l 1,4,-1
196 64 m 128,-1,21
 214 57 214 57 242.5 57 c 128,-1,22
 271 57 271 57 306.5 66.5 c 128,-1,23
 342 76 342 76 362 85 c 2,24,-1
 382 94 l 1,25,-1
 382 433 l 1,26,27
 318 445 318 445 263 445 c 0,28,29
 187 445 187 445 157 396.5 c 128,-1,30
 127 348 127 348 127 246 c 0,31,32
 127 130 127 130 162 90 c 0,33,20
 178 71 178 71 196 64 c 128,-1,21
EndSplineSet
EndChar

StartChar: Dcroat
Encoding: 272 272 209
Width: 647
GlyphClass: 2
Flags: W
LayerCount: 2
Fore
SplineSet
20 311 m 1,0,-1
 20 384 l 1,1,-1
 88 384 l 1,2,-1
 88 696 l 1,3,-1
 335 696 l 2,4,5
 476 696 476 696 533.5 608 c 128,-1,6
 591 520 591 520 591 359 c 0,7,8
 591 97 591 97 460 28 c 1,9,10
 409 0 409 0 335 0 c 2,11,-1
 88 0 l 1,12,-1
 88 311 l 1,13,-1
 20 311 l 1,0,-1
511 359 m 0,14,15
 511 553 511 553 422 603 c 0,16,17
 387 623 387 623 335 623 c 2,18,-1
 164 623 l 1,19,-1
 164 384 l 1,20,-1
 322 384 l 1,21,-1
 322 311 l 1,22,-1
 164 311 l 1,23,-1
 164 73 l 1,24,-1
 335 73 l 2,25,26
 511 73 511 73 511 359 c 0,14,15
EndSplineSet
Position2: "'cpsp' Capital Spacing in Latin lookup 0 subtable" dx=5 dy=0 dh=10 dv=0
EndChar

StartChar: dcroat
Encoding: 273 273 210
Width: 529
GlyphClass: 2
Flags: W
LayerCount: 2
Fore
SplineSet
456 718 m 1,0,-1
 456 688 l 1,1,-1
 479 688 l 1,2,-1
 479 622 l 1,3,-1
 456 622 l 1,4,-1
 456 0 l 1,5,-1
 382 0 l 1,6,-1
 382 34 l 1,7,8
 305 -10 305 -10 230 -10 c 0,9,10
 190 -10 190 -10 160 0 c 128,-1,11
 130 10 130 10 104 36 c 0,12,13
 50 90 50 90 50 235.5 c 128,-1,14
 50 381 50 381 98.5 445.5 c 128,-1,15
 147 510 147 510 259 510 c 0,16,17
 317 510 317 510 382 497 c 1,18,-1
 382 622 l 1,19,-1
 188 622 l 1,20,-1
 188 688 l 1,21,-1
 382 688 l 1,22,-1
 382 718 l 1,23,-1
 456 718 l 1,0,-1
196 64 m 128,-1,25
 214 57 214 57 242.5 57 c 128,-1,26
 271 57 271 57 306.5 66.5 c 128,-1,27
 342 76 342 76 362 85 c 2,28,-1
 382 94 l 1,29,-1
 382 433 l 1,30,31
 318 445 318 445 263 445 c 0,32,33
 187 445 187 445 157 396.5 c 128,-1,34
 127 348 127 348 127 246 c 0,35,36
 127 130 127 130 162 90 c 0,37,24
 178 71 178 71 196 64 c 128,-1,25
EndSplineSet
EndChar

StartChar: Emacron
Encoding: 274 274 211
Width: 553
GlyphClass: 2
Flags: W
LayerCount: 2
Fore
SplineSet
85 0 m 1,0,-1
 85 692 l 1,1,-1
 506 692 l 1,2,-1
 506 624 l 1,3,-1
 162 624 l 1,4,-1
 162 385 l 1,5,-1
 446 385 l 1,6,-1
 446 318 l 1,7,-1
 162 318 l 1,8,-1
 162 68 l 1,9,-1
 506 68 l 1,10,-1
 506 0 l 1,11,-1
 85 0 l 1,0,-1
138 812 m 1,12,-1
 138 870 l 1,13,-1
 449 870 l 1,14,-1
 449 812 l 1,15,-1
 138 812 l 1,12,-1
EndSplineSet
Position2: "'cpsp' Capital Spacing in Latin lookup 0 subtable" dx=5 dy=0 dh=10 dv=0
EndChar

StartChar: emacron
Encoding: 275 275 212
Width: 505
GlyphClass: 2
Flags: W
LayerCount: 2
Fore
SplineSet
412 62 m 1,0,-1
 441 65 l 1,1,-1
 443 6 l 1,2,3
 329 -10 329 -10 248 -10 c 0,4,5
 140 -10 140 -10 95 52.5 c 128,-1,6
 50 115 50 115 50 247 c 0,7,8
 50 510 50 510 259 510 c 0,9,10
 360 510 360 510 410 453.5 c 128,-1,11
 460 397 460 397 460 276 c 1,12,-1
 456 219 l 1,13,-1
 126 219 l 1,14,15
 126 136 126 136 156 96 c 128,-1,16
 186 56 186 56 260.5 56 c 128,-1,17
 335 56 335 56 412 62 c 1,0,-1
385 279 m 1,18,19
 385 371 385 371 355.5 409 c 128,-1,20
 326 447 326 447 259.5 447 c 128,-1,21
 193 447 193 447 159.5 407 c 128,-1,22
 126 367 126 367 125 279 c 1,23,-1
 385 279 l 1,18,19
123 624 m 1,24,-1
 123 683 l 1,25,-1
 398 683 l 1,26,-1
 398 624 l 1,27,-1
 123 624 l 1,24,-1
EndSplineSet
EndChar

StartChar: Ebreve
Encoding: 276 276 213
Width: 553
GlyphClass: 2
Flags: W
LayerCount: 2
Fore
SplineSet
85 0 m 1,0,-1
 85 692 l 1,1,-1
 506 692 l 1,2,-1
 506 624 l 1,3,-1
 162 624 l 1,4,-1
 162 385 l 1,5,-1
 446 385 l 1,6,-1
 446 318 l 1,7,-1
 162 318 l 1,8,-1
 162 68 l 1,9,-1
 506 68 l 1,10,-1
 506 0 l 1,11,-1
 85 0 l 1,0,-1
242.5 864 m 128,-1,13
 268 843 268 843 304.5 843 c 128,-1,14
 341 843 341 843 366 864 c 128,-1,15
 391 885 391 885 392 918 c 1,16,-1
 462 918 l 1,17,18
 459 859 459 859 416 823 c 128,-1,19
 373 787 373 787 304 787 c 128,-1,20
 235 787 235 787 192.5 823 c 128,-1,21
 150 859 150 859 147 918 c 1,22,-1
 216 918 l 1,23,12
 217 885 217 885 242.5 864 c 128,-1,13
EndSplineSet
Position2: "'cpsp' Capital Spacing in Latin lookup 0 subtable" dx=5 dy=0 dh=10 dv=0
EndChar

StartChar: ebreve
Encoding: 277 277 214
Width: 505
GlyphClass: 2
Flags: W
LayerCount: 2
Fore
SplineSet
412 62 m 1,0,-1
 441 65 l 1,1,-1
 443 6 l 1,2,3
 329 -10 329 -10 248 -10 c 0,4,5
 140 -10 140 -10 95 52.5 c 128,-1,6
 50 115 50 115 50 247 c 0,7,8
 50 510 50 510 259 510 c 0,9,10
 360 510 360 510 410 453.5 c 128,-1,11
 460 397 460 397 460 276 c 1,12,-1
 456 219 l 1,13,-1
 126 219 l 1,14,15
 126 136 126 136 156 96 c 128,-1,16
 186 56 186 56 260.5 56 c 128,-1,17
 335 56 335 56 412 62 c 1,0,-1
385 279 m 1,18,19
 385 371 385 371 355.5 409 c 128,-1,20
 326 447 326 447 259.5 447 c 128,-1,21
 193 447 193 447 159.5 407 c 128,-1,22
 126 367 126 367 125 279 c 1,23,-1
 385 279 l 1,18,19
194 665 m 128,-1,25
 217 642 217 642 256.5 642 c 128,-1,26
 296 642 296 642 319 665 c 128,-1,27
 342 688 342 688 343 726 c 1,28,-1
 405 726 l 1,29,30
 402 666 402 666 362 626 c 128,-1,31
 322 586 322 586 256.5 586 c 128,-1,32
 191 586 191 586 151 626 c 128,-1,33
 111 666 111 666 108 726 c 1,34,-1
 169 726 l 1,35,24
 171 688 171 688 194 665 c 128,-1,25
EndSplineSet
EndChar

StartChar: Edotaccent
Encoding: 278 278 215
Width: 553
GlyphClass: 2
Flags: W
LayerCount: 2
Fore
SplineSet
85 0 m 1,0,-1
 85 692 l 1,1,-1
 506 692 l 1,2,-1
 506 624 l 1,3,-1
 162 624 l 1,4,-1
 162 385 l 1,5,-1
 446 385 l 1,6,-1
 446 318 l 1,7,-1
 162 318 l 1,8,-1
 162 68 l 1,9,-1
 506 68 l 1,10,-1
 506 0 l 1,11,-1
 85 0 l 1,0,-1
260 801 m 1,12,-1
 260 888 l 1,13,-1
 334 888 l 1,14,-1
 334 801 l 1,15,-1
 260 801 l 1,12,-1
EndSplineSet
Position2: "'cpsp' Capital Spacing in Latin lookup 0 subtable" dx=5 dy=0 dh=10 dv=0
EndChar

StartChar: edotaccent
Encoding: 279 279 216
Width: 505
GlyphClass: 2
Flags: W
LayerCount: 2
Fore
SplineSet
412 62 m 1,0,-1
 441 65 l 1,1,-1
 443 6 l 1,2,3
 329 -10 329 -10 248 -10 c 0,4,5
 140 -10 140 -10 95 52.5 c 128,-1,6
 50 115 50 115 50 247 c 0,7,8
 50 510 50 510 259 510 c 0,9,10
 360 510 360 510 410 453.5 c 128,-1,11
 460 397 460 397 460 276 c 1,12,-1
 456 219 l 1,13,-1
 126 219 l 1,14,15
 126 136 126 136 156 96 c 128,-1,16
 186 56 186 56 260.5 56 c 128,-1,17
 335 56 335 56 412 62 c 1,0,-1
385 279 m 1,18,19
 385 371 385 371 355.5 409 c 128,-1,20
 326 447 326 447 259.5 447 c 128,-1,21
 193 447 193 447 159.5 407 c 128,-1,22
 126 367 126 367 125 279 c 1,23,-1
 385 279 l 1,18,19
217 609 m 1,24,-1
 217 696 l 1,25,-1
 291 696 l 1,26,-1
 291 609 l 1,27,-1
 217 609 l 1,24,-1
EndSplineSet
EndChar

StartChar: Eogonek
Encoding: 280 280 217
Width: 553
GlyphClass: 2
Flags: W
LayerCount: 2
Fore
SplineSet
85 0 m 1,0,-1
 85 692 l 1,1,-1
 506 692 l 1,2,-1
 506 624 l 1,3,-1
 162 624 l 1,4,-1
 162 385 l 1,5,-1
 446 385 l 1,6,-1
 446 318 l 1,7,-1
 162 318 l 1,8,-1
 162 68 l 1,9,-1
 506 68 l 1,10,-1
 506 0 l 1,11,-1
 477 0 l 1,12,13
 407 -70 407 -70 407 -102 c 0,14,15
 407 -121 407 -121 418.5 -133 c 128,-1,16
 430 -145 430 -145 448 -145 c 1,17,-1
 498 -139 l 1,18,-1
 505 -197 l 1,19,20
 460 -206 460 -206 423 -206 c 128,-1,21
 386 -206 386 -206 360 -182.5 c 128,-1,22
 334 -159 334 -159 334 -123.5 c 128,-1,23
 334 -88 334 -88 358.5 -55 c 128,-1,24
 383 -22 383 -22 408 0 c 1,25,-1
 85 0 l 1,0,-1
EndSplineSet
Position2: "'cpsp' Capital Spacing in Latin lookup 0 subtable" dx=5 dy=0 dh=10 dv=0
EndChar

StartChar: eogonek
Encoding: 281 281 218
Width: 506
GlyphClass: 2
Flags: W
LayerCount: 2
Fore
SplineSet
343 -102 m 0,0,1
 343 -121 343 -121 354.5 -133 c 128,-1,2
 366 -145 366 -145 384 -145 c 1,3,-1
 434 -139 l 1,4,-1
 441 -197 l 1,5,6
 396 -206 396 -206 359 -206 c 128,-1,7
 322 -206 322 -206 296 -182.5 c 128,-1,8
 270 -159 270 -159 270 -114.5 c 128,-1,9
 270 -70 270 -70 338 -5 c 1,10,11
 286 -10 286 -10 248 -10 c 0,12,13
 140 -10 140 -10 95 52.5 c 128,-1,14
 50 115 50 115 50 247 c 0,15,16
 50 510 50 510 259 510 c 0,17,18
 360 510 360 510 410 453.5 c 128,-1,19
 460 397 460 397 460 276 c 1,20,-1
 456 219 l 1,21,-1
 126 219 l 1,22,23
 126 136 126 136 156 96 c 128,-1,24
 186 56 186 56 257 56 c 0,25,26
 335 56 335 56 412 62 c 1,27,-1
 441 65 l 1,28,-1
 443 6 l 1,29,30
 427 4 427 4 408 1 c 1,31,-1
 414 1 l 1,32,33
 343 -69 343 -69 343 -102 c 0,0,1
385 279 m 1,34,35
 385 371 385 371 355.5 409 c 128,-1,36
 326 447 326 447 259.5 447 c 128,-1,37
 193 447 193 447 159.5 407 c 128,-1,38
 126 367 126 367 125 279 c 1,39,-1
 385 279 l 1,34,35
EndSplineSet
EndChar

StartChar: Ecaron
Encoding: 282 282 219
Width: 553
GlyphClass: 2
Flags: W
LayerCount: 2
Fore
SplineSet
85 0 m 1,0,-1
 85 692 l 1,1,-1
 506 692 l 1,2,-1
 506 624 l 1,3,-1
 162 624 l 1,4,-1
 162 385 l 1,5,-1
 446 385 l 1,6,-1
 446 318 l 1,7,-1
 162 318 l 1,8,-1
 162 68 l 1,9,-1
 506 68 l 1,10,-1
 506 0 l 1,11,-1
 85 0 l 1,0,-1
258 791 m 1,12,-1
 124 926 l 1,13,-1
 208 926 l 1,14,-1
 291 846 l 1,15,-1
 373 926 l 1,16,-1
 457 926 l 1,17,-1
 323 791 l 1,18,-1
 258 791 l 1,12,-1
EndSplineSet
Position2: "'cpsp' Capital Spacing in Latin lookup 0 subtable" dx=5 dy=0 dh=10 dv=0
EndChar

StartChar: ecaron
Encoding: 283 283 220
Width: 505
GlyphClass: 2
Flags: W
LayerCount: 2
Fore
SplineSet
412 62 m 1,0,-1
 441 65 l 1,1,-1
 443 6 l 1,2,3
 329 -10 329 -10 248 -10 c 0,4,5
 140 -10 140 -10 95 52.5 c 128,-1,6
 50 115 50 115 50 247 c 0,7,8
 50 510 50 510 259 510 c 0,9,10
 360 510 360 510 410 453.5 c 128,-1,11
 460 397 460 397 460 276 c 1,12,-1
 456 219 l 1,13,-1
 126 219 l 1,14,15
 126 136 126 136 156 96 c 128,-1,16
 186 56 186 56 260.5 56 c 128,-1,17
 335 56 335 56 412 62 c 1,0,-1
385 279 m 1,18,19
 385 371 385 371 355.5 409 c 128,-1,20
 326 447 326 447 259.5 447 c 128,-1,21
 193 447 193 447 159.5 407 c 128,-1,22
 126 367 126 367 125 279 c 1,23,-1
 385 279 l 1,18,19
227 592 m 1,24,-1
 104 732 l 1,25,-1
 178 732 l 1,26,-1
 253 645 l 1,27,-1
 327 732 l 1,28,-1
 402 732 l 1,29,-1
 277 592 l 1,30,-1
 227 592 l 1,24,-1
EndSplineSet
EndChar

StartChar: Gcircumflex
Encoding: 284 284 221
Width: 616
GlyphClass: 2
Flags: W
LayerCount: 2
Fore
SplineSet
359 287 m 1,0,-1
 359 356 l 1,1,-1
 550 356 l 1,2,-1
 550 16 l 1,3,4
 424 -8 424 -8 325 -8 c 0,5,6
 174 -8 174 -8 115.5 79 c 128,-1,7
 57 166 57 166 57 347.5 c 128,-1,8
 57 529 57 529 115.5 616.5 c 128,-1,9
 174 704 174 704 323 704 c 0,10,11
 416 704 416 704 516 684 c 1,12,-1
 550 678 l 1,13,-1
 547 614 l 1,14,15
 423 635 423 635 332 635 c 0,16,17
 217 635 217 635 177 568.5 c 128,-1,18
 137 502 137 502 137 347.5 c 128,-1,19
 137 193 137 193 177 126.5 c 128,-1,20
 217 60 217 60 331 60 c 0,21,22
 401 60 401 60 474 74 c 1,23,-1
 474 287 l 1,24,-1
 359 287 l 1,0,-1
156 788 m 1,25,-1
 290 923 l 1,26,-1
 355 923 l 1,27,-1
 489 788 l 1,28,-1
 405 788 l 1,29,-1
 323 868 l 1,30,-1
 240 788 l 1,31,-1
 156 788 l 1,25,-1
EndSplineSet
Position2: "'cpsp' Capital Spacing in Latin lookup 0 subtable" dx=5 dy=0 dh=10 dv=0
EndChar

StartChar: gcircumflex
Encoding: 285 285 222
Width: 514
GlyphClass: 2
Flags: W
LayerCount: 2
Fore
SplineSet
265 -235 m 0,0,1
 145 -235 145 -235 97.5 -202.5 c 128,-1,2
 50 -170 50 -170 50 -84 c 0,3,4
 50 -43 50 -43 68 -17.5 c 128,-1,5
 86 8 86 8 129 40 c 1,6,7
 101 59 101 59 101 109 c 0,8,9
 101 126 101 126 126 172 c 2,10,-1
 135 188 l 1,11,12
 56 224 56 224 56 339 c 0,13,14
 56 510 56 510 243 510 c 0,15,16
 291 510 291 510 332 500 c 1,17,-1
 347 497 l 1,18,-1
 495 501 l 1,19,-1
 495 437 l 1,20,-1
 400 439 l 1,21,22
 433 406 433 406 433 339 c 0,23,24
 433 245 433 245 386.5 207.5 c 128,-1,25
 340 170 340 170 240 170 c 0,26,27
 213 170 213 170 191 174 c 1,28,29
 173 130 173 130 173 117 c 0,30,31
 173 86 173 86 192 78.5 c 128,-1,32
 211 71 211 71 307 71 c 128,-1,33
 403 71 403 71 445 41 c 128,-1,34
 487 11 487 11 487 -76 c 0,35,36
 487 -235 487 -235 265 -235 c 0,0,1
124 -78 m 0,37,38
 124 -131 124 -131 153.5 -151.5 c 128,-1,39
 183 -172 183 -172 262.5 -172 c 128,-1,40
 342 -172 342 -172 376.5 -150 c 128,-1,41
 411 -128 411 -128 411 -76.5 c 128,-1,42
 411 -25 411 -25 386 -10 c 128,-1,43
 361 5 361 5 288 5 c 1,44,-1
 180 10 l 1,45,46
 147 -14 147 -14 135.5 -32 c 128,-1,47
 124 -50 124 -50 124 -78 c 0,37,38
157.5 255 m 128,-1,49
 184 230 184 230 245 230 c 128,-1,50
 306 230 306 230 332 255 c 128,-1,51
 358 280 358 280 358 339.5 c 128,-1,52
 358 399 358 399 332 424 c 128,-1,53
 306 449 306 449 245 449 c 128,-1,54
 184 449 184 449 157.5 423.5 c 128,-1,55
 131 398 131 398 131 339 c 128,-1,48
 131 280 131 280 157.5 255 c 128,-1,49
113 592 m 1,56,-1
 236 732 l 1,57,-1
 287 732 l 1,58,-1
 411 592 l 1,59,-1
 336 592 l 1,60,-1
 263 679 l 1,61,-1
 188 592 l 1,62,-1
 113 592 l 1,56,-1
EndSplineSet
EndChar

StartChar: Gbreve
Encoding: 286 286 223
Width: 616
GlyphClass: 2
Flags: W
LayerCount: 2
Fore
SplineSet
359 285 m 1,0,-1
 359 354 l 1,1,-1
 550 354 l 1,2,-1
 550 14 l 1,3,4
 424 -10 424 -10 325 -10 c 0,5,6
 174 -10 174 -10 115.5 77 c 128,-1,7
 57 164 57 164 57 345.5 c 128,-1,8
 57 527 57 527 115.5 614.5 c 128,-1,9
 174 702 174 702 323 702 c 0,10,11
 416 702 416 702 516 682 c 1,12,-1
 550 676 l 1,13,-1
 547 612 l 1,14,15
 423 633 423 633 332 633 c 0,16,17
 217 633 217 633 177 566.5 c 128,-1,18
 137 500 137 500 137 345.5 c 128,-1,19
 137 191 137 191 177 124.5 c 128,-1,20
 217 58 217 58 331 58 c 0,21,22
 401 58 401 58 474 72 c 1,23,-1
 474 285 l 1,24,-1
 359 285 l 1,0,-1
266.5 864 m 128,-1,26
 292 843 292 843 328.5 843 c 128,-1,27
 365 843 365 843 390 864 c 128,-1,28
 415 885 415 885 416 918 c 1,29,-1
 486 918 l 1,30,31
 483 859 483 859 440 823 c 128,-1,32
 397 787 397 787 328 787 c 128,-1,33
 259 787 259 787 216.5 823 c 128,-1,34
 174 859 174 859 171 918 c 1,35,-1
 240 918 l 1,36,25
 241 885 241 885 266.5 864 c 128,-1,26
EndSplineSet
Position2: "'cpsp' Capital Spacing in Latin lookup 0 subtable" dx=5 dy=0 dh=10 dv=0
EndChar

StartChar: gbreve
Encoding: 287 287 224
Width: 514
GlyphClass: 2
Flags: W
LayerCount: 2
Fore
SplineSet
265 -235 m 0,0,1
 145 -235 145 -235 97.5 -202.5 c 128,-1,2
 50 -170 50 -170 50 -84 c 0,3,4
 50 -43 50 -43 68 -17.5 c 128,-1,5
 86 8 86 8 129 40 c 1,6,7
 101 59 101 59 101 109 c 0,8,9
 101 126 101 126 126 172 c 2,10,-1
 135 188 l 1,11,12
 56 224 56 224 56 339 c 0,13,14
 56 510 56 510 243 510 c 0,15,16
 291 510 291 510 332 500 c 1,17,-1
 347 497 l 1,18,-1
 495 501 l 1,19,-1
 495 437 l 1,20,-1
 400 439 l 1,21,22
 433 406 433 406 433 339 c 0,23,24
 433 245 433 245 386.5 207.5 c 128,-1,25
 340 170 340 170 240 170 c 0,26,27
 213 170 213 170 191 174 c 1,28,29
 173 130 173 130 173 117 c 0,30,31
 173 86 173 86 192 78.5 c 128,-1,32
 211 71 211 71 307 71 c 128,-1,33
 403 71 403 71 445 41 c 128,-1,34
 487 11 487 11 487 -76 c 0,35,36
 487 -235 487 -235 265 -235 c 0,0,1
124 -78 m 0,37,38
 124 -131 124 -131 153.5 -151.5 c 128,-1,39
 183 -172 183 -172 262.5 -172 c 128,-1,40
 342 -172 342 -172 376.5 -150 c 128,-1,41
 411 -128 411 -128 411 -76.5 c 128,-1,42
 411 -25 411 -25 386 -10 c 128,-1,43
 361 5 361 5 288 5 c 1,44,-1
 180 10 l 1,45,46
 147 -14 147 -14 135.5 -32 c 128,-1,47
 124 -50 124 -50 124 -78 c 0,37,38
157.5 255 m 128,-1,49
 184 230 184 230 245 230 c 128,-1,50
 306 230 306 230 332 255 c 128,-1,51
 358 280 358 280 358 339.5 c 128,-1,52
 358 399 358 399 332 424 c 128,-1,53
 306 449 306 449 245 449 c 128,-1,54
 184 449 184 449 157.5 423.5 c 128,-1,55
 131 398 131 398 131 339 c 128,-1,48
 131 280 131 280 157.5 255 c 128,-1,49
199 665 m 128,-1,57
 222 642 222 642 261.5 642 c 128,-1,58
 301 642 301 642 324 665 c 128,-1,59
 347 688 347 688 348 726 c 1,60,-1
 410 726 l 1,61,62
 407 666 407 666 367 626 c 128,-1,63
 327 586 327 586 261.5 586 c 128,-1,64
 196 586 196 586 156 626 c 128,-1,65
 116 666 116 666 113 726 c 1,66,-1
 174 726 l 1,67,56
 176 688 176 688 199 665 c 128,-1,57
EndSplineSet
EndChar

StartChar: Gdotaccent
Encoding: 288 288 225
Width: 616
GlyphClass: 2
Flags: W
LayerCount: 2
Fore
SplineSet
359 285 m 1,0,-1
 359 354 l 1,1,-1
 550 354 l 1,2,-1
 550 14 l 1,3,4
 424 -10 424 -10 325 -10 c 0,5,6
 174 -10 174 -10 115.5 77 c 128,-1,7
 57 164 57 164 57 345.5 c 128,-1,8
 57 527 57 527 115.5 614.5 c 128,-1,9
 174 702 174 702 323 702 c 0,10,11
 416 702 416 702 516 682 c 1,12,-1
 550 676 l 1,13,-1
 547 612 l 1,14,15
 423 633 423 633 332 633 c 0,16,17
 217 633 217 633 177 566.5 c 128,-1,18
 137 500 137 500 137 345.5 c 128,-1,19
 137 191 137 191 177 124.5 c 128,-1,20
 217 58 217 58 331 58 c 0,21,22
 401 58 401 58 474 72 c 1,23,-1
 474 285 l 1,24,-1
 359 285 l 1,0,-1
276 801 m 1,25,-1
 276 888 l 1,26,-1
 350 888 l 1,27,-1
 350 801 l 1,28,-1
 276 801 l 1,25,-1
EndSplineSet
Position2: "'cpsp' Capital Spacing in Latin lookup 0 subtable" dx=5 dy=0 dh=10 dv=0
EndChar

StartChar: gdotaccent
Encoding: 289 289 226
Width: 514
GlyphClass: 2
Flags: W
LayerCount: 2
Fore
SplineSet
265 -235 m 0,0,1
 145 -235 145 -235 97.5 -202.5 c 128,-1,2
 50 -170 50 -170 50 -84 c 0,3,4
 50 -43 50 -43 68 -17.5 c 128,-1,5
 86 8 86 8 129 40 c 1,6,7
 101 59 101 59 101 109 c 0,8,9
 101 126 101 126 126 172 c 2,10,-1
 135 188 l 1,11,12
 56 224 56 224 56 339 c 0,13,14
 56 510 56 510 243 510 c 0,15,16
 291 510 291 510 332 500 c 1,17,-1
 347 497 l 1,18,-1
 495 501 l 1,19,-1
 495 437 l 1,20,-1
 400 439 l 1,21,22
 433 406 433 406 433 339 c 0,23,24
 433 245 433 245 386.5 207.5 c 128,-1,25
 340 170 340 170 240 170 c 0,26,27
 213 170 213 170 191 174 c 1,28,29
 173 130 173 130 173 117 c 0,30,31
 173 86 173 86 192 78.5 c 128,-1,32
 211 71 211 71 307 71 c 128,-1,33
 403 71 403 71 445 41 c 128,-1,34
 487 11 487 11 487 -76 c 0,35,36
 487 -235 487 -235 265 -235 c 0,0,1
124 -78 m 0,37,38
 124 -131 124 -131 153.5 -151.5 c 128,-1,39
 183 -172 183 -172 262.5 -172 c 128,-1,40
 342 -172 342 -172 376.5 -150 c 128,-1,41
 411 -128 411 -128 411 -76.5 c 128,-1,42
 411 -25 411 -25 386 -10 c 128,-1,43
 361 5 361 5 288 5 c 1,44,-1
 180 10 l 1,45,46
 147 -14 147 -14 135.5 -32 c 128,-1,47
 124 -50 124 -50 124 -78 c 0,37,38
157.5 255 m 128,-1,49
 184 230 184 230 245 230 c 128,-1,50
 306 230 306 230 332 255 c 128,-1,51
 358 280 358 280 358 339.5 c 128,-1,52
 358 399 358 399 332 424 c 128,-1,53
 306 449 306 449 245 449 c 128,-1,54
 184 449 184 449 157.5 423.5 c 128,-1,55
 131 398 131 398 131 339 c 128,-1,48
 131 280 131 280 157.5 255 c 128,-1,49
224 609 m 1,56,-1
 224 696 l 1,57,-1
 298 696 l 1,58,-1
 298 609 l 1,59,-1
 224 609 l 1,56,-1
EndSplineSet
EndChar

StartChar: Gcommaaccent
Encoding: 290 290 227
Width: 616
GlyphClass: 2
Flags: W
LayerCount: 2
Fore
SplineSet
359 285 m 1,0,-1
 359 354 l 1,1,-1
 550 354 l 1,2,-1
 550 14 l 1,3,4
 424 -10 424 -10 325 -10 c 0,5,6
 174 -10 174 -10 115.5 77 c 128,-1,7
 57 164 57 164 57 345.5 c 128,-1,8
 57 527 57 527 115.5 614.5 c 128,-1,9
 174 702 174 702 323 702 c 0,10,11
 416 702 416 702 516 682 c 1,12,-1
 550 676 l 1,13,-1
 547 612 l 1,14,15
 423 633 423 633 332 633 c 0,16,17
 217 633 217 633 177 566.5 c 128,-1,18
 137 500 137 500 137 345.5 c 128,-1,19
 137 191 137 191 177 124.5 c 128,-1,20
 217 58 217 58 331 58 c 0,21,22
 401 58 401 58 474 72 c 1,23,-1
 474 285 l 1,24,-1
 359 285 l 1,0,-1
301 -78 m 1,25,-1
 375 -78 l 1,26,-1
 325 -285 l 1,27,-1
 260 -285 l 1,28,-1
 301 -78 l 1,25,-1
EndSplineSet
Position2: "'cpsp' Capital Spacing in Latin lookup 0 subtable" dx=5 dy=0 dh=10 dv=0
EndChar

StartChar: gcommaaccent
Encoding: 291 291 228
Width: 514
GlyphClass: 2
Flags: W
LayerCount: 2
Fore
SplineSet
307 796 m 1,0,-1
 266 589 l 1,1,-1
 192 589 l 1,2,-1
 242 796 l 1,3,-1
 307 796 l 1,0,-1
265 -235 m 0,4,5
 145 -235 145 -235 97.5 -202.5 c 128,-1,6
 50 -170 50 -170 50 -84 c 0,7,8
 50 -43 50 -43 68 -17.5 c 128,-1,9
 86 8 86 8 129 40 c 1,10,11
 101 59 101 59 101 109 c 0,12,13
 101 126 101 126 126 172 c 2,14,-1
 135 188 l 1,15,16
 56 224 56 224 56 339 c 0,17,18
 56 510 56 510 243 510 c 0,19,20
 291 510 291 510 332 500 c 1,21,-1
 347 497 l 1,22,-1
 495 501 l 1,23,-1
 495 437 l 1,24,-1
 400 439 l 1,25,26
 433 406 433 406 433 339 c 0,27,28
 433 245 433 245 386.5 207.5 c 128,-1,29
 340 170 340 170 240 170 c 0,30,31
 213 170 213 170 191 174 c 1,32,33
 173 130 173 130 173 117 c 0,34,35
 173 86 173 86 192 78.5 c 128,-1,36
 211 71 211 71 307 71 c 128,-1,37
 403 71 403 71 445 41 c 128,-1,38
 487 11 487 11 487 -76 c 0,39,40
 487 -235 487 -235 265 -235 c 0,4,5
124 -78 m 0,41,42
 124 -131 124 -131 153.5 -151.5 c 128,-1,43
 183 -172 183 -172 262.5 -172 c 128,-1,44
 342 -172 342 -172 376.5 -150 c 128,-1,45
 411 -128 411 -128 411 -76.5 c 128,-1,46
 411 -25 411 -25 386 -10 c 128,-1,47
 361 5 361 5 288 5 c 1,48,-1
 180 10 l 1,49,50
 147 -14 147 -14 135.5 -32 c 128,-1,51
 124 -50 124 -50 124 -78 c 0,41,42
157.5 255 m 128,-1,53
 184 230 184 230 245 230 c 128,-1,54
 306 230 306 230 332 255 c 128,-1,55
 358 280 358 280 358 339.5 c 128,-1,56
 358 399 358 399 332 424 c 128,-1,57
 306 449 306 449 245 449 c 128,-1,58
 184 449 184 449 157.5 423.5 c 128,-1,59
 131 398 131 398 131 339 c 128,-1,52
 131 280 131 280 157.5 255 c 128,-1,53
EndSplineSet
EndChar

StartChar: Hcircumflex
Encoding: 292 292 229
Width: 675
GlyphClass: 2
Flags: W
LayerCount: 2
Fore
SplineSet
514 0 m 1,0,-1
 514 313 l 1,1,-1
 162 313 l 1,2,-1
 162 0 l 1,3,-1
 85 0 l 1,4,-1
 85 692 l 1,5,-1
 162 692 l 1,6,-1
 162 382 l 1,7,-1
 514 382 l 1,8,-1
 514 692 l 1,9,-1
 590 692 l 1,10,-1
 590 0 l 1,11,-1
 514 0 l 1,0,-1
172 791 m 1,12,-1
 306 926 l 1,13,-1
 371 926 l 1,14,-1
 505 791 l 1,15,-1
 421 791 l 1,16,-1
 339 871 l 1,17,-1
 256 791 l 1,18,-1
 172 791 l 1,12,-1
EndSplineSet
Position2: "'cpsp' Capital Spacing in Latin lookup 0 subtable" dx=5 dy=0 dh=10 dv=0
EndChar

StartChar: hcircumflex
Encoding: 293 293 230
Width: 537
GlyphClass: 2
Flags: W
LayerCount: 2
Fore
SplineSet
147 0 m 1,0,-1
 72 0 l 1,1,-1
 72 718 l 1,2,-1
 147 718 l 1,3,-1
 147 472 l 1,4,5
 227 510 227 510 301 510 c 0,6,7
 401 510 401 510 435.5 456 c 128,-1,8
 470 402 470 402 470 264 c 2,9,-1
 470 0 l 1,10,-1
 395 0 l 1,11,-1
 395 262 l 2,12,13
 395 366 395 366 374.5 404.5 c 128,-1,14
 354 443 354 443 288 443 c 0,15,16
 225 443 225 443 166 420 c 1,17,-1
 147 413 l 1,18,-1
 147 0 l 1,0,-1
118 774 m 1,19,-1
 241 914 l 1,20,-1
 292 914 l 1,21,-1
 416 774 l 1,22,-1
 341 774 l 1,23,-1
 268 861 l 1,24,-1
 193 774 l 1,25,-1
 118 774 l 1,19,-1
EndSplineSet
EndChar

StartChar: Hbar
Encoding: 294 294 231
Width: 686
GlyphClass: 2
Flags: W
LayerCount: 2
Fore
SplineSet
15 508 m 1,0,-1
 15 573 l 1,1,-1
 89 573 l 1,2,-1
 89 692 l 1,3,-1
 166 692 l 1,4,-1
 166 573 l 1,5,-1
 518 573 l 1,6,-1
 518 692 l 1,7,-1
 594 692 l 1,8,-1
 594 573 l 1,9,-1
 677 573 l 1,10,-1
 677 508 l 1,11,-1
 594 508 l 1,12,-1
 594 0 l 1,13,-1
 518 0 l 1,14,-1
 518 313 l 1,15,-1
 166 313 l 1,16,-1
 166 0 l 1,17,-1
 89 0 l 1,18,-1
 89 508 l 1,19,-1
 15 508 l 1,0,-1
166 382 m 1,20,-1
 518 382 l 1,21,-1
 518 508 l 1,22,-1
 166 508 l 1,23,-1
 166 382 l 1,20,-1
EndSplineSet
Position2: "'cpsp' Capital Spacing in Latin lookup 0 subtable" dx=5 dy=0 dh=10 dv=0
EndChar

StartChar: hbar
Encoding: 295 295 232
Width: 537
GlyphClass: 2
Flags: W
LayerCount: 2
Fore
SplineSet
10 580 m 1,0,-1
 10 646 l 1,1,-1
 72 646 l 1,2,-1
 72 718 l 1,3,-1
 147 718 l 1,4,-1
 147 646 l 1,5,-1
 301 646 l 1,6,-1
 301 580 l 1,7,-1
 147 580 l 1,8,-1
 147 472 l 1,9,10
 227 510 227 510 301 510 c 0,11,12
 401 510 401 510 435.5 456 c 128,-1,13
 470 402 470 402 470 264 c 2,14,-1
 470 0 l 1,15,-1
 395 0 l 1,16,-1
 395 262 l 2,17,18
 395 366 395 366 374.5 404.5 c 128,-1,19
 354 443 354 443 288 443 c 0,20,21
 225 443 225 443 166 420 c 1,22,-1
 147 413 l 1,23,-1
 147 0 l 1,24,-1
 72 0 l 1,25,-1
 72 580 l 1,26,-1
 10 580 l 1,0,-1
EndSplineSet
EndChar

StartChar: Itilde
Encoding: 296 296 233
Width: 246
GlyphClass: 2
Flags: W
LayerCount: 2
Fore
SplineSet
85 0 m 1,0,-1
 85 692 l 1,1,-1
 162 692 l 1,2,-1
 162 0 l 1,3,-1
 85 0 l 1,0,-1
200 803 m 0,4,5
 178 803 178 803 116 830 c 128,-1,6
 54 857 54 857 42 857 c 0,7,8
 19 857 19 857 -20 821 c 2,9,-1
 -33 809 l 1,10,-1
 -50 865 l 1,11,12
 -31 887 -31 887 -5 905 c 128,-1,13
 21 923 21 923 43.5 923 c 128,-1,14
 66 923 66 923 127.5 896 c 128,-1,15
 189 869 189 869 200 869 c 0,16,17
 219 869 219 869 256 904 c 1,18,-1
 269 915 l 1,19,-1
 287 859 l 1,20,21
 240 803 240 803 200 803 c 0,4,5
EndSplineSet
Position2: "'cpsp' Capital Spacing in Latin lookup 0 subtable" dx=5 dy=0 dh=10 dv=0
EndChar

StartChar: itilde
Encoding: 297 297 234
Width: 219
GlyphClass: 2
Flags: W
LayerCount: 2
Fore
SplineSet
72 500 m 1,0,-1
 147 500 l 1,1,-1
 147 0 l 1,2,-1
 72 0 l 1,3,-1
 72 500 l 1,0,-1
183 612 m 0,4,5
 162 612 162 612 110.5 635.5 c 128,-1,6
 59 659 59 659 46 659 c 0,7,8
 23 659 23 659 -16 629 c 2,9,-1
 -29 619 l 1,10,-1
 -47 667 l 1,11,12
 3 719 3 719 44 719 c 0,13,14
 65 719 65 719 117 696 c 128,-1,15
 169 673 169 673 180 673 c 0,16,17
 202 673 202 673 240 702 c 2,18,-1
 252 711 l 1,19,-1
 269 663 l 1,20,21
 223 612 223 612 183 612 c 0,4,5
EndSplineSet
EndChar

StartChar: Imacron
Encoding: 298 298 235
Width: 246
GlyphClass: 2
Flags: W
LayerCount: 2
Fore
SplineSet
85 0 m 1,0,-1
 85 692 l 1,1,-1
 162 692 l 1,2,-1
 162 0 l 1,3,-1
 85 0 l 1,0,-1
-30 812 m 1,4,-1
 -30 870 l 1,5,-1
 281 870 l 1,6,-1
 281 812 l 1,7,-1
 -30 812 l 1,4,-1
EndSplineSet
Position2: "'cpsp' Capital Spacing in Latin lookup 0 subtable" dx=5 dy=0 dh=10 dv=0
EndChar

StartChar: imacron
Encoding: 299 299 236
Width: 219
GlyphClass: 2
Flags: W
LayerCount: 2
Fore
SplineSet
72 500 m 1,0,-1
 147 500 l 1,1,-1
 147 0 l 1,2,-1
 72 0 l 1,3,-1
 72 500 l 1,0,-1
-28 624 m 1,4,-1
 -28 683 l 1,5,-1
 247 683 l 1,6,-1
 247 624 l 1,7,-1
 -28 624 l 1,4,-1
EndSplineSet
EndChar

StartChar: Ibreve
Encoding: 300 300 237
Width: 246
GlyphClass: 2
Flags: W
LayerCount: 2
Fore
SplineSet
85 0 m 1,0,-1
 85 692 l 1,1,-1
 162 692 l 1,2,-1
 162 0 l 1,3,-1
 85 0 l 1,0,-1
131 843 m 128,-1,5
 168 843 168 843 193 864 c 128,-1,6
 218 885 218 885 219 918 c 1,7,-1
 289 918 l 1,8,9
 286 859 286 859 243 823 c 128,-1,10
 200 787 200 787 131 787 c 128,-1,11
 62 787 62 787 19.5 823 c 128,-1,12
 -23 859 -23 859 -26 918 c 1,13,-1
 43 918 l 1,14,15
 44 885 44 885 69 864 c 128,-1,4
 94 843 94 843 131 843 c 128,-1,5
EndSplineSet
Position2: "'cpsp' Capital Spacing in Latin lookup 0 subtable" dx=5 dy=0 dh=10 dv=0
EndChar

StartChar: ibreve
Encoding: 301 301 238
Width: 219
GlyphClass: 2
Flags: W
LayerCount: 2
Fore
SplineSet
72 500 m 1,0,-1
 147 500 l 1,1,-1
 147 0 l 1,2,-1
 72 0 l 1,3,-1
 72 500 l 1,0,-1
47 665 m 128,-1,5
 70 642 70 642 109.5 642 c 128,-1,6
 149 642 149 642 172 665 c 128,-1,7
 195 688 195 688 196 726 c 1,8,-1
 258 726 l 1,9,10
 255 666 255 666 215 626 c 128,-1,11
 175 586 175 586 109.5 586 c 128,-1,12
 44 586 44 586 4 626 c 128,-1,13
 -36 666 -36 666 -39 726 c 1,14,-1
 22 726 l 1,15,4
 24 688 24 688 47 665 c 128,-1,5
EndSplineSet
EndChar

StartChar: Iogonek
Encoding: 302 302 239
Width: 246
GlyphClass: 2
Flags: W
LayerCount: 2
Fore
SplineSet
85 0 m 1,0,-1
 85 692 l 1,1,-1
 162 692 l 1,2,-1
 162 0 l 1,3,4
 86 -69 86 -69 86 -102 c 0,5,6
 86 -121 86 -121 97.5 -133 c 128,-1,7
 109 -145 109 -145 127 -145 c 1,8,-1
 178 -139 l 1,9,-1
 185 -197 l 1,10,11
 140 -206 140 -206 103 -206 c 128,-1,12
 66 -206 66 -206 40 -182.5 c 128,-1,13
 14 -159 14 -159 14 -123.5 c 128,-1,14
 14 -88 14 -88 38.5 -55 c 128,-1,15
 63 -22 63 -22 88 0 c 1,16,-1
 85 0 l 1,0,-1
EndSplineSet
Position2: "'cpsp' Capital Spacing in Latin lookup 0 subtable" dx=5 dy=0 dh=10 dv=0
EndChar

StartChar: iogonek
Encoding: 303 303 240
Width: 219
GlyphClass: 2
Flags: W
LayerCount: 2
Fore
SplineSet
72 0 m 1,0,-1
 72 500 l 1,1,-1
 147 500 l 1,2,-1
 147 0 l 1,3,4
 71 -68 71 -68 71 -102 c 0,5,6
 71 -121 71 -121 82.5 -133 c 128,-1,7
 94 -145 94 -145 112 -145 c 1,8,-1
 163 -139 l 1,9,-1
 170 -197 l 1,10,11
 125 -206 125 -206 88 -206 c 128,-1,12
 51 -206 51 -206 25 -182.5 c 128,-1,13
 -1 -159 -1 -159 -1 -119 c 0,14,15
 -1 -66 -1 -66 76 0 c 1,16,-1
 72 0 l 1,0,-1
72 613 m 1,17,-1
 72 700 l 1,18,-1
 147 700 l 1,19,-1
 147 613 l 1,20,-1
 72 613 l 1,17,-1
EndSplineSet
EndChar

StartChar: Idotaccent
Encoding: 304 304 241
Width: 246
GlyphClass: 2
Flags: W
LayerCount: 2
Fore
SplineSet
85 0 m 1,0,-1
 85 692 l 1,1,-1
 162 692 l 1,2,-1
 162 0 l 1,3,-1
 85 0 l 1,0,-1
86 801 m 1,4,-1
 86 888 l 1,5,-1
 160 888 l 1,6,-1
 160 801 l 1,7,-1
 86 801 l 1,4,-1
EndSplineSet
Position2: "'cpsp' Capital Spacing in Latin lookup 0 subtable" dx=5 dy=0 dh=10 dv=0
EndChar

StartChar: dotlessi
Encoding: 305 305 242
Width: 219
GlyphClass: 2
Flags: W
LayerCount: 2
Fore
SplineSet
72 0 m 1,0,-1
 72 500 l 1,1,-1
 147 500 l 1,2,-1
 147 0 l 1,3,-1
 72 0 l 1,0,-1
EndSplineSet
EndChar

StartChar: Jcircumflex
Encoding: 308 308 243
Width: 289
GlyphClass: 2
Flags: W
LayerCount: 2
Fore
SplineSet
18 -72 m 1,0,-1
 18 -3 l 1,1,2
 90 -3 90 -3 110.5 14.5 c 128,-1,3
 131 32 131 32 131 106 c 2,4,-1
 131 692 l 1,5,-1
 207 692 l 1,6,-1
 208 95 l 2,7,8
 208 11 208 11 180 -28 c 0,9,10
 157 -61 157 -61 89 -69 c 0,11,12
 62 -72 62 -72 18 -72 c 1,0,-1
2 788 m 1,13,-1
 136 923 l 1,14,-1
 201 923 l 1,15,-1
 335 788 l 1,16,-1
 251 788 l 1,17,-1
 169 868 l 1,18,-1
 86 788 l 1,19,-1
 2 788 l 1,13,-1
EndSplineSet
Position2: "'cpsp' Capital Spacing in Latin lookup 0 subtable" dx=5 dy=0 dh=10 dv=0
EndChar

StartChar: jcircumflex
Encoding: 309 309 244
Width: 219
GlyphClass: 2
Flags: W
LayerCount: 2
Fore
SplineSet
73 13 m 2,0,-1
 73 500 l 1,1,-1
 147 500 l 1,2,-1
 147 12 l 2,3,4
 147 -80 147 -80 114 -126 c 128,-1,5
 81 -172 81 -172 -19 -223 c 1,6,-1
 -49 -165 l 1,7,8
 28 -120 28 -120 50.5 -88 c 128,-1,9
 73 -56 73 -56 73 13 c 2,0,-1
-41 592 m 1,10,-1
 82 732 l 1,11,-1
 133 732 l 1,12,-1
 257 592 l 1,13,-1
 182 592 l 1,14,-1
 109 679 l 1,15,-1
 34 592 l 1,16,-1
 -41 592 l 1,10,-1
EndSplineSet
EndChar

StartChar: Kcommaaccent
Encoding: 310 310 245
Width: 568
GlyphClass: 2
Flags: W
LayerCount: 2
Fore
SplineSet
162 0 m 1,0,-1
 85 0 l 1,1,-1
 85 696 l 1,2,-1
 162 696 l 1,3,-1
 162 375 l 1,4,-1
 275 379 l 1,5,-1
 452 696 l 1,6,-1
 541 696 l 1,7,-1
 343 348 l 1,8,-1
 552 0 l 1,9,-1
 461 0 l 1,10,-1
 277 306 l 1,11,-1
 162 302 l 1,12,-1
 162 0 l 1,0,-1
264 -78 m 1,13,-1
 338 -78 l 1,14,-1
 289 -285 l 1,15,-1
 224 -285 l 1,16,-1
 264 -78 l 1,13,-1
EndSplineSet
Position2: "'cpsp' Capital Spacing in Latin lookup 0 subtable" dx=5 dy=0 dh=10 dv=0
EndChar

StartChar: kcommaaccent
Encoding: 311 311 246
Width: 479
GlyphClass: 2
Flags: W
LayerCount: 2
Fore
SplineSet
100 -285 m 1,0,-1
 140 -78 l 1,1,-1
 215 -78 l 1,2,-1
 165 -285 l 1,3,-1
 100 -285 l 1,0,-1
147 0 m 1,4,-1
 72 0 l 1,5,-1
 72 718 l 1,6,-1
 147 718 l 1,7,-1
 147 294 l 1,8,-1
 225 298 l 1,9,-1
 368 500 l 1,10,-1
 453 500 l 1,11,-1
 290 270 l 1,12,-1
 460 0 l 1,13,-1
 375 0 l 1,14,-1
 226 232 l 1,15,-1
 147 229 l 1,16,-1
 147 0 l 1,4,-1
EndSplineSet
EndChar

StartChar: Lacute
Encoding: 313 313 247
Width: 479
GlyphClass: 2
Flags: W
LayerCount: 2
Fore
SplineSet
466 0 m 1,0,-1
 85 0 l 1,1,-1
 85 696 l 1,2,-1
 162 696 l 1,3,-1
 162 74 l 1,4,-1
 466 74 l 1,5,-1
 466 0 l 1,0,-1
134 831 m 1,6,-1
 350 931 l 1,7,-1
 376 865 l 1,8,-1
 157 778 l 1,9,-1
 134 831 l 1,6,-1
EndSplineSet
Position2: "'cpsp' Capital Spacing in Latin lookup 0 subtable" dx=5 dy=0 dh=10 dv=0
EndChar

StartChar: lacute
Encoding: 314 314 248
Width: 231
GlyphClass: 2
Flags: W
LayerCount: 2
Fore
SplineSet
78 0 m 1,0,-1
 78 718 l 1,1,-1
 153 718 l 1,2,-1
 153 0 l 1,3,-1
 78 0 l 1,0,-1
52 846 m 1,4,-1
 268 944 l 1,5,-1
 294 880 l 1,6,-1
 73 795 l 1,7,-1
 52 846 l 1,4,-1
EndSplineSet
EndChar

StartChar: Lcommaaccent
Encoding: 315 315 249
Width: 479
GlyphClass: 2
Flags: W
LayerCount: 2
Fore
SplineSet
241 -78 m 1,0,-1
 315 -78 l 1,1,-1
 265 -285 l 1,2,-1
 200 -285 l 1,3,-1
 241 -78 l 1,0,-1
466 0 m 1,4,-1
 85 0 l 1,5,-1
 85 692 l 1,6,-1
 162 692 l 1,7,-1
 162 69 l 1,8,-1
 466 69 l 1,9,-1
 466 0 l 1,4,-1
EndSplineSet
Position2: "'cpsp' Capital Spacing in Latin lookup 0 subtable" dx=5 dy=0 dh=10 dv=0
EndChar

StartChar: lcommaaccent
Encoding: 316 316 250
Width: 231
GlyphClass: 2
Flags: W
LayerCount: 2
Fore
SplineSet
78 0 m 1,0,-1
 78 718 l 1,1,-1
 153 718 l 1,2,-1
 153 0 l 1,3,-1
 78 0 l 1,0,-1
74 -78 m 1,4,-1
 148 -78 l 1,5,-1
 98 -285 l 1,6,-1
 33 -285 l 1,7,-1
 74 -78 l 1,4,-1
EndSplineSet
EndChar

StartChar: Lcaron
Encoding: 317 317 251
Width: 494
GlyphClass: 2
Flags: W
LayerCount: 2
Fore
SplineSet
439 696 m 1,0,-1
 439 462 l 1,1,-1
 366 462 l 1,2,-1
 366 696 l 1,3,-1
 439 696 l 1,0,-1
466 0 m 1,4,-1
 85 0 l 1,5,-1
 85 692 l 1,6,-1
 162 692 l 1,7,-1
 162 69 l 1,8,-1
 466 69 l 1,9,-1
 466 0 l 1,4,-1
EndSplineSet
Position2: "'cpsp' Capital Spacing in Latin lookup 0 subtable" dx=5 dy=0 dh=10 dv=0
EndChar

StartChar: lcaron
Encoding: 318 318 252
Width: 270
GlyphClass: 2
Flags: W
LayerCount: 2
Fore
SplineSet
255 683 m 1,0,-1
 329 683 l 1,1,-1
 280 476 l 1,2,-1
 214 476 l 1,3,-1
 255 683 l 1,0,-1
78 0 m 1,4,-1
 78 718 l 1,5,-1
 153 718 l 1,6,-1
 153 0 l 1,7,-1
 78 0 l 1,4,-1
EndSplineSet
EndChar

StartChar: Lslash
Encoding: 321 321 253
Width: 483
GlyphClass: 2
Flags: W
LayerCount: 2
Fore
SplineSet
471 0 m 1,0,-1
 90 0 l 1,1,-1
 90 272 l 1,2,-1
 33 232 l 1,3,-1
 -4 284 l 1,4,-1
 90 350 l 1,5,-1
 90 692 l 1,6,-1
 167 692 l 1,7,-1
 167 404 l 1,8,-1
 309 503 l 1,9,-1
 346 452 l 1,10,-1
 167 326 l 1,11,-1
 167 69 l 1,12,-1
 471 69 l 1,13,-1
 471 0 l 1,0,-1
EndSplineSet
Position2: "'cpsp' Capital Spacing in Latin lookup 0 subtable" dx=5 dy=0 dh=10 dv=0
EndChar

StartChar: lslash
Encoding: 322 322 254
Width: 310
GlyphClass: 2
Flags: W
LayerCount: 2
Fore
SplineSet
114 0 m 1,0,-1
 114 279 l 1,1,-1
 47 232 l 1,2,-1
 10 284 l 1,3,-1
 114 357 l 1,4,-1
 114 718 l 1,5,-1
 189 718 l 1,6,-1
 189 409 l 1,7,-1
 263 461 l 1,8,-1
 300 409 l 1,9,-1
 189 331 l 1,10,-1
 189 0 l 1,11,-1
 114 0 l 1,0,-1
EndSplineSet
EndChar

StartChar: Nacute
Encoding: 323 323 255
Width: 676
GlyphClass: 2
Flags: W
LayerCount: 2
Fore
SplineSet
85 0 m 1,0,-1
 85 692 l 1,1,-1
 229 692 l 1,2,-1
 494 68 l 1,3,-1
 515 68 l 1,4,-1
 515 692 l 1,5,-1
 591 692 l 1,6,-1
 591 0 l 1,7,-1
 450 0 l 1,8,-1
 181 624 l 1,9,-1
 162 624 l 1,10,-1
 162 0 l 1,11,-1
 85 0 l 1,0,-1
220 831 m 1,12,-1
 436 931 l 1,13,-1
 462 865 l 1,14,-1
 243 778 l 1,15,-1
 220 831 l 1,12,-1
EndSplineSet
Position2: "'cpsp' Capital Spacing in Latin lookup 0 subtable" dx=5 dy=0 dh=10 dv=0
EndChar

StartChar: nacute
Encoding: 324 324 256
Width: 537
GlyphClass: 2
Flags: W
LayerCount: 2
Fore
SplineSet
72 0 m 1,0,-1
 72 500 l 1,1,-1
 146 500 l 1,2,-1
 146 465 l 1,3,-1
 168 476 l 2,4,5
 191 488 191 488 229.5 499 c 128,-1,6
 268 510 268 510 301 510 c 0,7,8
 401 510 401 510 435.5 456 c 128,-1,9
 470 402 470 402 470 264 c 2,10,11
 470 264 470 264 470 0 c 1,12,-1
 396 0 l 1,13,-1
 396 262 l 2,14,15
 396 366 396 366 375.5 404.5 c 128,-1,16
 355 443 355 443 285.5 443 c 128,-1,17
 216 443 216 443 147 406 c 1,18,-1
 147 0 l 1,19,-1
 72 0 l 1,0,-1
160 642 m 1,20,-1
 376 740 l 1,21,-1
 402 676 l 1,22,-1
 181 591 l 1,23,-1
 160 642 l 1,20,-1
EndSplineSet
EndChar

StartChar: Ncommaaccent
Encoding: 325 325 257
Width: 676
GlyphClass: 2
Flags: W
LayerCount: 2
Fore
SplineSet
324 -78 m 1,0,-1
 398 -78 l 1,1,-1
 348 -285 l 1,2,-1
 283 -285 l 1,3,-1
 324 -78 l 1,0,-1
85 0 m 1,4,-1
 85 692 l 1,5,-1
 229 692 l 1,6,-1
 494 68 l 1,7,-1
 515 68 l 1,8,-1
 515 692 l 1,9,-1
 591 692 l 1,10,-1
 591 0 l 1,11,-1
 450 0 l 1,12,-1
 181 624 l 1,13,-1
 162 624 l 1,14,-1
 162 0 l 1,15,-1
 85 0 l 1,4,-1
EndSplineSet
Position2: "'cpsp' Capital Spacing in Latin lookup 0 subtable" dx=5 dy=0 dh=10 dv=0
EndChar

StartChar: ncommaaccent
Encoding: 326 326 258
Width: 537
GlyphClass: 2
Flags: W
LayerCount: 2
Fore
SplineSet
127 -285 m 1,0,-1
 168 -78 l 1,1,-1
 242 -78 l 1,2,-1
 193 -285 l 1,3,-1
 127 -285 l 1,0,-1
147 0 m 1,4,-1
 72 0 l 1,5,-1
 72 500 l 1,6,-1
 146 500 l 1,7,-1
 146 465 l 1,8,9
 227 510 227 510 301 510 c 0,10,11
 401 510 401 510 435.5 456 c 128,-1,12
 470 402 470 402 470 264 c 2,13,-1
 470 0 l 1,14,-1
 396 0 l 1,15,-1
 396 262 l 2,16,17
 396 366 396 366 375.5 404.5 c 128,-1,18
 355 443 355 443 288 443 c 0,19,20
 256 443 256 443 220.5 433.5 c 128,-1,21
 185 424 185 424 166 415 c 2,22,-1
 147 406 l 1,23,-1
 147 0 l 1,4,-1
EndSplineSet
EndChar

StartChar: Ncaron
Encoding: 327 327 259
Width: 676
GlyphClass: 2
Flags: W
LayerCount: 2
Fore
SplineSet
85 0 m 1,0,-1
 85 692 l 1,1,-1
 229 692 l 1,2,-1
 494 68 l 1,3,-1
 515 68 l 1,4,-1
 515 692 l 1,5,-1
 591 692 l 1,6,-1
 591 0 l 1,7,-1
 450 0 l 1,8,-1
 181 624 l 1,9,-1
 162 624 l 1,10,-1
 162 0 l 1,11,-1
 85 0 l 1,0,-1
306 788 m 1,12,-1
 172 923 l 1,13,-1
 256 923 l 1,14,-1
 339 843 l 1,15,-1
 421 923 l 1,16,-1
 505 923 l 1,17,-1
 371 788 l 1,18,-1
 306 788 l 1,12,-1
EndSplineSet
Position2: "'cpsp' Capital Spacing in Latin lookup 0 subtable" dx=5 dy=0 dh=10 dv=0
EndChar

StartChar: ncaron
Encoding: 328 328 260
Width: 537
GlyphClass: 2
Flags: W
LayerCount: 2
Fore
SplineSet
147 0 m 1,0,-1
 72 0 l 1,1,-1
 72 500 l 1,2,-1
 146 500 l 1,3,-1
 146 465 l 1,4,5
 227 510 227 510 301 510 c 0,6,7
 401 510 401 510 435.5 456 c 128,-1,8
 470 402 470 402 470 264 c 2,9,-1
 470 0 l 1,10,-1
 396 0 l 1,11,-1
 396 262 l 2,12,13
 396 366 396 366 375.5 404.5 c 128,-1,14
 355 443 355 443 288 443 c 0,15,16
 256 443 256 443 220.5 433.5 c 128,-1,17
 185 424 185 424 166 415 c 2,18,-1
 147 406 l 1,19,-1
 147 0 l 1,0,-1
242 592 m 1,20,-1
 119 732 l 1,21,-1
 193 732 l 1,22,-1
 268 645 l 1,23,-1
 342 732 l 1,24,-1
 417 732 l 1,25,-1
 292 592 l 1,26,-1
 242 592 l 1,20,-1
EndSplineSet
EndChar

StartChar: Eng
Encoding: 330 330 261
Width: 676
GlyphClass: 2
Flags: W
LayerCount: 2
Fore
SplineSet
85 0 m 1,0,-1
 85 692 l 1,1,-1
 229 692 l 1,2,-1
 494 68 l 1,3,-1
 515 68 l 1,4,-1
 515 692 l 1,5,-1
 591 692 l 1,6,-1
 591 575 l 1,7,-1
 592 -22 l 2,8,9
 592 -106 592 -106 564 -146 c 0,10,11
 541 -178 541 -178 473 -186 c 0,12,13
 446 -189 446 -189 402 -189 c 1,14,-1
 402 -120 l 1,15,16
 474 -120 474 -120 494.5 -102.5 c 128,-1,17
 515 -85 515 -85 515 -11 c 2,18,-1
 515 0 l 1,19,-1
 450 0 l 1,20,-1
 181 624 l 1,21,-1
 162 624 l 1,22,-1
 162 0 l 1,23,-1
 85 0 l 1,0,-1
EndSplineSet
Position2: "'cpsp' Capital Spacing in Latin lookup 0 subtable" dx=5 dy=0 dh=10 dv=0
EndChar

StartChar: eng
Encoding: 331 331 262
Width: 538
GlyphClass: 2
Flags: W
LayerCount: 2
Fore
SplineSet
146 0 m 1,0,-1
 72 0 l 1,1,-1
 72 500 l 1,2,-1
 146 500 l 1,3,-1
 146 467 l 1,4,5
 233 510 233 510 304 510 c 0,6,7
 400 510 400 510 435.5 452.5 c 128,-1,8
 471 395 471 395 471 260 c 2,9,-1
 471 -2 l 2,10,11
 471 -95 471 -95 440 -140 c 128,-1,12
 409 -185 409 -185 310 -237 c 1,13,-1
 278 -174 l 1,14,15
 353 -131 353 -131 374.5 -100 c 128,-1,16
 396 -69 396 -69 396 -4 c 2,17,-1
 396 259 l 2,18,19
 396 359 396 359 375.5 400.5 c 128,-1,20
 355 442 355 442 292 442 c 0,21,22
 263 442 263 442 226.5 433 c 128,-1,23
 190 424 190 424 168 414 c 2,24,-1
 146 405 l 1,25,-1
 146 0 l 1,0,-1
EndSplineSet
EndChar

StartChar: Omacron
Encoding: 332 332 263
Width: 660
GlyphClass: 2
Flags: W
LayerCount: 2
Fore
SplineSet
176 124.5 m 128,-1,1
 216 58 216 58 330.5 58 c 128,-1,2
 445 58 445 58 484.5 123 c 128,-1,3
 524 188 524 188 524 341 c 128,-1,4
 524 494 524 494 483 564 c 128,-1,5
 442 634 442 634 329.5 634 c 128,-1,6
 217 634 217 634 176.5 564.5 c 128,-1,7
 136 495 136 495 136 343 c 128,-1,0
 136 191 136 191 176 124.5 c 128,-1,1
545 73 m 128,-1,9
 486 -10 486 -10 330.5 -10 c 128,-1,10
 175 -10 175 -10 116 75 c 128,-1,11
 57 160 57 160 57 342.5 c 128,-1,12
 57 525 57 525 117 613.5 c 128,-1,13
 177 702 177 702 330 702 c 128,-1,14
 483 702 483 702 543.5 614 c 128,-1,15
 604 526 604 526 604 341 c 128,-1,8
 604 156 604 156 545 73 c 128,-1,9
174 812 m 1,16,-1
 174 870 l 1,17,-1
 485 870 l 1,18,-1
 485 812 l 1,19,-1
 174 812 l 1,16,-1
EndSplineSet
Position2: "'cpsp' Capital Spacing in Latin lookup 0 subtable" dx=5 dy=0 dh=10 dv=0
EndChar

StartChar: omacron
Encoding: 333 333 264
Width: 528
GlyphClass: 2
Flags: W
LayerCount: 2
Fore
SplineSet
429.5 449 m 128,-1,1
 478 388 478 388 478 251 c 128,-1,2
 478 114 478 114 432 52 c 128,-1,3
 386 -10 386 -10 264 -10 c 128,-1,4
 142 -10 142 -10 96 52 c 128,-1,5
 50 114 50 114 50 251 c 128,-1,6
 50 388 50 388 99 449 c 128,-1,7
 148 510 148 510 264.5 510 c 128,-1,0
 381 510 381 510 429.5 449 c 128,-1,1
375 98.5 m 128,-1,9
 401 142 401 142 401 252 c 128,-1,10
 401 362 401 362 372 403.5 c 128,-1,11
 343 445 343 445 264.5 445 c 128,-1,12
 186 445 186 445 156.5 403.5 c 128,-1,13
 127 362 127 362 127 252.5 c 128,-1,14
 127 143 127 143 153.5 99 c 128,-1,15
 180 55 180 55 264.5 55 c 128,-1,8
 349 55 349 55 375 98.5 c 128,-1,9
128 636 m 1,16,-1
 128 695 l 1,17,-1
 403 695 l 1,18,-1
 403 636 l 1,19,-1
 128 636 l 1,16,-1
EndSplineSet
EndChar

StartChar: Obreve
Encoding: 334 334 265
Width: 660
GlyphClass: 2
Flags: W
LayerCount: 2
Fore
SplineSet
176 124.5 m 128,-1,1
 216 58 216 58 330.5 58 c 128,-1,2
 445 58 445 58 484.5 123 c 128,-1,3
 524 188 524 188 524 341 c 128,-1,4
 524 494 524 494 483 564 c 128,-1,5
 442 634 442 634 329.5 634 c 128,-1,6
 217 634 217 634 176.5 564.5 c 128,-1,7
 136 495 136 495 136 343 c 128,-1,0
 136 191 136 191 176 124.5 c 128,-1,1
545 73 m 128,-1,9
 486 -10 486 -10 330.5 -10 c 128,-1,10
 175 -10 175 -10 116 75 c 128,-1,11
 57 160 57 160 57 342.5 c 128,-1,12
 57 525 57 525 117 613.5 c 128,-1,13
 177 702 177 702 330 702 c 128,-1,14
 483 702 483 702 543.5 614 c 128,-1,15
 604 526 604 526 604 341 c 128,-1,8
 604 156 604 156 545 73 c 128,-1,9
331 843 m 128,-1,17
 368 843 368 843 393 864 c 128,-1,18
 418 885 418 885 419 918 c 1,19,-1
 489 918 l 1,20,21
 486 859 486 859 443 823 c 128,-1,22
 400 787 400 787 331 787 c 128,-1,23
 262 787 262 787 219.5 823 c 128,-1,24
 177 859 177 859 174 918 c 1,25,-1
 243 918 l 1,26,27
 244 885 244 885 269 864 c 128,-1,16
 294 843 294 843 331 843 c 128,-1,17
EndSplineSet
Position2: "'cpsp' Capital Spacing in Latin lookup 0 subtable" dx=5 dy=0 dh=10 dv=0
EndChar

StartChar: obreve
Encoding: 335 335 266
Width: 528
GlyphClass: 2
Flags: W
LayerCount: 2
Fore
SplineSet
429.5 449 m 128,-1,1
 478 388 478 388 478 251 c 128,-1,2
 478 114 478 114 432 52 c 128,-1,3
 386 -10 386 -10 264 -10 c 128,-1,4
 142 -10 142 -10 96 52 c 128,-1,5
 50 114 50 114 50 251 c 128,-1,6
 50 388 50 388 99 449 c 128,-1,7
 148 510 148 510 264.5 510 c 128,-1,0
 381 510 381 510 429.5 449 c 128,-1,1
375 98.5 m 128,-1,9
 401 142 401 142 401 252 c 128,-1,10
 401 362 401 362 372 403.5 c 128,-1,11
 343 445 343 445 264.5 445 c 128,-1,12
 186 445 186 445 156.5 403.5 c 128,-1,13
 127 362 127 362 127 252.5 c 128,-1,14
 127 143 127 143 153.5 99 c 128,-1,15
 180 55 180 55 264.5 55 c 128,-1,8
 349 55 349 55 375 98.5 c 128,-1,9
204 665 m 128,-1,17
 227 642 227 642 266.5 642 c 128,-1,18
 306 642 306 642 329 665 c 128,-1,19
 352 688 352 688 353 726 c 1,20,-1
 415 726 l 1,21,22
 412 666 412 666 372 626 c 128,-1,23
 332 586 332 586 266.5 586 c 128,-1,24
 201 586 201 586 161 626 c 128,-1,25
 121 666 121 666 118 726 c 1,26,-1
 179 726 l 1,27,16
 181 688 181 688 204 665 c 128,-1,17
EndSplineSet
EndChar

StartChar: Ohungarumlaut
Encoding: 336 336 267
Width: 660
GlyphClass: 2
Flags: W
LayerCount: 2
Fore
SplineSet
176 124.5 m 128,-1,1
 216 58 216 58 330.5 58 c 128,-1,2
 445 58 445 58 484.5 123 c 128,-1,3
 524 188 524 188 524 341 c 128,-1,4
 524 494 524 494 483 564 c 128,-1,5
 442 634 442 634 329.5 634 c 128,-1,6
 217 634 217 634 176.5 564.5 c 128,-1,7
 136 495 136 495 136 343 c 128,-1,0
 136 191 136 191 176 124.5 c 128,-1,1
545 73 m 128,-1,9
 486 -10 486 -10 330.5 -10 c 128,-1,10
 175 -10 175 -10 116 75 c 128,-1,11
 57 160 57 160 57 342.5 c 128,-1,12
 57 525 57 525 117 613.5 c 128,-1,13
 177 702 177 702 330 702 c 128,-1,14
 483 702 483 702 543.5 614 c 128,-1,15
 604 526 604 526 604 341 c 128,-1,8
 604 156 604 156 545 73 c 128,-1,9
348 785 m 1,16,-1
 490 916 l 1,17,-1
 545 881 l 1,18,-1
 399 752 l 1,19,-1
 348 785 l 1,16,-1
151 785 m 1,20,-1
 293 917 l 1,21,-1
 347 882 l 1,22,-1
 202 753 l 1,23,-1
 151 785 l 1,20,-1
EndSplineSet
Position2: "'cpsp' Capital Spacing in Latin lookup 0 subtable" dx=5 dy=0 dh=10 dv=0
EndChar

StartChar: ohungarumlaut
Encoding: 337 337 268
Width: 528
GlyphClass: 2
Flags: W
LayerCount: 2
Fore
SplineSet
429.5 449 m 128,-1,1
 478 388 478 388 478 251 c 128,-1,2
 478 114 478 114 432 52 c 128,-1,3
 386 -10 386 -10 264 -10 c 128,-1,4
 142 -10 142 -10 96 52 c 128,-1,5
 50 114 50 114 50 251 c 128,-1,6
 50 388 50 388 99 449 c 128,-1,7
 148 510 148 510 264.5 510 c 128,-1,0
 381 510 381 510 429.5 449 c 128,-1,1
375 98.5 m 128,-1,9
 401 142 401 142 401 252 c 128,-1,10
 401 362 401 362 372 403.5 c 128,-1,11
 343 445 343 445 264.5 445 c 128,-1,12
 186 445 186 445 156.5 403.5 c 128,-1,13
 127 362 127 362 127 252.5 c 128,-1,14
 127 143 127 143 153.5 99 c 128,-1,15
 180 55 180 55 264.5 55 c 128,-1,8
 349 55 349 55 375 98.5 c 128,-1,9
286 624 m 1,16,-1
 431 763 l 1,17,-1
 485 720 l 1,18,-1
 337 582 l 1,19,-1
 286 624 l 1,16,-1
93 624 m 1,20,-1
 238 762 l 1,21,-1
 292 720 l 1,22,-1
 145 582 l 1,23,-1
 93 624 l 1,20,-1
EndSplineSet
EndChar

StartChar: OE
Encoding: 338 338 269
Width: 925
GlyphClass: 2
Flags: W
LayerCount: 2
Fore
SplineSet
878 -1 m 1,0,-1
 465 -1 l 1,1,2
 373 -10 373 -10 322 -10 c 0,3,4
 169 -10 169 -10 113 74.5 c 128,-1,5
 57 159 57 159 57 346.5 c 128,-1,6
 57 534 57 534 115 620 c 128,-1,7
 173 706 173 706 322 706 c 0,8,9
 401 706 401 706 463 696 c 1,10,-1
 878 696 l 1,11,-1
 878 622 l 1,12,-1
 539 622 l 1,13,-1
 539 393 l 1,14,-1
 818 393 l 1,15,-1
 818 319 l 1,16,-1
 539 319 l 1,17,-1
 539 74 l 1,18,-1
 878 74 l 1,19,-1
 878 -1 l 1,0,-1
332 65 m 0,20,21
 384 65 384 65 463 72 c 1,22,-1
 463 622 l 1,23,24
 358 631 358 631 330 631 c 0,25,26
 217 631 217 631 177 566 c 128,-1,27
 137 501 137 501 137 346.5 c 128,-1,28
 137 192 137 192 176 128.5 c 128,-1,29
 215 65 215 65 332 65 c 0,20,21
EndSplineSet
Position2: "'cpsp' Capital Spacing in Latin lookup 0 subtable" dx=5 dy=0 dh=10 dv=0
EndChar

StartChar: oe
Encoding: 339 339 270
Width: 857
GlyphClass: 2
Flags: W
LayerCount: 2
Fore
SplineSet
763 65 m 2,0,-1
 792 67 l 1,1,-1
 794 6 l 1,2,3
 681 -10 681 -10 600 -10 c 0,4,5
 481 -10 481 -10 438 81 c 1,6,7
 416 33 416 33 375 11.5 c 128,-1,8
 334 -10 334 -10 265 -10 c 0,9,10
 142 -10 142 -10 96 52 c 128,-1,11
 50 114 50 114 50 251.5 c 128,-1,12
 50 389 50 389 99.5 449.5 c 128,-1,13
 149 510 149 510 265 510 c 0,14,15
 333 510 333 510 375.5 485.5 c 128,-1,16
 418 461 418 461 441 405 c 1,17,18
 486 510 486 510 611 510 c 0,19,20
 712 510 712 510 762 453.5 c 128,-1,21
 812 397 812 397 812 276 c 1,22,-1
 808 218 l 1,23,-1
 478 218 l 1,24,25
 478 136 478 136 508 97 c 128,-1,26
 538 58 538 58 600 58 c 128,-1,27
 662 58 662 58 763 65 c 2,0,-1
154 101.5 m 128,-1,29
 181 57 181 57 264.5 57 c 128,-1,30
 348 57 348 57 374.5 102 c 128,-1,31
 401 147 401 147 401 251 c 128,-1,32
 401 355 401 355 369.5 398.5 c 128,-1,33
 338 442 338 442 262 442 c 128,-1,34
 186 442 186 442 156.5 401.5 c 128,-1,35
 127 361 127 361 127 253.5 c 128,-1,28
 127 146 127 146 154 101.5 c 128,-1,29
477 279 m 1,36,-1
 737 279 l 1,37,38
 737 368 737 368 707.5 405.5 c 128,-1,39
 678 443 678 443 611 443 c 0,40,41
 477 443 477 443 477 279 c 1,36,-1
EndSplineSet
EndChar

StartChar: Racute
Encoding: 340 340 271
Width: 616
GlyphClass: 2
Flags: W
LayerCount: 2
Fore
SplineSet
162 265 m 1,0,-1
 162 0 l 1,1,-1
 85 0 l 1,2,-1
 85 692 l 1,3,-1
 341 692 l 2,4,5
 451 692 451 692 506.5 641 c 128,-1,6
 562 590 562 590 562 482 c 0,7,8
 562 322 562 322 435 281 c 1,9,-1
 568 0 l 1,10,-1
 483 0 l 1,11,-1
 358 265 l 1,12,-1
 162 265 l 1,0,-1
341 624 m 2,13,-1
 162 624 l 1,14,-1
 162 333 l 1,15,-1
 342 333 l 2,16,17
 483 333 483 333 483 478.5 c 128,-1,18
 483 624 483 624 341 624 c 2,13,-1
187 831 m 1,19,-1
 403 931 l 1,20,-1
 429 865 l 1,21,-1
 210 778 l 1,22,-1
 187 831 l 1,19,-1
EndSplineSet
Position2: "'cpsp' Capital Spacing in Latin lookup 0 subtable" dx=5 dy=0 dh=10 dv=0
EndChar

StartChar: racute
Encoding: 341 341 272
Width: 346
GlyphClass: 2
Flags: W
LayerCount: 2
Fore
SplineSet
72 0 m 1,0,-1
 72 500 l 1,1,-1
 146 500 l 1,2,-1
 146 432 l 1,3,4
 233 492 233 492 329 511 c 1,5,-1
 329 435 l 1,6,7
 287 427 287 427 241.5 410 c 128,-1,8
 196 393 196 393 172 380 c 2,9,-1
 147 367 l 1,10,-1
 147 0 l 1,11,-1
 72 0 l 1,0,-1
67 642 m 1,12,-1
 283 740 l 1,13,-1
 309 676 l 1,14,-1
 88 591 l 1,15,-1
 67 642 l 1,12,-1
EndSplineSet
EndChar

StartChar: Rcommaaccent
Encoding: 342 342 273
Width: 616
GlyphClass: 2
Flags: W
LayerCount: 2
Fore
SplineSet
245 -285 m 1,0,-1
 286 -78 l 1,1,-1
 360 -78 l 1,2,-1
 310 -285 l 1,3,-1
 245 -285 l 1,0,-1
162 265 m 1,4,-1
 162 0 l 1,5,-1
 85 0 l 1,6,-1
 85 692 l 1,7,-1
 341 692 l 2,8,9
 451 692 451 692 506.5 641 c 128,-1,10
 562 590 562 590 562 482 c 0,11,12
 562 322 562 322 435 281 c 1,13,-1
 568 0 l 1,14,-1
 483 0 l 1,15,-1
 358 265 l 1,16,-1
 162 265 l 1,4,-1
342 333 m 2,17,18
 483 333 483 333 483 478.5 c 128,-1,19
 483 624 483 624 341 624 c 2,20,-1
 162 624 l 1,21,-1
 162 333 l 1,22,-1
 342 333 l 2,17,18
EndSplineSet
Position2: "'cpsp' Capital Spacing in Latin lookup 0 subtable" dx=5 dy=0 dh=10 dv=0
EndChar

StartChar: rcommaaccent
Encoding: 343 343 274
Width: 346
GlyphClass: 2
Flags: W
LayerCount: 2
Fore
SplineSet
72 -78 m 1,0,-1
 146 -78 l 1,1,-1
 97 -285 l 1,2,-1
 32 -285 l 1,3,-1
 72 -78 l 1,0,-1
72 0 m 1,4,-1
 72 500 l 1,5,-1
 146 500 l 1,6,-1
 146 432 l 1,7,8
 233 492 233 492 329 511 c 1,9,-1
 329 435 l 1,10,11
 287 427 287 427 241.5 410 c 128,-1,12
 196 393 196 393 172 380 c 2,13,-1
 147 367 l 1,14,-1
 147 0 l 1,15,-1
 72 0 l 1,4,-1
EndSplineSet
EndChar

StartChar: Rcaron
Encoding: 344 344 275
Width: 616
GlyphClass: 2
Flags: W
LayerCount: 2
Fore
SplineSet
162 265 m 1,0,-1
 162 0 l 1,1,-1
 85 0 l 1,2,-1
 85 692 l 1,3,-1
 341 692 l 2,4,5
 451 692 451 692 506.5 641 c 128,-1,6
 562 590 562 590 562 482 c 0,7,8
 562 322 562 322 435 281 c 1,9,-1
 568 0 l 1,10,-1
 483 0 l 1,11,-1
 358 265 l 1,12,-1
 162 265 l 1,0,-1
342 333 m 2,13,14
 483 333 483 333 483 478.5 c 128,-1,15
 483 624 483 624 341 624 c 2,16,-1
 162 624 l 1,17,-1
 162 333 l 1,18,-1
 342 333 l 2,13,14
268 791 m 1,19,-1
 134 926 l 1,20,-1
 218 926 l 1,21,-1
 301 846 l 1,22,-1
 383 926 l 1,23,-1
 467 926 l 1,24,-1
 333 791 l 1,25,-1
 268 791 l 1,19,-1
EndSplineSet
Position2: "'cpsp' Capital Spacing in Latin lookup 0 subtable" dx=5 dy=0 dh=10 dv=0
EndChar

StartChar: rcaron
Encoding: 345 345 276
Width: 346
GlyphClass: 2
Flags: W
LayerCount: 2
Fore
SplineSet
72 0 m 1,0,-1
 72 500 l 1,1,-1
 146 500 l 1,2,-1
 146 432 l 1,3,4
 233 492 233 492 329 511 c 1,5,-1
 329 435 l 1,6,7
 287 427 287 427 241.5 410 c 128,-1,8
 196 393 196 393 172 380 c 2,9,-1
 147 367 l 1,10,-1
 147 0 l 1,11,-1
 72 0 l 1,0,-1
149 592 m 1,12,-1
 26 732 l 1,13,-1
 100 732 l 1,14,-1
 175 645 l 1,15,-1
 249 732 l 1,16,-1
 324 732 l 1,17,-1
 199 592 l 1,18,-1
 149 592 l 1,12,-1
EndSplineSet
EndChar

StartChar: Sacute
Encoding: 346 346 277
Width: 542
GlyphClass: 2
Flags: W
LayerCount: 2
Fore
SplineSet
276 635 m 0,0,1
 126 635 126 635 126 522 c 0,2,3
 126 459 126 459 160.5 435.5 c 128,-1,4
 195 412 195 412 300.5 388.5 c 128,-1,5
 406 365 406 365 450 327.5 c 128,-1,6
 494 290 494 290 494 204 c 0,7,8
 494 -9 494 -9 273 -9 c 0,9,10
 200 -9 200 -9 90 8 c 1,11,-1
 54 13 l 1,12,-1
 62 77 l 1,13,14
 198 59 198 59 269 59 c 0,15,16
 417 59 417 59 417 198 c 0,17,18
 417 254 417 254 384.5 278.5 c 128,-1,19
 352 303 352 303 263 320 c 1,20,21
 146 345 146 345 97 384.5 c 128,-1,22
 48 424 48 424 48 517 c 0,23,24
 48 703 48 703 271 703 c 0,25,26
 344 703 344 703 446 688 c 2,27,-1
 480 683 l 1,28,-1
 473 618 l 1,29,30
 334 635 334 635 276 635 c 0,0,1
163 831 m 1,31,-1
 379 931 l 1,32,-1
 405 865 l 1,33,-1
 186 778 l 1,34,-1
 163 831 l 1,31,-1
EndSplineSet
Position2: "'cpsp' Capital Spacing in Latin lookup 0 subtable" dx=5 dy=0 dh=10 dv=0
EndChar

StartChar: sacute
Encoding: 347 347 278
Width: 465
GlyphClass: 2
Flags: W
LayerCount: 2
Fore
SplineSet
229 443 m 0,0,1
 120 443 120 443 120 367 c 0,2,3
 120 332 120 332 145 317.5 c 128,-1,4
 170 303 170 303 259 287.5 c 128,-1,5
 348 272 348 272 385 244 c 128,-1,6
 422 216 422 216 422 139 c 128,-1,7
 422 62 422 62 372.5 26 c 128,-1,8
 323 -10 323 -10 228 -10 c 0,9,10
 166 -10 166 -10 82 4 c 2,11,-1
 52 9 l 1,12,-1
 56 74 l 1,13,14
 170 57 170 57 228 57 c 128,-1,15
 286 57 286 57 316.5 75.5 c 128,-1,16
 347 94 347 94 347 137.5 c 128,-1,17
 347 181 347 181 321 196.5 c 128,-1,18
 295 212 295 212 207 226 c 128,-1,19
 119 240 119 240 82 267 c 128,-1,20
 45 294 45 294 45 367 c 128,-1,21
 45 440 45 440 96.5 475 c 128,-1,22
 148 510 148 510 225 510 c 0,23,24
 286 510 286 510 378 496 c 1,25,-1
 406 491 l 1,26,-1
 404 427 l 1,27,28
 293 443 293 443 229 443 c 0,0,1
114 642 m 1,29,-1
 330 740 l 1,30,-1
 356 676 l 1,31,-1
 135 591 l 1,32,-1
 114 642 l 1,29,-1
EndSplineSet
EndChar

StartChar: Scircumflex
Encoding: 348 348 279
Width: 542
GlyphClass: 2
Flags: W
LayerCount: 2
Fore
SplineSet
276 635 m 0,0,1
 126 635 126 635 126 522 c 0,2,3
 126 459 126 459 160.5 435.5 c 128,-1,4
 195 412 195 412 300.5 388.5 c 128,-1,5
 406 365 406 365 450 327.5 c 128,-1,6
 494 290 494 290 494 204 c 0,7,8
 494 -9 494 -9 273 -9 c 0,9,10
 200 -9 200 -9 90 8 c 1,11,-1
 54 13 l 1,12,-1
 62 77 l 1,13,14
 198 59 198 59 269 59 c 0,15,16
 417 59 417 59 417 198 c 0,17,18
 417 254 417 254 384.5 278.5 c 128,-1,19
 352 303 352 303 263 320 c 1,20,21
 146 345 146 345 97 384.5 c 128,-1,22
 48 424 48 424 48 517 c 0,23,24
 48 703 48 703 271 703 c 0,25,26
 344 703 344 703 446 688 c 2,27,-1
 480 683 l 1,28,-1
 473 618 l 1,29,30
 334 635 334 635 276 635 c 0,0,1
108 788 m 1,31,-1
 242 923 l 1,32,-1
 307 923 l 1,33,-1
 441 788 l 1,34,-1
 357 788 l 1,35,-1
 275 868 l 1,36,-1
 192 788 l 1,37,-1
 108 788 l 1,31,-1
EndSplineSet
Position2: "'cpsp' Capital Spacing in Latin lookup 0 subtable" dx=5 dy=0 dh=10 dv=0
EndChar

StartChar: scircumflex
Encoding: 349 349 280
Width: 465
GlyphClass: 2
Flags: W
LayerCount: 2
Fore
SplineSet
229 443 m 0,0,1
 120 443 120 443 120 367 c 0,2,3
 120 332 120 332 145 317.5 c 128,-1,4
 170 303 170 303 259 287.5 c 128,-1,5
 348 272 348 272 385 244 c 128,-1,6
 422 216 422 216 422 139 c 128,-1,7
 422 62 422 62 372.5 26 c 128,-1,8
 323 -10 323 -10 228 -10 c 0,9,10
 166 -10 166 -10 82 4 c 2,11,-1
 52 9 l 1,12,-1
 56 74 l 1,13,14
 170 57 170 57 228 57 c 128,-1,15
 286 57 286 57 316.5 75.5 c 128,-1,16
 347 94 347 94 347 137.5 c 128,-1,17
 347 181 347 181 321 196.5 c 128,-1,18
 295 212 295 212 207 226 c 128,-1,19
 119 240 119 240 82 267 c 128,-1,20
 45 294 45 294 45 367 c 128,-1,21
 45 440 45 440 96.5 475 c 128,-1,22
 148 510 148 510 225 510 c 0,23,24
 286 510 286 510 378 496 c 1,25,-1
 406 491 l 1,26,-1
 404 427 l 1,27,28
 293 443 293 443 229 443 c 0,0,1
85 592 m 1,29,-1
 208 732 l 1,30,-1
 259 732 l 1,31,-1
 383 592 l 1,32,-1
 308 592 l 1,33,-1
 235 679 l 1,34,-1
 160 592 l 1,35,-1
 85 592 l 1,29,-1
EndSplineSet
EndChar

StartChar: Scedilla
Encoding: 350 350 281
Width: 542
GlyphClass: 2
Flags: W
LayerCount: 2
Fore
SplineSet
410 -127 m 0,0,1
 410 -217 410 -217 317 -217 c 0,2,3
 271 -217 271 -217 242 -212 c 2,4,-1
 231 -210 l 1,5,-1
 234 -162 l 1,6,7
 273 -165 273 -165 300 -165 c 0,8,9
 344 -165 344 -165 344 -127 c 0,10,11
 344 -93 344 -93 300 -93 c 2,12,-1
 258 -93 l 1,13,-1
 258 -9 l 1,14,15
 184 -7 184 -7 86 8 c 2,16,-1
 54 13 l 1,17,-1
 62 77 l 1,18,19
 198 59 198 59 269 59 c 0,20,21
 417 59 417 59 417 198 c 0,22,23
 417 254 417 254 384.5 278.5 c 128,-1,24
 352 303 352 303 263 320 c 1,25,26
 146 345 146 345 97 384.5 c 128,-1,27
 48 424 48 424 48 517 c 0,28,29
 48 703 48 703 271 703 c 0,30,31
 344 703 344 703 446 688 c 2,32,-1
 480 683 l 1,33,-1
 473 618 l 1,34,35
 334 635 334 635 276 635 c 0,36,37
 126 635 126 635 126 522 c 0,38,39
 126 459 126 459 160.5 435.5 c 128,-1,40
 195 412 195 412 300.5 388.5 c 128,-1,41
 406 365 406 365 450 327.5 c 128,-1,42
 494 290 494 290 494 204 c 0,43,44
 494 5 494 5 299 -8 c 1,45,-1
 299 -49 l 1,46,47
 358 -49 358 -49 384 -65 c 128,-1,48
 410 -81 410 -81 410 -127 c 0,0,1
EndSplineSet
Substitution2: "'locl' Localized Forms in Latin lookup 0 subtable" Scommaaccent
Position2: "'cpsp' Capital Spacing in Latin lookup 0 subtable" dx=5 dy=0 dh=10 dv=0
EndChar

StartChar: scedilla
Encoding: 351 351 282
Width: 465
GlyphClass: 2
Flags: W
LayerCount: 2
Fore
SplineSet
356 -127 m 0,0,1
 356 -217 356 -217 263 -217 c 0,2,3
 217 -217 217 -217 188 -212 c 2,4,-1
 177 -210 l 1,5,-1
 180 -162 l 1,6,7
 219 -165 219 -165 246 -165 c 0,8,9
 290 -165 290 -165 290 -127 c 0,10,11
 290 -93 290 -93 246 -93 c 2,12,-1
 204 -93 l 1,13,-1
 204 -9 l 1,14,15
 146 -7 146 -7 76 5 c 2,16,-1
 52 9 l 1,17,-1
 56 74 l 1,18,19
 170 57 170 57 228 57 c 128,-1,20
 286 57 286 57 316.5 75.5 c 128,-1,21
 347 94 347 94 347 137.5 c 128,-1,22
 347 181 347 181 321 196.5 c 128,-1,23
 295 212 295 212 207 226 c 128,-1,24
 119 240 119 240 82 267 c 128,-1,25
 45 294 45 294 45 367 c 128,-1,26
 45 440 45 440 96.5 475 c 128,-1,27
 148 510 148 510 225 510 c 0,28,29
 286 510 286 510 378 496 c 1,30,-1
 406 491 l 1,31,-1
 404 427 l 1,32,33
 293 443 293 443 229 443 c 0,34,35
 120 443 120 443 120 367 c 0,36,37
 120 332 120 332 145 317.5 c 128,-1,38
 170 303 170 303 259 287.5 c 128,-1,39
 348 272 348 272 385 244 c 128,-1,40
 422 216 422 216 422 140.5 c 128,-1,41
 422 65 422 65 377 29 c 128,-1,42
 332 -7 332 -7 245 -10 c 1,43,-1
 245 -49 l 1,44,45
 304 -49 304 -49 330 -65 c 128,-1,46
 356 -81 356 -81 356 -127 c 0,0,1
EndSplineSet
Substitution2: "'locl' Localized Forms in Latin lookup 0 subtable" scommaaccent
EndChar

StartChar: Scaron
Encoding: 352 352 283
Width: 542
GlyphClass: 2
Flags: W
LayerCount: 2
Fore
SplineSet
276 635 m 0,0,1
 126 635 126 635 126 522 c 0,2,3
 126 459 126 459 160.5 435.5 c 128,-1,4
 195 412 195 412 300.5 388.5 c 128,-1,5
 406 365 406 365 450 327.5 c 128,-1,6
 494 290 494 290 494 204 c 0,7,8
 494 -9 494 -9 273 -9 c 0,9,10
 200 -9 200 -9 90 8 c 1,11,-1
 54 13 l 1,12,-1
 62 77 l 1,13,14
 198 59 198 59 269 59 c 0,15,16
 417 59 417 59 417 198 c 0,17,18
 417 254 417 254 384.5 278.5 c 128,-1,19
 352 303 352 303 263 320 c 1,20,21
 146 345 146 345 97 384.5 c 128,-1,22
 48 424 48 424 48 517 c 0,23,24
 48 703 48 703 271 703 c 0,25,26
 344 703 344 703 446 688 c 2,27,-1
 480 683 l 1,28,-1
 473 618 l 1,29,30
 334 635 334 635 276 635 c 0,0,1
250 791 m 1,31,-1
 116 926 l 1,32,-1
 200 926 l 1,33,-1
 283 846 l 1,34,-1
 365 926 l 1,35,-1
 449 926 l 1,36,-1
 315 791 l 1,37,-1
 250 791 l 1,31,-1
EndSplineSet
Position2: "'cpsp' Capital Spacing in Latin lookup 0 subtable" dx=5 dy=0 dh=10 dv=0
EndChar

StartChar: scaron
Encoding: 353 353 284
Width: 465
GlyphClass: 2
Flags: W
LayerCount: 2
Fore
SplineSet
229 443 m 0,0,1
 120 443 120 443 120 367 c 0,2,3
 120 332 120 332 145 317.5 c 128,-1,4
 170 303 170 303 259 287.5 c 128,-1,5
 348 272 348 272 385 244 c 128,-1,6
 422 216 422 216 422 139 c 128,-1,7
 422 62 422 62 372.5 26 c 128,-1,8
 323 -10 323 -10 228 -10 c 0,9,10
 166 -10 166 -10 82 4 c 2,11,-1
 52 9 l 1,12,-1
 56 74 l 1,13,14
 170 57 170 57 228 57 c 128,-1,15
 286 57 286 57 316.5 75.5 c 128,-1,16
 347 94 347 94 347 137.5 c 128,-1,17
 347 181 347 181 321 196.5 c 128,-1,18
 295 212 295 212 207 226 c 128,-1,19
 119 240 119 240 82 267 c 128,-1,20
 45 294 45 294 45 367 c 128,-1,21
 45 440 45 440 96.5 475 c 128,-1,22
 148 510 148 510 225 510 c 0,23,24
 286 510 286 510 378 496 c 1,25,-1
 406 491 l 1,26,-1
 404 427 l 1,27,28
 293 443 293 443 229 443 c 0,0,1
216 592 m 1,29,-1
 93 732 l 1,30,-1
 167 732 l 1,31,-1
 242 645 l 1,32,-1
 316 732 l 1,33,-1
 391 732 l 1,34,-1
 266 592 l 1,35,-1
 216 592 l 1,29,-1
EndSplineSet
EndChar

StartChar: tcedilla
Encoding: 355 355 286
Width: 351
GlyphClass: 2
Flags: W
LayerCount: 2
Fore
SplineSet
331 435 m 1,0,-1
 172 435 l 1,1,-1
 172 196 l 2,2,3
 172 110 172 110 184.5 83 c 128,-1,4
 197 56 197 56 244 56 c 1,5,-1
 333 62 l 1,6,-1
 338 0 l 1,7,8
 271 -11 271 -11 236 -11 c 0,9,10
 158 -11 158 -11 128 27 c 128,-1,11
 98 65 98 65 98 172 c 2,12,-1
 98 435 l 1,13,-1
 27 435 l 1,14,-1
 27 500 l 1,15,-1
 98 500 l 1,16,-1
 98 653 l 1,17,-1
 172 653 l 1,18,-1
 172 500 l 1,19,-1
 331 500 l 1,20,-1
 331 435 l 1,0,-1
264 -127 m 0,21,22
 264 -217 264 -217 171 -217 c 0,23,24
 125 -217 125 -217 96 -212 c 2,25,-1
 85 -210 l 1,26,-1
 88 -162 l 1,27,28
 127 -165 127 -165 154 -165 c 0,29,30
 198 -165 198 -165 198 -127 c 0,31,32
 198 -93 198 -93 154 -93 c 2,33,-1
 112 -93 l 1,34,-1
 112 1 l 1,35,-1
 153 1 l 1,36,-1
 153 -49 l 1,37,38
 212 -49 212 -49 238 -65 c 128,-1,39
 264 -81 264 -81 264 -127 c 0,21,22
EndSplineSet
Substitution2: "'locl' Localized Forms in Latin lookup 0 subtable" tcommaaccent
EndChar

StartChar: Tcaron
Encoding: 356 356 287
Width: 526
GlyphClass: 2
Flags: W
LayerCount: 2
Fore
SplineSet
13 623 m 1,0,-1
 13 692 l 1,1,-1
 513 692 l 1,2,-1
 513 623 l 1,3,-1
 302 623 l 1,4,-1
 302 0 l 1,5,-1
 226 0 l 1,6,-1
 226 623 l 1,7,-1
 13 623 l 1,0,-1
231 791 m 1,8,-1
 97 926 l 1,9,-1
 181 926 l 1,10,-1
 264 846 l 1,11,-1
 346 926 l 1,12,-1
 430 926 l 1,13,-1
 296 791 l 1,14,-1
 231 791 l 1,8,-1
EndSplineSet
Position2: "'cpsp' Capital Spacing in Latin lookup 0 subtable" dx=5 dy=0 dh=10 dv=0
EndChar

StartChar: tcaron
Encoding: 357 357 288
Width: 432
GlyphClass: 2
Flags: W
LayerCount: 2
Fore
SplineSet
331 432 m 1,0,-1
 173 432 l 1,1,-1
 173 199 l 2,2,3
 173 113 173 113 185 86.5 c 128,-1,4
 197 60 197 60 245 60 c 1,5,-1
 334 65 l 1,6,-1
 338 0 l 1,7,8
 272 -11 272 -11 237 -11 c 0,9,10
 158 -11 158 -11 128 27.5 c 128,-1,11
 98 66 98 66 98 172 c 2,12,-1
 98 432 l 1,13,-1
 27 432 l 1,14,-1
 27 500 l 1,15,-1
 98 500 l 1,16,-1
 98 653 l 1,17,-1
 173 653 l 1,18,-1
 173 500 l 1,19,-1
 331 500 l 1,20,-1
 331 432 l 1,0,-1
442 696 m 1,21,-1
 442 462 l 1,22,-1
 370 462 l 1,23,-1
 370 696 l 1,24,-1
 442 696 l 1,21,-1
EndSplineSet
EndChar

StartChar: Tbar
Encoding: 358 358 289
Width: 529
GlyphClass: 2
Flags: W
LayerCount: 2
Fore
SplineSet
15 623 m 1,0,-1
 15 692 l 1,1,-1
 515 692 l 1,2,-1
 515 623 l 1,3,-1
 304 623 l 1,4,-1
 304 366 l 1,5,-1
 468 366 l 1,6,-1
 468 300 l 1,7,-1
 304 300 l 1,8,-1
 304 0 l 1,9,-1
 228 0 l 1,10,-1
 228 300 l 1,11,-1
 65 300 l 1,12,-1
 65 366 l 1,13,-1
 228 366 l 1,14,-1
 228 623 l 1,15,-1
 15 623 l 1,0,-1
EndSplineSet
Position2: "'cpsp' Capital Spacing in Latin lookup 0 subtable" dx=5 dy=0 dh=10 dv=0
EndChar

StartChar: tbar
Encoding: 359 359 290
Width: 354
GlyphClass: 2
Flags: W
LayerCount: 2
Fore
SplineSet
333 432 m 1,0,-1
 175 432 l 1,1,-1
 175 312 l 1,2,-1
 309 312 l 1,3,-1
 309 253 l 1,4,-1
 175 253 l 1,5,-1
 175 199 l 2,6,7
 175 113 175 113 187 86.5 c 128,-1,8
 199 60 199 60 247 60 c 1,9,-1
 336 65 l 1,10,-1
 340 0 l 1,11,12
 274 -11 274 -11 239 -11 c 0,13,14
 160 -11 160 -11 130 27.5 c 128,-1,15
 100 66 100 66 100 172 c 2,16,-1
 100 253 l 1,17,-1
 45 253 l 1,18,-1
 45 312 l 1,19,-1
 100 312 l 1,20,-1
 100 432 l 1,21,-1
 29 432 l 1,22,-1
 29 500 l 1,23,-1
 100 500 l 1,24,-1
 100 653 l 1,25,-1
 175 653 l 1,26,-1
 175 500 l 1,27,-1
 333 500 l 1,28,-1
 333 432 l 1,0,-1
EndSplineSet
EndChar

